<?xml version="1.0" standalone="no"?>
<!DOCTYPE svg PUBLIC "-//W3C//DTD SVG 20010904//EN"
 "http://www.w3.org/TR/2001/REC-SVG-20010904/DTD/svg10.dtd">
<svg version="1.0" xmlns="http://www.w3.org/2000/svg"
 width="300.000000pt" height="418.000000pt" viewBox="0 0 300.000000 418.000000"
 preserveAspectRatio="xMidYMid meet">
<metadata>
Created by potrace 1.10, written by Peter Selinger 2001-2011
</metadata>
<g transform="translate(0.000000,418.000000) scale(0.100000,-0.100000)"
fill="#d92a2a" stroke="none">
<path d="M1815 4020 c-4 -7 3 -8 22 -4 38 9 42 14 10 14 -14 0 -29 -5 -32 -10z"/>
<path d="M1908 4013 c6 -2 18 -2 25 0 6 3 1 5 -13 5 -14 0 -19 -2 -12 -5z"/>
<path d="M1300 3946 c0 -8 4 -17 9 -20 5 -4 7 3 4 14 -6 23 -13 26 -13 6z"/>
<path d="M1885 3940 c-14 -5 -7 -8 25 -13 25 -3 46 -5 47 -3 7 7 -56 22 -72
16z"/>
<path d="M1943 3943 c4 -3 10 -3 14 0 3 4 0 7 -7 7 -7 0 -10 -3 -7 -7z"/>
<path d="M1332 3915 c0 -16 3 -39 8 -50 8 -18 9 -18 8 5 0 14 -4 36 -8 50 -8
24 -8 24 -8 -5z"/>
<path d="M1825 3930 c3 -5 11 -10 16 -10 6 0 7 5 4 10 -3 6 -11 10 -16 10 -6
0 -7 -4 -4 -10z"/>
<path d="M1868 3913 c7 -3 16 -2 19 1 4 3 -2 6 -13 5 -11 0 -14 -3 -6 -6z"/>
<path d="M1280 3900 c0 -7 3 -10 7 -7 3 4 3 10 0 14 -4 3 -7 0 -7 -7z"/>
<path d="M1920 3900 c8 -5 20 -10 25 -10 6 0 3 5 -5 10 -8 5 -19 10 -25 10 -5
0 -3 -5 5 -10z"/>
<path d="M1390 3890 c0 -7 3 -10 7 -7 3 4 3 10 0 14 -4 3 -7 0 -7 -7z"/>
<path d="M1360 3878 c0 -7 5 -20 10 -28 8 -12 10 -9 10 13 0 15 -4 27 -10 27
-5 0 -10 -6 -10 -12z"/>
<path d="M1823 3883 c4 -3 10 -3 14 0 3 4 0 7 -7 7 -7 0 -10 -3 -7 -7z"/>
<path d="M1883 3883 c4 -3 10 -3 14 0 3 4 0 7 -7 7 -7 0 -10 -3 -7 -7z"/>
<path d="M1860 3870 c0 -4 18 -10 39 -14 22 -3 48 -9 58 -13 10 -3 15 -3 12 1
-11 11 -109 35 -109 26z"/>
<path d="M1788 3863 c7 -3 16 -2 19 1 4 3 -2 6 -13 5 -11 0 -14 -3 -6 -6z"/>
<path d="M1267 3837 c-3 -8 -1 -20 4 -28 6 -10 9 -7 9 14 0 29 -5 35 -13 14z"/>
<path d="M1393 3812 c-2 -27 0 -33 7 -22 5 8 10 24 11 35 0 12 6 5 15 -19 19
-52 28 -60 19 -16 -14 68 -49 82 -52 22z"/>
<path d="M573 3813 c4 -3 10 -3 14 0 3 4 0 7 -7 7 -7 0 -10 -3 -7 -7z"/>
<path d="M1241 3798 c-1 -15 4 -30 9 -33 12 -7 12 12 0 40 -8 18 -9 17 -9 -7z"/>
<path d="M1835 3810 c42 -11 65 -11 65 -2 0 5 -21 9 -47 9 -42 1 -44 0 -18 -7z"/>
<path d="M1300 3770 c0 -18 4 -29 10 -25 6 3 10 15 10 25 0 10 -4 22 -10 25
-6 4 -10 -7 -10 -25z"/>
<path d="M645 3780 c-7 -12 2 -12 30 0 19 8 19 9 -2 9 -12 1 -25 -3 -28 -9z"/>
<path d="M1410 3769 c0 -11 4 -18 10 -14 5 3 7 12 3 20 -7 21 -13 19 -13 -6z"/>
<path d="M1846 3781 c-4 -5 3 -7 14 -4 23 6 26 13 6 13 -8 0 -17 -4 -20 -9z"/>
<path d="M2083 3783 c9 -2 23 -2 30 0 6 3 -1 5 -18 5 -16 0 -22 -2 -12 -5z"/>
<path d="M1838 3763 c-26 -3 -35 -8 -32 -18 4 -11 12 -11 37 -3 31 10 62 30
42 26 -6 -1 -27 -3 -47 -5z"/>
<path d="M1234 3744 c2 -10 8 -20 14 -22 17 -5 15 13 -2 27 -12 10 -14 9 -12
-5z"/>
<path d="M668 3743 c7 -3 16 -2 19 1 4 3 -2 6 -13 5 -11 0 -14 -3 -6 -6z"/>
<path d="M1430 3730 c0 -7 3 -10 7 -7 3 4 3 10 0 14 -4 3 -7 0 -7 -7z"/>
<path d="M1833 3723 c4 -3 10 -3 14 0 3 4 0 7 -7 7 -7 0 -10 -3 -7 -7z"/>
<path d="M2010 3715 c7 -8 24 -15 38 -15 32 0 25 8 -17 20 -28 8 -31 7 -21 -5z"/>
<path d="M1451 3704 c0 -11 3 -14 6 -6 3 7 2 16 -1 19 -3 4 -6 -2 -5 -13z"/>
<path d="M1870 3710 c0 -5 7 -7 15 -4 8 4 15 8 15 10 0 2 -7 4 -15 4 -8 0 -15
-4 -15 -10z"/>
<path d="M1783 3703 c4 -3 10 -3 14 0 3 4 0 7 -7 7 -7 0 -10 -3 -7 -7z"/>
<path d="M1928 3703 c6 -2 18 -2 25 0 6 3 1 5 -13 5 -14 0 -19 -2 -12 -5z"/>
<path d="M2085 3680 c-3 -5 -1 -10 4 -10 6 0 11 5 11 10 0 6 -2 10 -4 10 -3 0
-8 -4 -11 -10z"/>
<path d="M1390 3660 c0 -7 3 -10 7 -7 3 4 3 10 0 14 -4 3 -7 0 -7 -7z"/>
<path d="M1421 3622 c-13 -20 -17 -31 -9 -24 10 8 19 9 22 3 9 -15 -9 -53 -38
-80 -22 -21 -26 -22 -27 -8 -3 38 -26 80 -39 72 -6 -4 -7 2 -3 12 6 16 5 16
-10 4 -9 -7 -17 -24 -17 -37 0 -13 -4 -24 -9 -24 -5 0 -13 -9 -16 -21 -5 -16
-9 -18 -21 -8 -8 6 -12 20 -9 29 3 10 0 20 -9 23 -8 3 -17 18 -19 34 -3 23 -4
22 -3 -4 2 -35 -1 -38 -24 -24 -29 19 -28 -2 7 -77 19 -42 39 -86 44 -97 13
-28 29 -121 29 -164 -1 -41 -15 -65 -48 -75 -17 -6 -28 -1 -48 23 -14 17 -25
32 -25 35 -1 3 -22 44 -47 93 -34 63 -58 95 -87 115 -52 37 -123 49 -192 35
-68 -14 -91 -3 -203 97 -46 42 -88 76 -92 76 -9 0 103 -151 146 -198 48 -52
76 -63 160 -60 136 3 185 -42 227 -207 l17 -70 -23 -19 c-21 -17 -25 -53 -4
-40 5 3 9 2 9 -1 0 -14 -91 -45 -157 -53 l-72 -8 -6 50 c-10 77 -40 133 -75
141 -38 8 -57 -3 -116 -68 -48 -52 -159 -260 -214 -400 -17 -43 -25 -55 -32
-45 -7 9 -8 8 -4 -6 4 -11 9 -69 12 -130 6 -129 9 -150 27 -168 6 -7 29 -40
51 -73 99 -153 127 -170 190 -114 45 39 126 152 126 176 0 24 45 118 60 128 7
5 25 9 39 10 14 1 33 5 42 9 8 4 28 2 44 -4 25 -9 26 -9 15 5 -10 12 -10 18 0
30 7 9 15 13 18 10 3 -3 12 1 20 8 13 10 14 9 8 -3 -4 -8 6 1 23 20 l30 35 1
-40 2 -40 13 35 c12 32 14 33 15 10 3 -33 3 -28 -5 -79 -5 -31 -4 -42 4 -37 6
4 9 12 6 17 -4 5 1 16 9 25 15 14 16 10 10 -45 -4 -46 -1 -75 12 -114 11 -28
22 -54 26 -57 4 -3 11 -28 15 -55 7 -38 13 -50 26 -49 9 1 14 -2 11 -8 -3 -5
5 -19 19 -31 13 -12 27 -29 29 -37 3 -9 8 -2 12 18 10 42 20 41 32 -5 9 -38
10 -38 23 -15 7 13 13 39 14 58 2 30 4 32 15 17 10 -14 12 -10 12 30 0 26 4
47 8 47 5 0 8 12 7 28 -1 15 0 19 2 10 7 -28 18 -21 20 12 4 71 6 86 11 94 3
5 8 1 12 -9 6 -17 8 -16 12 7 3 15 2 25 -2 23 -5 -3 -10 2 -13 9 -3 8 -1 17 6
20 9 3 8 8 -3 15 -14 10 -7 16 14 12 5 -1 6 30 3 73 -4 48 -3 76 3 76 6 0 10
-7 10 -16 0 -9 5 -12 12 -8 6 4 8 3 4 -4 -7 -12 52 -71 74 -73 8 -1 26 -2 40
-2 19 -2 24 -7 22 -22 -2 -15 -1 -17 7 -6 12 18 79 8 137 -20 40 -19 79 -72
67 -92 -2 -4 0 -14 6 -20 12 -15 11 -57 -2 -57 -5 0 -5 -10 -1 -22 6 -20 3
-19 -21 7 l-27 30 22 -44 c12 -23 17 -40 11 -36 -7 4 -11 -3 -11 -17 l-1 -23
-13 24 c-8 14 -12 32 -9 40 4 13 3 13 -5 2 -9 -13 -49 -21 -109 -22 -13 -1
-23 -3 -23 -5 0 -7 24 -48 39 -66 9 -12 10 -18 3 -18 -6 0 -9 -6 -6 -13 3 -8
0 -25 -5 -40 -7 -18 -7 -27 2 -31 7 -2 3 -5 -8 -5 -16 -1 -17 -3 -5 -11 12 -7
6 -13 -25 -27 -55 -24 -127 -23 -154 1 -16 14 -21 15 -21 5 1 -17 35 -59 48
-59 6 0 8 -9 5 -20 -3 -11 -10 -20 -15 -20 -7 0 -7 -4 0 -13 7 -8 6 -18 -4
-31 -9 -13 -14 -15 -14 -6 0 7 -3 10 -6 7 -4 -4 -1 -13 6 -22 7 -8 9 -15 5
-15 -4 0 -1 -7 6 -16 12 -15 11 -16 -7 -10 -28 9 -40 -19 -16 -34 13 -8 9 -9
-18 -4 -31 6 -33 5 -21 -10 24 -29 22 -121 -5 -173 -17 -35 -20 -50 -12 -60 7
-9 7 -13 0 -13 -6 0 -13 6 -16 13 -5 10 -7 10 -12 0 -3 -7 -15 -13 -27 -13
-11 0 -17 -3 -14 -6 3 -4 -5 -16 -19 -27 -20 -15 -23 -22 -12 -28 7 -5 8 -9 3
-9 -6 0 -17 6 -24 12 -9 8 -11 8 -8 2 4 -7 0 -15 -9 -18 -10 -4 -13 -2 -8 7 5
9 4 9 -7 0 -17 -17 -43 -17 -32 0 10 17 4 49 -14 68 -11 14 -12 18 -1 22 10 4
10 6 1 6 -18 1 -16 31 2 31 9 0 15 -10 16 -27 2 -28 20 75 20 112 0 19 1 19
10 2 6 -10 13 -52 16 -93 3 -42 9 -70 13 -64 4 7 11 11 16 10 19 -4 65 36 81
70 9 19 18 58 21 85 l4 50 -38 1 c-22 1 -29 -1 -16 -3 17 -3 22 -11 22 -34 0
-19 -5 -29 -15 -29 -8 0 -14 -6 -13 -12 2 -8 -7 -13 -22 -13 -21 0 -26 5 -28
33 -2 22 3 41 14 53 9 10 14 25 11 33 -4 10 2 16 21 19 l27 4 -28 2 c-16 0
-36 8 -44 17 -9 9 -25 13 -36 10 -13 -3 -26 2 -34 12 -11 15 -12 13 -3 -10 9
-26 7 -28 -15 -28 -29 0 -35 30 -10 50 8 7 15 18 14 24 0 7 -2 6 -6 -1 -2 -7
-11 -13 -18 -13 -7 0 -16 6 -19 13 -3 6 -3 -5 1 -26 3 -21 1 -37 -3 -36 -28 5
-54 -2 -48 -13 4 -6 3 -8 -4 -5 -15 10 -42 -3 -42 -19 0 -8 -8 -14 -17 -14
-14 0 -15 2 -4 9 7 5 10 14 7 20 -4 6 0 11 11 12 10 0 3 5 -15 10 -35 11 -35
32 1 25 12 -2 28 3 35 10 7 8 9 14 4 14 -6 0 -12 9 -15 20 -3 14 -10 18 -22
14 -10 -4 -21 1 -30 12 -12 17 -11 21 5 37 11 9 27 17 37 17 10 0 25 5 33 10
12 8 13 12 2 19 -11 7 -11 9 2 14 8 3 17 1 20 -6 3 -8 9 -7 19 5 10 13 17 14
25 6 18 -18 24 -3 10 28 -6 16 -13 31 -14 32 -1 2 -29 -8 -61 -22 -134 -60
-204 -28 -204 91 0 72 15 110 60 151 22 20 29 30 16 25 -23 -8 -36 -17 -75
-55 -15 -15 -31 -24 -34 -21 -3 4 -6 1 -6 -5 0 -7 -8 -12 -17 -12 -13 0 -15
-2 -5 -8 16 -11 6 -39 -16 -47 -22 -6 -75 -55 -68 -62 3 -3 12 0 21 7 27 23
16 6 -17 -25 -18 -17 -28 -23 -23 -15 8 13 7 13 -8 1 -14 -11 -17 -11 -17 0
-1 8 -7 0 -14 -17 -11 -24 -24 -34 -53 -42 -30 -8 -33 -10 -13 -11 l25 -2 -28
-24 c-36 -32 -71 -32 -111 1 -17 14 -46 35 -65 47 -37 23 -76 90 -88 147 -6
32 -5 34 10 21 9 -7 17 -10 17 -6 0 4 -9 14 -20 23 -11 10 -33 47 -49 84 -27
61 -28 66 -10 63 15 -3 19 2 18 23 -1 18 -3 21 -6 9 -6 -24 -35 -18 -39 8 -2
11 -8 21 -14 23 -5 2 -8 8 -5 13 4 5 -1 6 -10 3 -9 -4 -15 -3 -13 2 3 8 -4 14
-17 14 -3 0 -1 -9 5 -21 9 -16 7 -32 -8 -72 -72 -193 -179 -620 -202 -810 -5
-45 -15 -100 -21 -122 -6 -22 -13 -147 -15 -277 -4 -205 -3 -238 10 -238 27 0
80 99 133 247 9 24 19 43 23 43 14 0 19 -40 9 -73 -12 -41 6 -61 28 -32 31 41
54 111 88 269 33 153 59 235 71 223 9 -8 -21 -142 -55 -246 -17 -52 -28 -97
-25 -100 11 -11 35 34 55 104 40 136 71 225 78 225 4 0 17 17 29 38 11 21 30
46 42 57 11 10 20 22 20 27 0 4 9 17 20 28 24 24 27 4 3 -22 -16 -17 -15 -17
14 -3 33 16 50 48 56 105 3 24 9 34 18 32 8 -2 11 0 6 4 -7 8 20 44 34 44 4 0
6 -8 4 -17 -1 -10 1 -22 5 -28 4 -5 11 -28 15 -50 8 -48 34 -82 47 -63 5 8 8
2 8 -17 0 -35 26 -78 41 -69 6 3 14 17 20 31 14 39 34 22 34 -29 0 -59 9 -67
41 -37 23 22 27 22 38 8 10 -15 18 -11 66 33 67 60 96 79 87 53 -4 -9 -7 -29
-7 -43 0 -20 -3 -23 -9 -13 -7 11 -10 5 -13 -20 -2 -24 -8 -33 -18 -31 -11 2
-10 -1 3 -12 14 -10 15 -15 5 -19 -10 -4 -10 -6 0 -6 23 -2 12 -21 -12 -21
-24 0 -62 -40 -116 -122 -14 -21 -28 -38 -32 -38 -5 0 -8 -5 -8 -11 0 -5 8 -9
18 -8 16 2 29 -1 79 -21 12 -5 42 -39 65 -75 57 -86 142 -132 202 -109 11 4
13 10 7 18 -5 6 -6 63 -1 133 6 115 17 153 42 153 10 0 5 -80 -6 -98 -12 -20
6 -164 23 -184 16 -18 37 -26 26 -9 -3 5 4 28 16 51 17 33 20 51 16 92 -4 28
-14 60 -24 71 -13 15 -14 18 -3 13 9 -4 8 -2 -2 7 -10 8 -18 22 -18 33 0 15 6
12 33 -14 18 -18 35 -30 38 -28 3 3 6 -28 8 -68 2 -74 -15 -141 -42 -158 -8
-5 -5 -8 8 -8 12 0 45 16 75 35 30 19 59 35 63 35 5 0 35 20 66 44 32 24 75
49 97 56 49 15 62 27 41 35 -9 4 -13 13 -10 22 5 12 1 14 -18 8 -18 -5 -21 -4
-9 4 8 6 11 11 5 11 -5 0 -4 4 4 9 10 7 11 13 2 27 -6 11 -11 14 -11 8 0 -13
-60 -6 -60 7 0 5 13 9 30 9 23 0 28 4 23 16 -3 9 -8 12 -12 5 -11 -17 -34 5
-28 28 3 14 0 21 -9 21 -8 0 -13 6 -12 13 2 6 -5 11 -14 9 -16 -3 -22 8 -19
30 0 3 -17 21 -39 39 -32 27 -40 40 -40 66 0 18 3 33 6 33 15 0 103 -72 139
-115 22 -26 47 -55 56 -64 8 -9 23 -28 32 -41 l17 -24 0 33 c0 30 2 32 17 20
15 -13 16 -9 10 49 -4 34 -5 62 -3 62 2 0 16 -18 31 -40 40 -58 55 -53 55 20
0 33 4 60 8 60 5 0 25 -18 46 -40 45 -49 66 -52 67 -7 1 17 4 42 7 55 7 22 9
21 46 -24 42 -50 63 -99 73 -170 3 -25 9 -46 13 -49 4 -2 3 17 -2 43 -5 26
-11 67 -14 92 -5 38 -12 49 -36 63 -17 10 -28 20 -26 23 3 2 -10 21 -29 42
-41 44 -83 120 -101 180 -8 26 -27 56 -46 73 -43 37 -120 193 -112 225 7 28
12 29 59 9 19 -8 38 -11 41 -7 4 3 12 0 17 -8 9 -12 10 -11 5 4 -5 13 -2 17 8
13 15 -6 16 9 2 32 -6 9 -5 12 2 7 5 -3 12 -3 15 1 2 5 2 2 1 -4 -2 -7 1 -13
7 -13 11 0 83 -146 94 -190 3 -14 24 -45 46 -70 47 -53 81 -115 99 -185 7 -27
16 -54 21 -60 4 -5 13 -30 20 -55 7 -25 20 -54 28 -64 18 -21 87 -55 113 -56
19 0 97 -50 98 -62 0 -14 -24 -9 -63 12 -34 18 -135 29 -112 12 6 -4 12 -16
13 -26 2 -11 15 -35 29 -53 15 -19 20 -33 13 -33 -10 0 -10 -3 0 -15 7 -9 15
-13 18 -10 6 6 32 -14 32 -25 0 -17 -28 -3 -59 28 -21 20 -26 30 -14 25 12 -4
9 2 -10 20 -28 27 -47 34 -47 19 0 -4 30 -37 66 -72 37 -36 64 -59 60 -52 -4
6 -4 12 0 12 10 0 43 -40 49 -61 4 -10 26 -30 49 -44 38 -22 45 -32 60 -87 9
-35 24 -74 33 -87 l16 -25 17 22 c17 21 17 21 29 -18 14 -46 38 -76 69 -85 37
-11 37 19 2 108 -33 84 -83 334 -74 365 5 14 4 15 -5 2 -9 -12 -11 -11 -11 8
0 13 -4 21 -9 18 -15 -10 -22 24 -16 78 5 52 2 53 -9 4 -7 -33 -26 -38 -26 -7
0 11 4 17 10 14 5 -3 8 0 6 7 -3 7 -7 69 -10 138 -8 169 -15 266 -26 320 -5
25 -9 72 -8 105 0 33 -3 76 -6 95 -6 41 -35 122 -36 101 0 -11 -4 -9 -15 5
-16 21 -21 69 -6 60 5 -4 12 0 14 6 4 10 6 10 6 0 1 -16 30 -47 37 -40 7 7
-34 250 -57 342 -11 44 -28 95 -39 115 -10 20 -32 74 -49 121 -18 47 -41 105
-52 129 -21 45 -17 69 5 38 7 -9 16 -17 20 -17 3 0 33 -18 65 -40 32 -22 65
-40 73 -40 8 0 26 -9 39 -21 13 -11 34 -28 47 -38 13 -9 24 -23 25 -31 2 -8 6
-21 11 -29 5 -8 3 -16 -5 -22 -8 -5 -9 -9 -4 -10 6 0 2 -4 -8 -8 -14 -5 2 -17
72 -50 50 -24 96 -41 103 -38 7 2 -2 7 -19 11 -18 4 -33 12 -33 16 0 5 8 7 18
4 14 -5 14 -3 -3 11 -11 9 -19 18 -17 20 7 13 0 25 -14 25 -8 0 -13 4 -9 9 3
6 -4 15 -15 21 -17 9 -19 14 -9 26 14 17 -2 19 -21 2 -12 -11 -12 -10 -1 5 7
9 10 17 5 17 -5 0 -2 5 6 10 13 8 12 10 -3 10 -10 0 -15 4 -12 10 4 6 -1 7
-11 3 -13 -5 -15 -3 -9 7 6 10 4 12 -9 7 -11 -4 -15 -3 -11 4 4 6 1 9 -7 7 -7
-2 -14 1 -15 6 -1 5 -7 13 -15 18 -9 7 -7 8 7 3 11 -4 27 -8 35 -9 8 -1 32 -7
53 -15 47 -16 60 -8 18 10 -17 8 -31 17 -31 21 0 12 6 10 71 -23 82 -41 94
-32 20 16 -33 21 -58 41 -56 44 3 3 -5 11 -17 19 -16 9 -17 12 -4 7 17 -5 17
-4 5 12 -8 10 -22 24 -32 31 -9 7 -14 19 -11 25 4 7 4 9 -1 5 -5 -5 -19 8 -31
26 -13 19 -33 37 -44 41 -19 6 -19 7 -1 26 16 18 24 19 55 11 20 -6 38 -6 41
-2 11 18 -311 216 -383 235 -28 8 -123 13 -117 7 2 -2 34 -23 72 -47 37 -24
85 -56 107 -72 47 -35 136 -124 136 -138 0 -6 16 -28 35 -50 35 -41 45 -75 22
-75 -7 0 -35 8 -63 19 -28 10 -81 24 -117 31 -64 13 -68 16 -117 77 -85 106
-160 146 -240 128 -34 -7 -90 -50 -90 -68 0 -7 7 -4 14 6 8 10 20 20 28 21 7
2 24 8 38 14 26 11 67 -6 63 -26 -1 -6 5 -9 15 -8 15 3 49 -31 45 -44 0 -3 3
-12 8 -21 7 -15 4 -16 -29 -8 -20 4 -38 12 -40 17 -1 5 -10 18 -18 28 -15 19
-16 19 -9 0 3 -11 0 -23 -7 -29 -9 -6 -7 -7 7 -3 18 5 18 4 4 -6 -9 -7 -14
-18 -12 -25 2 -6 0 -14 -6 -17 -19 -12 -40 6 -43 37 -2 19 -9 33 -19 35 -12 2
-14 -5 -11 -33 2 -20 -1 -42 -8 -51 -22 -26 3 -37 32 -15 26 21 38 19 38 -5 0
-8 -6 -11 -13 -8 -8 3 -14 -2 -14 -10 0 -8 4 -13 9 -10 4 3 8 2 9 -3 0 -4 2
-16 4 -26 2 -13 -1 -17 -11 -13 -8 3 -14 1 -14 -3 0 -5 7 -11 15 -15 8 -3 15
-10 15 -16 0 -8 -6 -8 -20 0 -16 9 -18 8 -14 -5 4 -8 12 -15 19 -15 12 0 25
-21 25 -40 0 -4 -9 -6 -20 -3 -11 3 -20 9 -20 14 0 5 -7 6 -16 2 -9 -3 -12 -8
-5 -12 5 -4 14 -18 20 -33 9 -24 7 -28 -12 -34 -20 -7 -38 -8 -67 -5 -6 1 -11
51 -12 124 -1 67 -3 94 -5 60 l-4 -61 -30 8 c-17 5 -46 7 -66 4 -42 -5 -126
17 -162 42 -22 16 -23 18 -7 30 16 12 16 13 -4 24 l-21 11 27 47 c40 70 110
138 194 188 184 110 263 189 276 275 l6 44 -22 -41 c-13 -26 -42 -56 -77 -80
-117 -81 -125 -86 -120 -62 1 7 -8 14 -20 16 -27 4 -30 -10 -7 -33 21 -21 12
-40 -20 -43 -16 -1 -25 2 -21 8 3 6 -1 10 -10 10 -9 0 -14 -4 -10 -9 3 -6 -4
-15 -15 -21 -11 -6 -18 -15 -15 -21 4 -5 1 -9 -4 -9 -34 0 -61 -17 -55 -34 3
-8 0 -17 -6 -21 -6 -3 -10 -3 -9 2 4 20 -2 25 -18 13 -26 -18 27 31 62 58 l30
23 -30 -15 c-45 -22 -108 -83 -99 -97 4 -7 3 -9 -4 -6 -5 4 -33 -22 -62 -58
-46 -58 -76 -85 -94 -85 -12 0 -5 178 9 238 15 61 46 121 81 157 18 18 18 18
-9 13 -30 -6 -31 -5 -16 24 7 13 7 18 1 14 -6 -3 -13 -2 -16 3 -4 5 0 11 8 13
8 2 11 10 7 20 -5 14 -11 10 -30 -20z m-113 -133 c-7 -5 -20 -9 -28 -8 -11 0
-9 3 5 12 11 7 20 18 21 25 4 46 8 52 11 18 3 -25 0 -42 -9 -47z m-100 36 c-3
-3 -9 2 -12 12 -6 14 -5 15 5 6 7 -7 10 -15 7 -18z m702 -17 c0 -20 -83 -69
-92 -55 -6 9 -8 9 -8 -1 0 -7 -5 -10 -11 -6 -8 4 -2 12 15 21 15 8 30 12 33 9
3 -2 17 6 31 20 31 28 32 28 32 12z m-673 -15 c-4 -3 -7 0 -7 7 0 7 3 10 7 7
3 -4 3 -10 0 -14z m173 3 c0 -3 -4 -8 -10 -11 -5 -3 -10 -1 -10 4 0 6 5 11 10
11 6 0 10 -2 10 -4z m-503 -53 c-4 -3 -10 -3 -14 0 -3 4 0 7 7 7 7 0 10 -3 7
-7z m38 -13 c-3 -5 -14 -10 -23 -9 -14 0 -13 2 3 9 27 11 27 11 20 0z m32 3
c-4 -3 -10 -3 -14 0 -3 4 0 7 7 7 7 0 10 -3 7 -7z m13 -24 c0 -4 13 -9 28 -12
24 -5 52 -39 52 -62 0 -14 -40 -2 -44 13 -4 10 -22 25 -41 32 -38 15 -47 36
-15 36 11 0 20 -3 20 -7z m291 -46 c13 -16 12 -17 -3 -4 -10 7 -18 15 -18 17
0 8 8 3 21 -13z m-188 -80 c-7 -2 -19 -2 -25 0 -7 3 -2 5 12 5 14 0 19 -2 13
-5z m453 -5 c4 -7 3 -8 -4 -4 -7 4 -12 2 -12 -3 0 -6 -5 -11 -11 -11 -8 0 -8
5 1 15 15 18 17 18 26 3z m470 0 c3 -4 -1 -5 -10 -4 -8 1 -18 5 -22 8 -3 4 1
5 10 4 8 -1 18 -5 22 -8z m-896 -45 c8 -21 16 -41 18 -45 2 -3 -6 -4 -16 -1
-15 3 -21 15 -24 44 -5 49 4 50 22 2z m390 7 c0 -5 -2 -10 -4 -10 -3 0 -8 5
-11 10 -3 6 -1 10 4 10 6 0 11 -4 11 -10z m-16 -18 c3 -5 -1 -9 -9 -9 -8 0
-12 4 -9 9 3 4 7 8 9 8 2 0 6 -4 9 -8z m-369 -52 c3 -5 1 -10 -4 -10 -6 0 -11
5 -11 10 0 6 2 10 4 10 3 0 8 -4 11 -10z m48 -7 c3 -5 -4 -17 -14 -27 -19 -19
-19 -19 -19 1 0 28 22 45 33 26z m200 -164 c6 -22 2 -30 -21 -44 -15 -10 -22
-12 -15 -5 10 11 9 16 -5 26 -9 7 -14 16 -10 20 5 4 18 -1 30 -12 21 -19 21
-19 14 1 -9 23 -36 123 -36 132 0 4 -5 2 -12 -5 -8 -8 -8 -15 2 -27 9 -11 9
-15 1 -15 -7 0 -18 -6 -25 -13 -11 -11 -11 -16 0 -32 11 -15 16 -16 29 -5 8 7
15 8 15 3 0 -9 -81 -65 -87 -59 -2 2 1 14 6 27 8 19 10 20 10 5 1 -15 3 -16
16 -6 14 12 10 19 -32 56 l-48 43 45 1 c44 0 47 2 60 38 l14 37 21 -70 c12
-38 25 -82 28 -96z m766 136 c7 4 8 0 5 -10 -5 -12 -14 -14 -35 -10 -19 4 -29
3 -29 -5 0 -6 5 -8 12 -4 7 4 8 3 4 -5 -4 -6 -13 -8 -19 -4 -26 16 -39 12 -21
-8 17 -19 17 -19 -3 -16 -12 2 -28 9 -36 16 -14 11 -16 9 -14 -8 0 -11 4 -18
8 -15 4 2 10 1 13 -4 10 -17 -28 -8 -47 11 -18 18 -18 20 -3 35 9 9 16 11 16
5 0 -12 13 -11 42 1 15 7 42 13 62 15 4 1 5 9 2 18 -6 15 -5 15 13 -1 11 -10
24 -15 30 -11z m-1379 -3 c8 -4 16 -11 16 -17 13 -87 26 -187 28 -215 0 -14 3
-27 6 -30 3 -3 13 -25 23 -49 13 -35 14 -47 4 -53 -8 -5 -5 -8 9 -8 18 0 22
-6 23 -37 3 -109 8 -174 14 -180 14 -14 6 -33 -14 -33 -15 0 -19 5 -15 15 3 8
1 15 -4 15 -6 0 -10 13 -10 29 0 37 -10 62 -21 55 -5 -3 -9 -1 -9 5 0 5 6 12
13 14 6 3 -1 6 -18 6 -16 1 -25 5 -19 9 6 4 10 15 8 25 -1 9 2 15 7 11 5 -3 9
0 9 5 0 6 -6 11 -12 11 -9 0 -8 3 1 9 12 8 9 11 -12 16 -39 10 -53 31 -25 39
23 6 23 7 3 17 -11 6 -26 19 -33 27 -10 14 -9 18 10 30 13 7 16 11 8 9 -8 -2
-21 2 -28 9 -11 12 -7 14 20 15 l33 1 -32 11 c-37 14 -43 28 -16 39 12 6 9 6
-10 3 -19 -4 -26 -2 -22 5 3 5 13 10 21 10 8 0 23 9 34 20 11 11 16 20 10 20
-5 0 -20 11 -33 24 -28 28 -20 56 16 56 18 0 19 2 7 10 -8 5 -10 10 -5 10 6 0
2 5 -7 11 -37 21 -17 48 22 31z m1397 -29 c-4 -3 -7 0 -7 7 0 7 3 10 7 7 3 -4
3 -10 0 -14z m390 -10 c-4 -3 -10 -3 -14 0 -3 4 0 7 7 7 7 0 10 -3 7 -7z
m-1133 -23 c-7 -7 -19 -7 -35 -1 -23 9 -22 10 11 10 23 1 31 -2 24 -9z m-24
-14 c0 -3 -4 -8 -10 -11 -5 -3 -10 -1 -10 4 0 6 5 11 10 11 6 0 10 -2 10 -4z
m-174 -42 c-3 -6 1 -17 7 -23 8 -8 8 -11 -2 -11 -7 0 -9 -5 -5 -11 3 -6 -5 -4
-19 6 -29 18 -41 41 -26 50 5 4 7 10 4 15 -3 4 6 3 20 -3 14 -7 23 -17 21 -23z
m765 15 c7 -14 8 -24 1 -31 -15 -15 -29 -2 -29 27 0 31 12 32 28 4z m496 -26
c-4 -3 -7 0 -7 7 0 7 3 10 7 7 3 -4 3 -10 0 -14z m43 3 c0 -2 -7 -7 -16 -10
-8 -3 -12 -2 -9 4 6 10 25 14 25 6z m-1430 -16 c0 -14 -39 -32 -52 -24 -7 5
-5 11 7 21 22 15 45 17 45 3z m708 -163 c-1 -85 2 -159 6 -165 6 -11 2 -13
-20 -12 -3 1 -17 -21 -30 -47 -33 -61 -62 -93 -87 -93 -29 0 -123 50 -154 82
-18 19 -23 32 -18 45 5 12 9 14 12 5 8 -20 23 -3 23 25 0 21 2 23 15 13 12
-10 16 -8 25 15 5 14 10 32 10 40 0 8 5 17 10 20 6 3 10 -2 10 -12 1 -17 1
-17 11 0 10 17 8 41 -8 84 -6 17 -5 17 16 -2 l22 -19 -10 27 c-6 15 -17 40
-25 56 l-15 29 57 6 c43 5 124 35 149 55 1 0 1 -68 1 -152z m657 143 c3 -5 2
-10 -4 -10 -5 0 -13 5 -16 10 -3 6 -2 10 4 10 5 0 13 -4 16 -10z m-1251 -16
c9 -23 8 -24 -19 -24 -23 0 -24 2 -15 20 13 24 26 26 34 4z m1008 -8 c15 -27
4 -28 -21 -2 -19 20 -20 24 -6 22 10 -1 22 -10 27 -20z m-1298 -21 c43 -14 85
-25 92 -25 19 0 19 1 -21 -66 -35 -57 -45 -91 -24 -79 7 5 9 -8 4 -41 -6 -45
-5 -47 8 -25 14 23 14 22 19 -24 3 -26 11 -52 18 -58 9 -9 10 -6 5 14 -4 15 0
40 9 60 l15 34 -4 -37 c-3 -20 0 -40 5 -43 6 -3 10 3 10 14 0 11 4 22 9 25 5
3 8 -12 7 -34 0 -21 -4 -33 -8 -27 -5 8 -8 4 -8 -9 0 -22 -60 -76 -96 -88 -32
-10 -56 46 -49 116 6 49 -15 162 -40 222 -7 17 -5 18 21 12 24 -5 26 -4 11 5
-10 6 -25 8 -33 5 -15 -6 -34 28 -34 60 0 17 -9 19 84 -11z m383 9 c-3 -3 -12
-4 -19 -1 -8 3 -5 6 6 6 11 1 17 -2 13 -5z m164 -26 c-18 -5 -43 -15 -55 -22
-24 -16 -86 -19 -86 -5 0 5 -10 9 -22 9 -13 0 -30 5 -38 10 -26 17 43 12 78
-6 30 -15 34 -14 73 9 25 15 49 22 62 19 19 -5 18 -7 -12 -14z m460 5 c13 -16
12 -17 -3 -4 -10 7 -18 15 -18 17 0 8 8 3 21 -13z m-675 -41 c9 -12 26 -17 57
-16 36 1 46 -3 50 -18 3 -10 1 -18 -5 -18 -5 0 -7 -4 -4 -8 3 -5 -9 -6 -26 -4
-21 3 -26 7 -17 13 12 7 11 9 -1 10 -8 1 -18 1 -22 0 -5 0 -29 15 -55 36 -43
32 -45 35 -19 29 17 -4 35 -15 42 -24z m238 3 c-4 -8 -10 -12 -15 -9 -14 8
-10 24 6 24 9 0 12 -6 9 -15z m-354 -31 c0 -8 -4 -12 -10 -9 -5 3 -10 13 -10
21 0 8 5 12 10 9 6 -3 10 -13 10 -21z m300 6 c0 -21 -15 -27 -25 -10 -7 12 2
30 16 30 5 0 9 -9 9 -20z m-240 1 c0 -12 -20 -25 -27 -18 -7 7 6 27 18 27 5 0
9 -4 9 -9z m70 -30 c0 -6 -4 -12 -8 -15 -5 -3 -9 1 -9 9 0 8 4 15 9 15 4 0 8
-4 8 -9z m28 -3 c-2 -6 8 -17 21 -24 13 -7 27 -18 31 -24 6 -10 6 -62 -1 -80
0 -3 -1 -13 0 -22 2 -13 -3 -16 -16 -12 -16 6 -16 5 1 -8 18 -14 18 -15 -11
-25 -30 -11 -55 -4 -54 13 0 5 10 12 23 16 20 5 19 6 -8 7 -30 1 -31 3 -31 41
0 42 13 62 27 39 5 -7 7 6 5 31 -3 42 0 60 11 60 2 0 3 -5 2 -12z m545 -18 c9
-16 13 -39 10 -50 -3 -11 0 -27 7 -35 11 -13 10 -14 -5 -9 -15 6 -16 4 -7 -13
10 -18 8 -20 -11 -19 -14 1 -22 7 -21 19 0 9 1 44 2 77 1 33 4 60 6 60 3 0 11
-13 19 -30z m-653 -4 c0 -9 -40 -13 -46 -5 -3 5 6 9 20 9 14 0 26 -2 26 -4z
m1417 -3 c-4 -3 -10 -3 -14 0 -3 4 0 7 7 7 7 0 10 -3 7 -7z m-1371 -35 c-9
-12 -16 -19 -16 -15 0 11 24 47 28 42 2 -2 -3 -14 -12 -27z m1400 6 c1 -9 0
-13 -4 -10 -3 4 -7 14 -8 22 -1 9 0 13 4 10 3 -4 7 -14 8 -22z m-1449 9 c-4
-3 -10 -3 -14 0 -3 4 0 7 7 7 7 0 10 -3 7 -7z m1128 -33 c3 -5 4 -10 1 -10 -3
0 -8 5 -11 10 -3 6 -4 10 -1 10 3 0 8 -4 11 -10z m-465 -90 c0 -5 -2 -10 -4
-10 -3 0 -8 5 -11 10 -3 6 -1 10 4 10 6 0 11 -4 11 -10z m-25 -20 c3 -5 0 -10
-7 -10 -10 0 -10 -2 1 -9 11 -7 9 -10 -8 -16 -12 -3 -19 -11 -16 -16 4 -5 2
-9 -4 -9 -5 0 -13 5 -16 10 -3 6 -1 10 5 10 7 0 10 6 7 14 -9 24 25 47 38 26z
m-524 -30 c22 0 49 5 60 10 21 12 21 14 -31 -72 -9 -16 -7 -18 17 -18 24 0 26
-2 12 -15 -8 -9 -33 -18 -54 -22 -30 -5 -41 -2 -51 12 -19 26 -17 34 6 28 29
-8 39 26 14 46 -10 9 -20 25 -21 36 -1 11 0 14 3 8 3 -7 23 -13 45 -13z m780
3 c13 -16 12 -17 -3 -4 -10 7 -18 15 -18 17 0 8 8 3 21 -13z m-676 -3 c3 -5 4
-10 1 -10 -3 0 -8 5 -11 10 -3 6 -4 10 -1 10 3 0 8 -4 11 -10z m62 -77 c-4 -3
-7 0 -7 7 0 7 3 10 7 7 3 -4 3 -10 0 -14z m297 11 c20 -8 11 -24 -15 -24 -10
0 -19 7 -19 15 0 16 9 19 34 9z m-431 -87 c-4 -7 0 -8 13 -3 18 7 18 6 -1 -12
-31 -29 -48 -31 -67 -9 -23 26 -17 33 26 34 23 1 34 -3 29 -10z m-159 -77 c4
-31 3 -39 -4 -25 -9 20 -14 82 -6 74 2 -2 7 -24 10 -49z m1233 -2 c-3 -8 -6
-5 -6 6 -1 11 2 17 5 13 3 -3 4 -12 1 -19z m-977 -54 c0 -8 -5 -12 -10 -9 -6
4 -8 11 -5 16 9 14 15 11 15 -7z m-34 -48 c-3 -11 -5 -25 -5 -29 -1 -5 -5 -5
-11 -2 -5 3 -10 1 -10 -5 0 -6 -5 -8 -11 -4 -8 5 -8 9 1 14 8 5 10 18 7 32 -4
14 -4 28 0 31 12 12 33 -15 29 -37z m-89 7 c-4 -3 -7 0 -7 7 0 7 3 10 7 7 3
-4 3 -10 0 -14z m-47 -14 c0 -6 -4 -7 -10 -4 -5 3 -10 11 -10 16 0 6 5 7 10 4
6 -3 10 -11 10 -16z m-10 -44 c0 -2 -7 -8 -15 -15 -12 -10 -15 -10 -15 2 0 8
7 15 15 15 8 0 15 -1 15 -2z m68 -25 c-7 -10 -14 -17 -17 -15 -4 4 18 35 25
35 2 0 -1 -9 -8 -20z m-23 -40 c5 -29 4 -32 -5 -17 -14 22 -21 72 -9 60 5 -5
11 -24 14 -43z m62 -2 c-3 -8 -6 -5 -6 6 -1 11 2 17 5 13 3 -3 4 -12 1 -19z
m-10 -45 c-4 -3 -7 0 -7 7 0 7 3 10 7 7 3 -4 3 -10 0 -14z m928 -213 c3 -5 4
-10 1 -10 -3 0 -8 5 -11 10 -3 6 -4 10 -1 10 3 0 8 -4 11 -10z m-1739 -17 c-2
-9 -8 -18 -15 -19 -6 -1 -7 0 -2 2 6 3 7 12 4 20 -3 8 -1 14 5 14 6 0 9 -8 8
-17z m1754 -13 c0 -5 -2 -10 -4 -10 -3 0 -8 5 -11 10 -3 6 -1 10 4 10 6 0 11
-4 11 -10z m-730 -19 c0 -5 -6 -11 -13 -14 -8 -3 -14 1 -14 9 0 8 6 14 14 14
7 0 13 -4 13 -9z m907 -111 c-2 -10 -10 -4 -24 18 -11 19 -18 42 -16 53 4 15
9 12 24 -19 11 -20 18 -44 16 -52z m-1957 44 c-10 -42 -15 -48 -31 -38 -9 5
-7 11 6 21 14 9 15 13 4 13 -12 0 -12 2 1 10 8 5 11 10 5 10 -7 0 13 19 21 20
1 0 -2 -16 -6 -36z m1798 -10 c19 -29 21 -39 11 -48 -9 -8 -10 -7 -5 7 4 14 0
20 -15 24 -16 4 -17 8 -7 14 8 6 9 9 2 9 -7 0 -14 7 -18 15 -10 28 9 15 32
-21z m-986 2 c6 -14 8 -32 4 -42 -6 -16 -8 -16 -21 2 -13 16 -16 17 -24 4 -9
-12 -11 -12 -17 3 -4 11 0 25 11 37 24 26 33 25 47 -4z m-552 -27 c0 -6 -4 -7
-10 -4 -5 3 -10 11 -10 16 0 6 5 7 10 4 6 -3 10 -11 10 -16z m737 -15 c17 7
43 -10 43 -28 0 -6 -5 -3 -11 7 -5 9 -15 17 -20 17 -6 0 -7 -5 -3 -12 5 -8 2
-9 -10 -5 -10 4 -20 7 -22 7 -2 0 -3 10 -3 23 1 18 2 18 6 4 3 -12 10 -16 20
-13z m-1031 -23 c-12 -19 -24 -12 -19 10 4 13 9 17 15 11 6 -6 7 -15 4 -21z
m782 6 c21 -25 7 -51 -32 -59 -20 -4 -46 -13 -57 -18 -15 -8 -19 -7 -19 4 0
25 12 46 25 46 7 0 23 9 36 20 29 23 33 24 47 7z m1175 -47 c6 -31 5 -33 -7
-17 -8 10 -12 27 -9 38 7 25 9 22 16 -21z m-1980 1 c-12 -10 -19 -21 -16 -25
4 -3 4 -6 0 -6 -3 0 -8 4 -12 9 -6 11 22 41 38 41 7 -1 2 -9 -10 -19z m807
-31 c0 -5 -4 -10 -10 -10 -5 0 -10 5 -10 10 0 6 5 10 10 10 6 0 10 -4 10 -10z
m-845 -22 c-1 -12 -7 -24 -13 -26 -15 -5 -15 3 -2 29 14 25 17 24 15 -3z
m2022 -7 c0 -11 -5 -18 -9 -15 -4 3 -5 11 -1 19 7 21 12 19 10 -4z m-1230 2
c-4 -3 -10 -3 -14 0 -3 4 0 7 7 7 7 0 10 -3 7 -7z m53 -3 c0 -5 -5 -10 -11
-10 -5 0 -7 5 -4 10 3 6 8 10 11 10 2 0 4 -4 4 -10z m83 -15 c-3 -8 -9 -15
-14 -15 -10 0 -12 24 -3 33 11 11 24 -3 17 -18z m57 5 c0 -18 -3 -19 -20 -8
-14 9 -16 14 -7 20 20 13 27 9 27 -12z m-184 -17 c-8 -8 -66 -10 -66 -2 0 4
10 9 23 11 24 4 51 -2 43 -9z m304 -7 c0 -11 -19 -15 -25 -6 -3 5 1 10 9 10 9
0 16 -2 16 -4z m27 -13 c-4 -3 -7 0 -7 7 0 7 3 10 7 7 3 -4 3 -10 0 -14z
m-417 3 c0 -3 -4 -8 -10 -11 -5 -3 -10 -1 -10 4 0 6 5 11 10 11 6 0 10 -2 10
-4z m-43 -23 c-4 -3 -7 0 -7 7 0 7 3 10 7 7 3 -4 3 -10 0 -14z m101 8 c11 -7
11 -9 -1 -14 -9 -3 -18 1 -21 9 -6 16 2 18 22 5z m338 -16 c18 -15 18 -15 -5
-13 -14 2 -26 9 -29 16 -5 17 10 15 34 -3z m-412 -21 c5 -14 4 -15 -9 -4 -17
14 -19 20 -6 20 5 0 12 -7 15 -16z m96 -4 c0 -5 -4 -10 -9 -10 -6 0 -13 5 -16
10 -3 6 1 10 9 10 9 0 16 -4 16 -10z m257 -7 c-4 -3 -7 0 -7 7 0 7 3 10 7 7 3
-4 3 -10 0 -14z m103 2 c0 -10 -10 -15 -32 -15 l-33 1 30 14 c17 7 31 14 33
14 1 1 2 -6 2 -14z m-320 -10 c0 -8 -7 -15 -15 -15 -13 0 -14 3 -3 15 16 18
18 18 18 0z m191 2 c-7 -7 -14 -8 -21 -1 -6 6 -2 10 12 11 16 2 18 -1 9 -10z
m-306 -17 c3 -5 1 -10 -4 -10 -6 0 -11 5 -11 10 0 6 2 10 4 10 3 0 8 -4 11
-10z m255 0 c0 -5 -8 -10 -17 -10 -15 0 -16 2 -3 10 19 12 20 12 20 0z m31
-17 c13 -16 12 -17 -3 -4 -17 13 -22 21 -14 21 2 0 10 -8 17 -17z m64 7 c-3
-5 -15 -10 -26 -10 -10 0 -19 5 -19 10 0 6 12 10 26 10 14 0 23 -4 19 -10z
m100 0 c3 -5 2 -10 -4 -10 -5 0 -13 5 -16 10 -3 6 -2 10 4 10 5 0 13 -4 16
-10z m705 0 c0 -5 -7 -10 -16 -10 -8 0 -12 5 -9 10 3 6 10 10 16 10 5 0 9 -4
9 -10z m-760 -11 c0 -6 7 -8 16 -5 14 5 15 4 5 -8 -7 -8 -8 -16 -4 -18 4 -3 2
-3 -5 -1 -8 1 -20 3 -27 3 -7 0 -15 7 -18 14 -4 11 -1 13 10 9 11 -4 14 -2 9
5 -4 7 -2 12 3 12 6 0 11 -5 11 -11z m75 -9 c-3 -5 -12 -10 -18 -10 -7 0 -6 4
3 10 19 12 23 12 15 0z m735 -45 c8 -16 23 -37 33 -47 9 -10 17 -28 17 -39 0
-18 -2 -19 -15 -9 -8 7 -13 16 -10 20 3 5 -5 17 -17 27 -32 26 -67 69 -48 58
9 -5 8 0 -4 14 l-20 22 25 -9 c13 -5 31 -22 39 -37z m-1190 25 c-20 -13 -33
-13 -25 0 3 6 14 10 23 10 15 0 15 -2 2 -10z m317 4 c-3 -3 -12 -4 -19 -1 -8
3 -5 6 6 6 11 1 17 -2 13 -5z m-227 -8 c0 -2 -18 -26 -40 -52 -60 -73 -56
-126 18 -206 14 -15 23 -31 19 -34 -8 -8 -57 32 -90 75 -24 30 -27 42 -25 101
1 66 2 68 36 86 20 11 39 19 43 19 4 0 11 3 15 8 8 7 24 10 24 3z m353 -8
c-11 -18 -10 -32 2 -41 6 -6 4 -7 -5 -4 -9 3 -24 -1 -35 -9 -10 -8 -24 -14
-29 -14 -6 1 0 7 14 15 14 8 21 15 15 15 -5 0 -3 5 5 10 12 8 12 10 -5 10 -18
0 -17 2 5 14 32 18 43 19 33 4z m-466 -15 c-4 -3 -10 -3 -14 0 -3 4 0 7 7 7 7
0 10 -3 7 -7z m313 -23 c0 -10 -38 -1 -45 10 -2 4 7 5 20 2 14 -2 25 -8 25
-12z m37 -7 c-4 -3 -10 -3 -14 0 -3 4 0 7 7 7 7 0 10 -3 7 -7z m-22 -33 c-3
-5 -13 -6 -21 -3 -12 4 -13 8 -3 14 15 9 32 2 24 -11z m168 -11 c5 -3 2 -9 -7
-12 -12 -5 -16 0 -16 15 0 12 3 17 8 12 4 -5 11 -12 15 -15z m-526 4 c-4 -3
-10 -3 -14 0 -3 4 0 7 7 7 7 0 10 -3 7 -7z m458 -13 c-3 -5 -11 -10 -16 -10
-6 0 -7 5 -4 10 3 6 11 10 16 10 6 0 7 -4 4 -10z m-115 -20 c0 -5 -7 -10 -15
-10 -8 0 -15 5 -15 10 0 6 7 10 15 10 8 0 15 -4 15 -10z m127 -17 c-4 -3 -10
-3 -14 0 -3 4 0 7 7 7 7 0 10 -3 7 -7z m-150 -20 c-4 -3 -7 0 -7 7 0 7 3 10 7
7 3 -4 3 -10 0 -14z m108 7 c3 -5 -1 -10 -9 -10 -8 0 -18 5 -21 10 -3 6 1 10
9 10 8 0 18 -4 21 -10z m-78 -17 c-4 -3 -10 -3 -14 0 -3 4 0 7 7 7 7 0 10 -3
7 -7z"/>
<path d="M1250 3071 c0 -14 18 -23 31 -15 8 4 7 9 -2 15 -18 11 -29 11 -29 0z"/>
<path d="M2025 3090 c3 -5 8 -10 11 -10 3 0 2 5 -1 10 -3 6 -8 10 -11 10 -3 0
-2 -4 1 -10z"/>
<path d="M780 2760 c0 -7 3 -10 7 -7 3 4 3 10 0 14 -4 3 -7 0 -7 -7z"/>
<path d="M803 2753 c4 -3 10 -3 14 0 3 4 0 7 -7 7 -7 0 -10 -3 -7 -7z"/>
<path d="M834 2678 c-4 -7 -3 -8 4 -4 7 4 12 9 12 12 0 8 -9 4 -16 -8z"/>
<path d="M1183 3003 c4 -3 10 -3 14 0 3 4 0 7 -7 7 -7 0 -10 -3 -7 -7z"/>
<path d="M1960 3010 c0 -5 5 -10 11 -10 5 0 7 5 4 10 -3 6 -8 10 -11 10 -2 0
-4 -4 -4 -10z"/>
<path d="M1360 2290 c0 -7 3 -10 7 -7 3 4 3 10 0 14 -4 3 -7 0 -7 -7z"/>
<path d="M1140 1370 c-14 -10 -22 -21 -19 -24 3 -3 16 5 29 19 28 30 24 32
-10 5z"/>
<path d="M1261 3628 c0 -9 -4 -25 -7 -35 -5 -14 -4 -15 5 -7 7 7 11 22 8 35
-2 13 -5 16 -6 7z"/>
<path d="M1763 3633 c4 -3 10 -3 14 0 3 4 0 7 -7 7 -7 0 -10 -3 -7 -7z"/>
<path d="M1828 3633 c6 -2 18 -2 25 0 6 3 1 5 -13 5 -14 0 -19 -2 -12 -5z"/>
<path d="M2058 3603 c6 -2 18 -2 25 0 6 3 1 5 -13 5 -14 0 -19 -2 -12 -5z"/>
<path d="M1380 3570 c0 -7 3 -10 7 -7 3 4 3 10 0 14 -4 3 -7 0 -7 -7z"/>
<path d="M1823 3553 c4 -3 10 -3 14 0 3 4 0 7 -7 7 -7 0 -10 -3 -7 -7z"/>
<path d="M1719 3527 c9 -11 27 -17 55 -16 l41 2 -40 6 c-22 4 -47 11 -55 16
-13 8 -13 7 -1 -8z"/>
<path d="M440 3479 c17 -11 33 -19 36 -19 2 0 0 8 -5 19 -6 11 -21 19 -36 19
l-26 0 31 -19z"/>
<path d="M551 3471 c-16 -16 -26 -20 -34 -12 -7 7 -16 7 -29 0 -12 -6 -25 -6
-38 1 -15 8 -20 8 -20 -1 0 -7 -10 -9 -27 -5 -51 11 -73 13 -68 6 3 -5 -2 -11
-11 -14 -8 -3 -12 -10 -9 -16 3 -6 -1 -7 -9 -4 -9 3 -13 11 -10 18 3 6 -1 3
-9 -6 -12 -15 -17 -16 -32 -4 -10 7 -27 11 -38 8 -16 -4 -12 -9 24 -28 24 -13
38 -23 32 -24 -7 0 -12 -3 -12 -7 6 -36 -38 -39 -92 -6 -19 11 -46 23 -61 27
-23 5 -26 3 -21 -11 5 -12 3 -14 -7 -8 -9 5 -8 0 3 -15 16 -23 25 -27 77 -33
14 -2 24 -8 23 -15 -2 -6 3 -9 11 -6 10 4 12 -2 8 -21 -3 -19 -9 -24 -20 -20
-8 3 -19 1 -22 -6 -5 -7 -24 -3 -61 16 -30 14 -45 19 -34 10 11 -9 19 -20 18
-25 -2 -5 3 -7 11 -4 8 3 17 0 22 -7 4 -8 3 -10 -4 -5 -23 14 -11 -15 18 -46
27 -28 43 -67 22 -54 -4 2 -14 0 -22 -5 -13 -8 -12 -12 4 -24 26 -20 7 -19
-21 0 -12 9 -26 14 -30 13 -4 -2 -10 2 -12 7 -4 12 -44 41 -52 38 -3 -1 -6 4
-6 11 0 8 19 0 49 -21 44 -32 53 -34 49 -10 -1 5 3 6 8 3 22 -14 18 24 -4 38
-28 18 -39 20 -30 6 8 -13 -68 31 -77 45 -4 5 -8 -24 -8 -66 0 -73 1 -76 28
-87 27 -12 27 -12 4 4 -27 20 -30 39 -3 25 10 -6 21 -7 25 -4 3 3 6 -3 6 -13
0 -11 -5 -25 -11 -31 -9 -9 -4 -19 17 -39 l29 -27 -33 17 c-18 9 -30 21 -27
26 4 6 1 10 -4 10 -15 0 -14 -23 1 -38 14 -14 20 -45 7 -36 -5 3 -9 2 -9 -3 1
-13 83 -67 104 -68 24 -2 48 -35 42 -58 -3 -14 0 -16 14 -12 10 3 21 2 24 -3
3 -6 -2 -9 -11 -8 -9 0 -18 -4 -20 -11 -6 -17 56 -47 110 -52 4 -1 5 -13 2
-28 -6 -26 -5 -27 8 -10 9 10 18 18 21 18 18 -2 18 0 0 15 -16 13 -16 15 -1
10 21 -7 22 3 1 32 -17 24 -13 27 17 12 33 -18 23 13 -11 33 -38 23 -58 57
-33 57 15 0 15 1 -2 14 -22 16 -29 46 -10 46 8 0 17 -4 20 -10 3 -5 12 -10 18
-10 7 0 -3 13 -22 29 -22 18 -30 30 -23 35 14 9 35 -2 27 -14 -3 -4 4 -10 15
-13 32 -8 32 9 0 36 -17 14 -26 28 -21 31 5 4 11 1 13 -4 2 -6 10 -12 18 -13
8 -2 22 -7 30 -12 12 -7 13 -6 3 7 -7 8 -9 19 -5 23 4 5 3 6 -3 3 -5 -3 -18 3
-27 13 -14 15 -14 18 -2 23 8 3 22 3 32 0 15 -5 15 -4 2 8 -28 25 -23 40 9 24
15 -8 30 -14 32 -13 3 1 1 -2 -3 -7 -9 -12 53 -77 65 -69 6 4 8 0 4 -10 -3 -8
0 -20 7 -26 22 -18 16 21 -8 48 l-21 24 25 -12 25 -12 -25 21 c-14 11 -36 31
-49 43 -13 12 -28 21 -32 20 -5 -2 -6 4 -2 13 3 8 -2 21 -12 28 -14 10 -15 15
-5 21 8 5 11 4 6 -3 -8 -14 15 -21 36 -11 12 7 34 -1 77 -27 34 -20 68 -34 76
-30 14 5 12 13 -11 53 -14 26 -33 53 -42 60 -10 7 -12 13 -6 13 6 0 17 -7 24
-15 14 -17 40 -20 40 -4 0 6 -9 13 -20 16 -22 6 -27 23 -7 23 16 0 58 -29 75
-52 7 -10 18 -18 24 -18 16 0 -20 37 -59 61 -18 11 -33 25 -33 30 0 16 53 -3
74 -26 12 -12 32 -28 45 -35 l24 -12 -22 31 c-12 17 -19 31 -15 31 4 0 -1 9
-11 20 -18 20 -18 21 1 14 10 -4 31 -18 47 -32 15 -14 27 -22 27 -18 0 4 -12
18 -27 32 -46 42 -38 67 9 27 15 -13 16 -13 11 6 -3 12 -8 21 -12 21 -4 0 -21
12 -39 28 -17 15 -39 33 -49 40 -10 7 -11 10 -3 7 8 -4 6 2 -6 12 -11 10 -23
25 -26 33 -3 10 -10 8 -27 -9z m-165 -31 c8 0 14 -5 14 -11 0 -12 -40 -2 -55
14 -7 7 -4 8 8 3 10 -3 25 -6 33 -6z m196 -48 l43 -19 -40 -7 c-84 -14 -183
-50 -227 -81 -63 -46 -118 -167 -118 -259 0 -53 23 -137 49 -181 24 -41 19
-43 -26 -12 -21 14 -46 46 -65 86 -43 86 -49 164 -18 256 63 190 244 288 402
217z m-431 -19 c13 -16 12 -17 -3 -4 -17 13 -22 21 -14 21 2 0 10 -8 17 -17z
m-36 -3 c3 -6 -1 -7 -9 -4 -18 7 -21 14 -7 14 6 0 13 -4 16 -10z m55 -146 c0
-2 -9 0 -20 6 -11 6 -20 13 -20 16 0 2 9 0 20 -6 11 -6 20 -13 20 -16z m272
19 c-9 -3 -2 -13 19 -29 18 -13 37 -21 43 -17 6 3 8 3 4 -2 -4 -4 -3 -14 3
-22 7 -8 8 -13 1 -13 -5 0 -15 7 -22 15 -7 8 -18 15 -25 15 -15 0 -47 45 -38
54 4 3 11 6 17 5 6 0 5 -3 -2 -6z m59 -10 c13 -16 12 -17 -3 -4 -17 13 -22 21
-14 21 2 0 10 -8 17 -17z m-114 -10 c-4 -3 -10 -3 -14 0 -3 4 0 7 7 7 7 0 10
-3 7 -7z m-342 -13 c3 -5 4 -10 1 -10 -3 0 -8 5 -11 10 -3 6 -4 10 -1 10 3 0
8 -4 11 -10z m372 -7 c-4 -3 -10 -3 -14 0 -3 4 0 7 7 7 7 0 10 -3 7 -7z m-278
-157 c-3 -3 -11 5 -18 17 -13 21 -12 21 5 5 10 -10 16 -20 13 -22z m196 14 c3
-5 4 -10 1 -10 -3 0 -8 5 -11 10 -3 6 -4 10 -1 10 3 0 8 -4 11 -10z m-98 -236
c-3 -3 -12 -4 -19 -1 -8 3 -5 6 6 6 11 1 17 -2 13 -5z"/>
<path d="M2020 3486 c0 -2 7 -9 15 -16 9 -7 15 -8 15 -2 0 5 -7 12 -15 16 -8
3 -15 4 -15 2z"/>
<path d="M35 3420 c3 -5 8 -10 11 -10 3 0 2 5 -1 10 -3 6 -8 10 -11 10 -3 0
-2 -4 1 -10z"/>
<path d="M1978 3413 c7 -3 16 -2 19 1 4 3 -2 6 -13 5 -11 0 -14 -3 -6 -6z"/>
<path d="M2038 3373 c7 -3 16 -2 19 1 4 3 -2 6 -13 5 -11 0 -14 -3 -6 -6z"/>
<path d="M1808 3333 c7 -3 16 -2 19 1 4 3 -2 6 -13 5 -11 0 -14 -3 -6 -6z"/>
<path d="M130 3326 c0 -2 8 -10 18 -17 15 -13 16 -12 3 4 -13 16 -21 21 -21
13z"/>
<path d="M1753 3273 c4 -3 10 -3 14 0 3 4 0 7 -7 7 -7 0 -10 -3 -7 -7z"/>
<path d="M695 3260 c3 -5 8 -10 11 -10 3 0 2 5 -1 10 -3 6 -8 10 -11 10 -3 0
-2 -4 1 -10z"/>
<path d="M65 3230 c3 -5 8 -10 11 -10 3 0 2 5 -1 10 -3 6 -8 10 -11 10 -3 0
-2 -4 1 -10z"/>
<path d="M585 3220 c3 -5 8 -10 11 -10 3 0 2 5 -1 10 -3 6 -8 10 -11 10 -3 0
-2 -4 1 -10z"/>
<path d="M1710 3220 l-25 -8 27 -1 c15 -1 30 4 33 9 7 11 0 11 -35 0z"/>
<path d="M1980 3226 c0 -2 7 -7 16 -10 8 -3 12 -2 9 4 -6 10 -25 14 -25 6z"/>
<path d="M1826 3205 c-9 -26 -7 -32 5 -12 6 10 9 21 6 23 -2 3 -7 -2 -11 -11z"/>
<path d="M1630 3201 c0 -6 10 -15 21 -22 18 -9 19 -13 8 -21 -12 -8 -12 -9 0
-6 24 7 22 22 -4 41 -14 10 -25 13 -25 8z"/>
<path d="M1812 3145 c0 -16 2 -22 5 -12 2 9 2 23 0 30 -3 6 -5 -1 -5 -18z"/>
<path d="M2510 3160 c8 -5 20 -10 25 -10 6 0 3 5 -5 10 -8 5 -19 10 -25 10 -5
0 -3 -5 5 -10z"/>
<path d="M1630 3090 c-9 -6 -10 -10 -3 -10 6 0 15 5 18 10 8 12 4 12 -15 0z"/>
<path d="M0 3068 c0 -19 2 -20 10 -8 13 19 13 30 0 30 -5 0 -10 -10 -10 -22z"/>
<path d="M377 3078 c7 -8 11 -17 8 -20 -3 -2 14 -19 38 -37 l42 -32 -38 34
c-21 19 -33 37 -27 39 5 1 0 9 -12 17 -20 13 -22 12 -11 -1z"/>
<path d="M1858 3053 c7 -3 16 -2 19 1 4 3 -2 6 -13 5 -11 0 -14 -3 -6 -6z"/>
<path d="M1903 3053 c4 -3 10 -3 14 0 3 4 0 7 -7 7 -7 0 -10 -3 -7 -7z"/>
<path d="M1845 3030 c3 -5 8 -10 11 -10 3 0 2 5 -1 10 -3 6 -8 10 -11 10 -3 0
-2 -4 1 -10z"/>
<path d="M415 2990 c3 -5 8 -10 11 -10 3 0 2 5 -1 10 -3 6 -8 10 -11 10 -3 0
-2 -4 1 -10z"/>
<path d="M1910 2960 c0 -5 5 -10 11 -10 5 0 7 5 4 10 -3 6 -8 10 -11 10 -2 0
-4 -4 -4 -10z"/>
<path d="M1831 2934 c0 -11 3 -14 6 -6 3 7 2 16 -1 19 -3 4 -6 -2 -5 -13z"/>
<path d="M320 2911 c0 -10 39 -36 45 -29 2 2 -8 11 -21 21 -13 10 -24 13 -24
8z"/>
<path d="M135 2891 c-6 -11 13 -26 22 -17 4 3 0 6 -8 6 -11 0 -11 2 1 10 9 6
10 10 3 10 -6 0 -14 -4 -18 -9z"/>
<path d="M2763 2893 c4 -3 10 -3 14 0 3 4 0 7 -7 7 -7 0 -10 -3 -7 -7z"/>
<path d="M1860 2880 c0 -7 3 -10 7 -7 3 4 3 10 0 14 -4 3 -7 0 -7 -7z"/>
<path d="M100 2761 c0 -9 30 -24 36 -18 2 1 -6 8 -16 15 -11 7 -20 8 -20 3z"/>
<path d="M353 2763 c4 -3 10 -3 14 0 3 4 0 7 -7 7 -7 0 -10 -3 -7 -7z"/>
<path d="M265 2750 c3 -5 8 -10 11 -10 2 0 4 5 4 10 0 6 -5 10 -11 10 -5 0 -7
-4 -4 -10z"/>
<path d="M340 2747 c0 -4 9 -24 21 -45 14 -24 19 -29 16 -14 -4 17 -2 22 8 19
9 -4 11 1 8 14 -3 10 -10 19 -15 19 -5 0 -6 -4 -3 -10 3 -5 2 -10 -4 -10 -5 0
-15 8 -20 18 -6 9 -11 14 -11 9z"/>
<path d="M152 2736 c3 -4 23 -12 43 -16 22 -5 34 -5 28 1 -10 10 -81 25 -71
15z"/>
<path d="M320 2726 c0 -8 4 -17 9 -20 5 -4 7 3 4 14 -6 23 -13 26 -13 6z"/>
<path d="M2570 2701 c19 -16 38 -27 42 -25 3 2 23 -5 43 -17 20 -12 38 -19 41
-16 4 3 -32 24 -77 47 -80 39 -82 39 -49 11z"/>
<path d="M149 2697 c15 -19 41 -23 41 -7 0 6 -4 10 -9 10 -5 0 -18 3 -28 7
-16 6 -16 5 -4 -10z"/>
<path d="M304 2684 c3 -9 -5 -29 -19 -48 -18 -24 -25 -45 -25 -80 0 -29 -4
-45 -10 -41 -6 4 -9 -12 -9 -42 1 -26 4 -37 6 -24 3 17 7 20 13 12 11 -18 54
5 46 25 -3 8 -2 14 2 14 9 0 3 68 -7 74 -3 2 -6 -10 -6 -26 0 -17 -6 -33 -12
-35 -9 -3 -13 10 -13 49 0 38 3 49 10 38 8 -12 10 -9 10 13 0 17 4 26 10 22 6
-4 9 -1 8 6 -2 7 5 15 15 17 13 3 17 -3 17 -27 0 -17 3 -31 8 -31 4 0 5 21 3
46 -2 26 -7 41 -11 34 -5 -8 -9 -7 -13 4 -4 9 -11 16 -18 16 -6 0 -8 -7 -5
-16z m-26 -219 c-3 -3 -9 2 -12 12 -6 14 -5 15 5 6 7 -7 10 -15 7 -18z"/>
<path d="M200 2686 c0 -9 32 -36 42 -36 6 0 1 9 -12 20 -23 20 -30 24 -30 16z"/>
<path d="M275 2670 c3 -5 8 -10 11 -10 3 0 2 5 -1 10 -3 6 -8 10 -11 10 -3 0
-2 -4 1 -10z"/>
<path d="M2570 2617 c0 -6 168 -107 178 -107 4 0 -13 13 -38 28 -79 50 -140
84 -140 79z"/>
<path d="M232 2560 c0 -19 2 -27 5 -17 2 9 2 25 0 35 -3 9 -5 1 -5 -18z"/>
<path d="M351 2574 c0 -11 3 -14 6 -6 3 7 2 16 -1 19 -3 4 -6 -2 -5 -13z"/>
<path d="M330 2570 c0 -7 3 -10 7 -7 3 4 3 10 0 14 -4 3 -7 0 -7 -7z"/>
<path d="M344 2534 c3 -9 6 -28 7 -42 l1 -27 8 28 c9 31 4 57 -12 57 -6 0 -7
-7 -4 -16z"/>
<path d="M2825 2470 c10 -11 20 -18 23 -15 7 6 -18 35 -31 35 -5 0 -2 -9 8
-20z"/>
<path d="M1023 2473 c4 -3 10 -3 14 0 3 4 0 7 -7 7 -7 0 -10 -3 -7 -7z"/>
<path d="M333 2393 c4 -3 10 -3 14 0 3 4 0 7 -7 7 -7 0 -10 -3 -7 -7z"/>
<path d="M1805 2390 c3 -5 11 -10 16 -10 6 0 7 5 4 10 -3 6 -11 10 -16 10 -6
0 -7 -4 -4 -10z"/>
<path d="M418 2293 c6 -2 9 -9 6 -15 -4 -6 -1 -9 6 -6 24 8 23 28 -2 27 -12 0
-17 -3 -10 -6z"/>
<path d="M370 2265 c0 -8 9 -15 20 -15 12 0 20 7 20 18 0 14 -2 15 -10 2 -6
-10 -10 -11 -10 -2 0 6 -4 12 -10 12 -5 0 -10 -7 -10 -15z"/>
<path d="M1150 2270 c0 -7 3 -10 7 -7 3 4 3 10 0 14 -4 3 -7 0 -7 -7z"/>
<path d="M410 2226 c0 -21 21 -31 30 -15 5 7 6 17 4 21 -9 14 -34 9 -34 -6z
m17 -13 c-4 -3 -7 0 -7 7 0 7 3 10 7 7 3 -4 3 -10 0 -14z"/>
<path d="M447 2183 c-11 -10 -8 -33 3 -33 6 0 10 6 10 14 0 8 6 17 13 19 8 4
6 6 -4 6 -9 1 -19 -2 -22 -6z"/>
<path d="M482 2128 c-18 -18 -15 -28 8 -28 21 0 25 7 12 27 -6 10 -11 10 -20
1z"/>
<path d="M676 2125 c-11 -8 -15 -15 -9 -15 6 0 16 7 23 15 16 19 11 19 -14 0z"/>
<path d="M1217 2106 c-10 -25 -8 -34 3 -16 7 11 10 7 10 -17 0 -17 4 -34 9
-38 18 -11 19 11 2 50 -14 32 -18 36 -24 21z"/>
<path d="M1607 2114 c-14 -15 -6 -34 14 -34 14 0 19 5 17 17 -3 18 -20 27 -31
17z"/>
<path d="M644 2088 c-4 -7 -3 -8 4 -4 12 7 16 16 8 16 -3 0 -8 -5 -12 -12z"/>
<path d="M980 2085 c0 -18 24 -30 39 -21 16 10 1 36 -20 36 -10 0 -19 -7 -19
-15z"/>
<path d="M522 2078 c-8 -8 -8 -15 -1 -24 9 -11 14 -11 26 1 8 8 11 19 8 25 -8
13 -18 13 -33 -2z"/>
<path d="M1304 2068 c-4 -7 -3 -8 4 -4 12 7 16 16 8 16 -3 0 -8 -5 -12 -12z"/>
<path d="M1127 2053 c-4 -3 -7 -11 -7 -17 0 -6 5 -5 12 2 6 6 9 14 7 17 -3 3
-9 2 -12 -2z"/>
<path d="M1271 2044 c0 -11 3 -14 6 -6 3 7 2 16 -1 19 -3 4 -6 -2 -5 -13z"/>
<path d="M1826 2037 c3 -10 9 -15 12 -12 3 3 0 11 -7 18 -10 9 -11 8 -5 -6z"/>
<path d="M1306 2025 c-3 -8 -1 -15 4 -15 6 0 10 7 10 15 0 8 -2 15 -4 15 -2 0
-6 -7 -10 -15z"/>
<path d="M1350 2020 c0 -7 3 -10 7 -7 3 4 3 10 0 14 -4 3 -7 0 -7 -7z"/>
<path d="M1048 2013 c7 -3 16 -2 19 1 4 3 -2 6 -13 5 -11 0 -14 -3 -6 -6z"/>
<path d="M520 1996 c0 -2 8 -10 18 -17 15 -13 16 -12 3 4 -13 16 -21 21 -21
13z"/>
<path d="M1290 1980 c0 -11 2 -20 4 -20 2 0 6 9 9 20 3 11 1 20 -4 20 -5 0 -9
-9 -9 -20z"/>
<path d="M1195 1940 c3 -5 8 -10 11 -10 3 0 2 5 -1 10 -3 6 -8 10 -11 10 -3 0
-2 -4 1 -10z"/>
<path d="M1930 1899 c0 -16 4 -28 9 -25 5 3 7 15 4 26 -4 14 0 20 11 20 9 0
16 -5 16 -11 0 -5 5 -7 10 -4 16 10 1 25 -26 25 -20 0 -24 -5 -24 -31z"/>
<path d="M2520 1920 c0 -7 3 -10 7 -7 3 4 3 10 0 14 -4 3 -7 0 -7 -7z"/>
<path d="M1151 1864 c0 -11 3 -14 6 -6 3 7 2 16 -1 19 -3 4 -6 -2 -5 -13z"/>
<path d="M1957 1873 c-13 -12 -7 -23 13 -23 11 0 20 7 20 15 0 15 -21 21 -33
8z"/>
<path d="M1984 1828 c3 -7 9 -21 12 -30 8 -22 30 -23 38 -3 4 10 -1 15 -16 15
-17 0 -18 2 -8 15 10 13 9 15 -10 15 -14 0 -20 -5 -16 -12z"/>
<path d="M1450 1820 c0 -7 3 -10 7 -7 3 4 3 10 0 14 -4 3 -7 0 -7 -7z"/>
<path d="M1220 1800 c0 -7 3 -10 7 -7 3 4 3 10 0 14 -4 3 -7 0 -7 -7z"/>
<path d="M2532 1785 c0 -16 2 -22 5 -12 2 9 2 23 0 30 -3 6 -5 -1 -5 -18z"/>
<path d="M1405 1770 c-3 -6 1 -7 9 -4 18 7 21 14 7 14 -6 0 -13 -4 -16 -10z"/>
<path d="M2034 1769 c-3 -6 -2 -15 4 -21 6 -6 12 -6 17 3 6 8 4 10 -5 4 -10
-6 -12 -4 -7 8 7 19 2 23 -9 6z"/>
<path d="M620 1730 c0 -7 3 -10 7 -7 3 4 3 10 0 14 -4 3 -7 0 -7 -7z"/>
<path d="M1383 1733 c4 -3 10 -3 14 0 3 4 0 7 -7 7 -7 0 -10 -3 -7 -7z"/>
<path d="M2060 1730 c-12 -7 -12 -11 -2 -20 6 -5 10 -7 7 -4 -3 4 0 13 6 21
13 15 10 16 -11 3z"/>
<path d="M605 1700 c-3 -5 -1 -10 4 -10 6 0 11 5 11 10 0 6 -2 10 -4 10 -3 0
-8 -4 -11 -10z"/>
<path d="M2530 1680 c0 -39 14 -39 17 0 1 17 -2 30 -7 30 -6 0 -10 -13 -10
-30z"/>
<path d="M2082 1693 c-10 -4 -10 -8 -1 -19 9 -11 15 -11 25 -3 23 19 6 34 -24
22z"/>
<path d="M2040 1641 c0 -10 19 -25 25 -20 1 2 -3 10 -11 17 -8 7 -14 8 -14 3z"/>
<path d="M2550 1630 c0 -7 3 -10 7 -7 3 4 3 10 0 14 -4 3 -7 0 -7 -7z"/>
<path d="M506 1622 c-3 -5 1 -9 9 -9 8 0 15 4 15 9 0 4 -4 8 -9 8 -6 0 -12 -4
-15 -8z"/>
<path d="M1580 1576 c0 -2 7 -7 16 -10 8 -3 12 -2 9 4 -6 10 -25 14 -25 6z"/>
<path d="M514 1548 c-4 -7 -3 -8 4 -4 12 7 16 16 8 16 -3 0 -8 -5 -12 -12z"/>
<path d="M484 1538 c-4 -7 -3 -8 4 -4 12 7 16 16 8 16 -3 0 -8 -5 -12 -12z"/>
<path d="M977 1526 c-10 -8 -14 -16 -10 -19 5 -3 14 3 21 14 14 22 13 23 -11
5z"/>
<path d="M431 1518 c-1 -20 14 -24 25 -6 4 6 3 8 -4 4 -5 -3 -13 0 -15 6 -3 8
-6 6 -6 -4z"/>
<path d="M1274 1468 c-4 -7 -3 -8 4 -4 12 7 16 16 8 16 -3 0 -8 -5 -12 -12z"/>
<path d="M1665 1470 c3 -5 8 -10 11 -10 3 0 2 5 -1 10 -3 6 -8 10 -11 10 -3 0
-2 -4 1 -10z"/>
<path d="M2200 1470 c0 -7 3 -10 7 -7 3 4 3 10 0 14 -4 3 -7 0 -7 -7z"/>
<path d="M2142 1440 c0 -19 2 -27 5 -17 2 9 2 25 0 35 -3 9 -5 1 -5 -18z"/>
<path d="M413 1443 c-3 -10 -8 -22 -10 -28 -3 -5 3 -1 11 9 16 20 21 36 11 36
-3 0 -8 -8 -12 -17z"/>
<path d="M2581 1444 c0 -11 3 -14 6 -6 3 7 2 16 -1 19 -3 4 -6 -2 -5 -13z"/>
<path d="M924 1438 c-4 -7 -3 -8 4 -4 7 4 12 9 12 12 0 8 -9 4 -16 -8z"/>
<path d="M812 1413 c-6 -2 -10 -9 -6 -14 3 -5 0 -9 -6 -9 -6 0 -9 -4 -5 -9 3
-5 -3 -12 -12 -14 -15 -4 -15 -5 2 -6 14 -1 24 8 32 29 6 17 11 30 10 29 -1 0
-8 -3 -15 -6z"/>
<path d="M2128 1373 c6 -2 18 -2 25 0 6 3 1 5 -13 5 -14 0 -19 -2 -12 -5z"/>
<path d="M714 1344 c-19 -15 -19 -15 1 -6 11 5 27 12 35 15 13 5 13 6 -1 6 -8
1 -24 -6 -35 -15z"/>
<path d="M1780 1308 c0 -4 16 -8 35 -8 19 0 49 -9 67 -19 17 -11 34 -19 37
-17 3 2 14 -5 24 -16 16 -17 16 -18 -1 -18 -10 0 -23 5 -30 12 -9 9 -12 9 -12
0 0 -9 -5 -10 -17 -4 -18 9 -41 9 -68 -2 -11 -4 -6 -13 16 -36 17 -16 35 -27
41 -24 7 4 8 2 4 -4 -4 -7 -1 -12 8 -12 9 0 13 -6 10 -14 -3 -7 2 -16 10 -19
11 -4 13 -1 9 11 -3 9 -3 14 1 10 4 -3 8 -12 9 -20 4 -23 48 -88 60 -88 7 0 6
-4 -3 -10 -13 -8 -13 -10 2 -10 23 0 34 -20 17 -31 -11 -7 -11 -9 -1 -9 8 0
12 -12 10 -35 -2 -30 -7 -38 -40 -52 -38 -17 -55 -38 -38 -48 6 -4 5 -15 -3
-28 -19 -34 -30 -42 -61 -44 -21 -1 -25 1 -15 8 9 7 -3 8 -36 4 -35 -4 -44 -2
-30 4 17 8 15 10 -12 10 -18 1 -33 6 -33 11 0 6 -4 10 -9 10 -5 0 -22 5 -38
12 -15 6 -32 10 -36 10 -4 -1 -23 -4 -42 -7 -18 -2 -52 -13 -75 -24 -72 -35
-37 0 45 45 98 54 136 62 181 41 28 -14 40 -15 70 -4 69 23 68 77 -1 77 -47 0
-175 -35 -269 -73 -76 -31 -85 -33 -110 -20 -23 12 -26 20 -26 62 0 33 7 58
23 81 25 38 147 109 187 110 30 1 48 14 79 58 30 43 16 64 -25 37 -17 -11 -24
-12 -18 -4 4 8 -9 1 -31 -15 -21 -16 -35 -25 -32 -19 4 6 -12 1 -35 -13 -24
-13 -54 -29 -68 -34 -14 -6 -34 -19 -45 -29 -35 -31 -145 -65 -207 -64 -14 0
-61 16 -103 37 -43 20 -79 36 -81 36 -15 0 2 -27 33 -56 24 -22 31 -34 21 -34
-15 0 -63 50 -123 129 -29 39 -85 71 -85 50 0 -6 -5 -7 -12 -3 -7 4 -8 3 -4
-5 4 -6 12 -8 18 -5 6 4 8 2 4 -4 -3 -6 5 -23 19 -38 13 -14 23 -30 20 -33 -5
-9 31 -41 45 -41 6 0 10 -4 10 -9 0 -5 10 -13 21 -16 16 -6 18 -9 8 -15 -9 -6
-5 -11 14 -15 17 -5 27 -14 27 -25 0 -11 5 -22 12 -26 8 -5 9 -2 4 12 -6 15
-2 14 21 -6 15 -14 33 -28 38 -33 6 -5 -2 -4 -16 2 -29 11 -69 4 -69 -11 0 -5
14 -23 30 -40 17 -17 29 -32 27 -35 -7 -6 -105 77 -186 158 -74 74 -160 133
-230 157 -40 14 -53 9 -19 -8 27 -14 118 -107 118 -121 0 -6 5 -7 10 -4 6 3
10 -1 10 -9 0 -8 6 -13 13 -11 16 6 60 -32 52 -45 -3 -6 0 -7 10 -4 11 5 17
-2 21 -25 4 -21 11 -30 20 -27 7 3 16 -4 20 -16 3 -12 16 -31 27 -42 11 -12
17 -14 13 -6 -4 8 1 5 12 -7 11 -13 25 -23 31 -23 6 0 11 -6 11 -12 0 -10 2
-10 8 0 7 10 12 8 25 -6 11 -12 29 -18 57 -17 47 1 50 -6 13 -33 -19 -14 -27
-28 -25 -46 2 -34 -8 -39 -93 -37 -53 1 -77 -3 -88 -13 -13 -13 -17 -12 -37 9
-13 14 -26 23 -28 20 -3 -3 -13 2 -23 11 -9 8 -26 16 -37 17 -11 0 -19 4 -16
8 2 4 0 18 -5 31 -6 12 -10 17 -10 9 -1 -9 -11 -4 -27 14 -14 15 -28 25 -31
22 -3 -3 -17 8 -31 24 -17 21 -27 27 -32 18 -6 -8 -12 -4 -21 12 -12 23 -50
57 -58 51 -2 -2 -12 10 -22 27 -10 17 -21 31 -24 31 -4 0 -3 -4 0 -10 3 -5 3
-10 0 -10 -3 0 -12 15 -20 33 -25 56 -18 -3 11 -95 32 -101 81 -198 134 -261
47 -58 53 -85 46 -203 -3 -49 -5 -107 -5 -129 -1 -35 -6 -43 -33 -60 -46 -27
-119 -96 -112 -106 3 -5 14 -9 25 -9 10 0 19 -4 19 -10 0 -15 -27 -12 -42 4
-11 12 -16 11 -37 -7 l-24 -22 11 21 c7 12 25 34 41 50 16 15 27 33 24 41 -3
7 0 13 6 13 6 0 8 7 5 15 -4 10 0 15 15 15 12 0 24 7 27 15 4 8 17 15 30 15
16 0 22 4 18 14 -3 8 -1 17 5 20 20 12 -1 36 -33 37 -30 1 -30 1 -6 9 l25 7
-25 11 c-23 10 -23 11 -4 11 19 1 31 31 12 31 -13 0 -9 30 5 31 6 0 -4 6 -23
11 l-35 11 33 7 c44 10 52 20 16 21 -29 1 -29 1 -4 8 l25 7 -22 8 c-14 4 -23
16 -23 27 0 21 -3 22 -75 21 l-50 0 42 6 c67 11 40 32 -46 37 -47 4 -70 2 -66
-5 3 -5 1 -10 -4 -10 -6 0 -11 -4 -11 -10 0 -5 17 -11 38 -12 36 -1 36 -1 5
-5 -18 -2 -33 -8 -33 -14 0 -5 -14 -9 -31 -9 -17 0 -42 -9 -56 -20 -25 -19
-26 -19 -52 -1 -15 11 -38 23 -52 26 -13 3 -32 17 -42 31 l-18 24 73 1 c40 1
87 1 103 1 30 -1 29 -1 -5 9 -37 10 -193 2 -239 -11 -24 -8 -24 -8 10 -9 30
-1 42 -8 63 -36 15 -19 39 -38 54 -41 15 -4 36 -13 47 -20 19 -14 19 -14 -3
-14 l-22 0 23 -22 22 -23 -50 -5 c-49 -6 -50 -6 -22 -18 16 -7 35 -12 43 -12
13 0 12 -3 -2 -17 -17 -17 -16 -18 17 -23 19 -3 33 -11 32 -17 -2 -7 7 -15 19
-19 12 -4 28 -12 35 -20 11 -10 8 -13 -17 -12 -24 1 -35 8 -46 30 -17 32 -20
33 -40 13 -14 -13 -13 -16 3 -22 10 -3 22 -13 27 -21 4 -7 23 -20 42 -28 40
-17 43 -30 9 -36 -17 -4 -29 0 -35 11 -4 9 -11 13 -15 9 -9 -9 17 -48 32 -48
6 0 15 5 18 10 11 17 25 11 25 -11 0 -13 -8 -23 -21 -26 -21 -6 -21 -6 2 -19
13 -7 18 -13 10 -14 -7 0 -11 -6 -7 -15 4 -11 -2 -15 -22 -16 -21 -1 -22 -2
-7 -6 11 -3 35 -12 53 -21 l34 -15 -39 -18 c-21 -10 -44 -18 -51 -19 -10 0
-10 -3 2 -15 12 -13 48 -15 215 -13 144 2 204 7 213 16 9 9 8 12 -8 13 -10 1
-25 1 -31 0 -7 -1 -13 3 -13 9 0 5 19 10 43 11 l42 1 -35 14 -35 14 38 -3 c43
-3 46 0 15 13 -22 8 -21 9 7 10 22 1 25 3 12 8 -16 7 -16 8 2 21 17 13 18 16
5 25 -12 9 -12 13 5 23 15 10 18 9 17 -5 -1 -21 24 -22 34 -2 48 104 43 100
117 78 46 -13 63 -7 44 15 -13 17 -5 25 48 51 24 11 59 16 115 15 l81 -1 -50
-13 -50 -13 50 -1 c28 -1 61 -4 75 -8 24 -7 23 -8 -10 -14 l-35 -6 33 -2 c43
-1 41 -21 -2 -21 -19 0 -38 -4 -41 -10 -4 -6 12 -10 39 -10 25 0 46 -4 46 -10
0 -5 -11 -10 -25 -10 -14 0 -25 -5 -25 -11 0 -7 11 -9 31 -5 22 4 29 2 27 -7
-3 -6 -20 -15 -39 -18 -25 -5 -17 -7 33 -8 71 -1 107 -20 41 -22 -21 0 -56 -6
-78 -14 l-40 -13 41 1 c22 0 49 -5 60 -11 17 -10 16 -11 -11 -12 -16 -1 -39
-5 -50 -10 -15 -6 -6 -9 35 -11 30 -1 44 -4 30 -6 -49 -8 -56 -16 -20 -23 32
-7 30 -8 -20 -9 -51 -2 -53 -3 -36 -16 17 -13 123 -15 748 -15 479 0 728 3
728 10 0 6 -9 10 -19 10 -19 0 -35 23 -24 34 4 3 22 6 41 6 57 0 29 12 -31 13
-57 2 -93 17 -41 17 23 0 26 2 14 11 -11 7 -4 8 25 3 28 -4 37 -3 30 4 -17 18
-91 20 -80 2 4 -6 -9 -10 -32 -9 -29 0 -34 2 -18 8 11 5 22 8 25 6 3 -1 13 6
23 17 16 17 16 18 -2 18 -21 0 -38 29 -18 31 7 1 1 5 -13 9 -24 8 -23 8 8 9
17 1 32 6 32 11 0 6 -5 10 -11 10 -5 0 -8 4 -5 9 4 5 0 12 -6 14 -7 3 2 6 20
6 18 1 43 6 54 12 20 11 20 12 -8 30 -16 10 -36 19 -44 19 -13 0 -13 -1 0 -10
13 -9 13 -10 0 -11 -10 0 -8 -3 5 -9 19 -8 19 -9 -2 -9 -12 -1 -28 -10 -37
-22 -13 -19 -18 -20 -50 -9 -41 13 -46 27 -13 33 21 3 21 4 2 12 -11 5 -23 13
-26 18 -4 5 -40 14 -82 20 -86 12 -278 -2 -285 -22 -2 -6 -18 -11 -35 -12 -30
0 -31 -1 -9 -10 13 -5 28 -7 32 -4 5 3 12 0 16 -6 5 -9 -13 -11 -72 -8 -43 3
-97 2 -119 -2 l-40 -6 40 -3 c39 -2 39 -3 10 -10 -23 -6 -25 -8 -8 -9 21 -1
40 -17 31 -27 -3 -2 -31 7 -64 19 l-59 23 0 75 c1 41 6 135 13 210 11 117 16
144 42 195 16 32 39 70 50 84 68 86 61 362 -12 437 -18 18 -46 37 -64 43 -44
15 -174 28 -174 18z m-423 -475 c-4 -3 -10 -3 -14 0 -3 4 0 7 7 7 7 0 10 -3 7
-7z m127 -41 c3 -5 -1 -9 -9 -9 -8 0 -12 4 -9 9 3 4 7 8 9 8 2 0 6 -4 9 -8z
m-177 -19 c-4 -3 -7 0 -7 7 0 7 3 10 7 7 3 -4 3 -10 0 -14z m93 -51 c-19 -9
-38 -21 -42 -27 -9 -13 -22 1 -13 15 9 14 44 29 70 29 14 0 10 -5 -15 -17z
m360 -9 c81 -6 83 -7 55 -19 -45 -19 0 -18 55 1 23 8 49 15 58 15 13 0 13 -3
-2 -19 -11 -12 -37 -21 -74 -25 -131 -16 -148 -19 -174 -32 -16 -8 -28 -19
-28 -24 0 -6 -24 -10 -52 -9 -35 0 -46 3 -34 8 11 4 20 15 22 24 2 14 -4 16
-34 12 -35 -5 -36 -5 -18 10 23 17 9 20 -30 5 -25 -10 -26 -9 -13 6 13 16 10
17 -36 12 -27 -4 -51 -11 -53 -17 -2 -6 -9 -11 -17 -11 -7 0 -18 -7 -25 -15
-14 -17 -29 -19 -50 -5 -26 16 4 33 108 62 103 28 186 33 342 21z m-540 -37
c0 -3 -5 -8 -12 -12 -7 -4 -8 -3 -4 4 7 12 16 16 16 8z m-200 -46 c0 -5 -7 -7
-15 -4 -8 4 -15 8 -15 10 0 2 7 4 15 4 8 0 15 -4 15 -10z m165 1 c-11 -10 -40
-15 -70 -11 -11 2 0 6 25 10 25 4 47 8 50 8 2 1 0 -2 -5 -7z m-118 -8 c-4 -3
-10 -3 -14 0 -3 4 0 7 7 7 7 0 10 -3 7 -7z m548 -67 c0 -19 -5 -39 -9 -43 -5
-5 -6 -2 -1 6 6 11 4 13 -10 7 -15 -5 -16 -4 -5 9 11 13 10 14 -6 8 -17 -6
-18 -5 -4 12 12 15 5 13 -34 -8 -48 -27 -76 -34 -76 -19 0 4 -16 7 -35 7 -19
0 -35 5 -36 10 -1 17 93 44 157 45 l60 0 -1 -34z m282 17 c-4 -3 -10 -3 -14 0
-3 4 0 7 7 7 7 0 10 -3 7 -7z m-207 -16 c0 -5 5 -5 12 -1 7 4 8 3 4 -4 -4 -6
-14 -8 -23 -5 -9 4 -14 2 -10 -3 3 -5 -6 -11 -21 -12 -25 -2 -25 -2 -6 14 17
14 17 15 1 10 -10 -3 -16 -2 -13 3 7 11 56 9 56 -2z m237 -24 c-4 -3 -7 0 -7
7 0 7 3 10 7 7 3 -4 3 -10 0 -14z m-34 -30 c-7 -2 -19 -2 -25 0 -7 3 -2 5 12
5 14 0 19 -2 13 -5z m7 -23 c0 -6 -30 -10 -72 -9 -48 1 -63 4 -43 8 53 11 115
12 115 1z m-1025 -50 c-2 -3 -30 -3 -64 -2 -56 3 -61 6 -61 26 l0 23 64 -21
c35 -12 63 -23 61 -26z m412 33 c-4 -3 -10 -3 -14 0 -3 4 0 7 7 7 7 0 10 -3 7
-7z m-80 -9 c-3 -3 -12 -4 -19 -1 -8 3 -5 6 6 6 11 1 17 -2 13 -5z m698 -4
c-3 -5 -37 -10 -75 -10 -38 0 -72 5 -75 10 -4 6 23 10 75 10 52 0 79 -4 75
-10z m5 -30 c0 -5 -20 -10 -44 -10 -25 0 -48 5 -51 10 -4 6 13 10 44 10 28 0
51 -4 51 -10z m-1095 -20 c-3 -5 -12 -10 -18 -10 -7 0 -6 4 3 10 19 12 23 12
15 0z m1095 -10 c0 -5 -8 -10 -17 -11 -15 0 -15 -2 2 -9 16 -7 12 -9 -20 -11
l-40 -2 40 -5 c32 -3 36 -6 20 -12 -17 -7 -17 -9 -2 -9 12 -1 17 -9 17 -31 0
-26 -4 -30 -26 -30 -14 0 -23 4 -19 10 3 6 2 10 -4 10 -5 0 -15 16 -21 36 -10
30 -10 38 1 45 10 6 11 9 2 9 -7 0 -13 5 -13 10 0 6 18 10 40 10 22 0 40 -4
40 -10z m-1125 -20 c-3 -5 -13 -10 -21 -10 -8 0 -14 5 -14 10 0 6 9 10 21 10
11 0 17 -4 14 -10z m670 -20 c16 -7 13 -9 -15 -8 -19 0 -48 4 -65 8 -27 7 -26
8 15 8 25 0 54 -3 65 -8z m-563 -42 c-9 -9 -15 -9 -24 0 -9 9 -7 12 12 12 19
0 21 -3 12 -12z m1488 -3 c0 -13 -4 -14 -20 -5 -11 6 -20 13 -20 15 0 3 9 5
20 5 11 0 20 -7 20 -15z m-656 -10 c-4 -8 -10 -12 -15 -9 -11 6 -2 24 11 24 5
0 7 -7 4 -15z m-13 -32 c13 -16 12 -17 -3 -4 -17 13 -22 21 -14 21 2 0 10 -8
17 -17z m196 -10 c-4 -3 -10 -3 -14 0 -3 4 0 7 7 7 7 0 10 -3 7 -7z m-102 -13
c3 -5 1 -10 -4 -10 -6 0 -11 5 -11 10 0 6 2 10 4 10 3 0 8 -4 11 -10z m393 3
c-10 -2 -26 -2 -35 0 -10 3 -2 5 17 5 19 0 27 -2 18 -5z m-1464 -34 c-2 -4
-18 -10 -34 -14 -17 -4 -30 -13 -30 -21 0 -8 -10 -15 -22 -15 -17 -1 -19 -2
-5 -6 28 -7 19 -23 -13 -23 -16 0 -30 5 -30 10 0 6 4 10 8 10 4 0 26 16 47 36
50 46 68 55 77 41 4 -6 5 -14 2 -18z m-307 14 c-4 -3 -10 -3 -14 0 -3 4 0 7 7
7 7 0 10 -3 7 -7z m1314 -35 c-9 -9 -12 -9 -7 -1 3 6 2 14 -4 18 -5 3 -10 11
-10 18 0 6 7 4 17 -6 14 -14 15 -19 4 -29z m862 25 c-7 -2 -19 -2 -25 0 -7 3
-2 5 12 5 14 0 19 -2 13 -5z m-803 -35 c0 -5 -7 -3 -15 6 -8 8 -15 18 -15 22
0 3 7 1 15 -6 8 -7 15 -17 15 -22z m753 -15 c-7 -2 -19 -2 -25 0 -7 3 -2 5 12
5 14 0 19 -2 13 -5z m-796 -30 c-4 -3 -7 0 -7 7 0 7 3 10 7 7 3 -4 3 -10 0
-14z m871 10 c-15 -2 -42 -2 -60 0 -18 2 -6 4 27 4 33 0 48 -2 33 -4z m-42
-45 c5 -8 0 -9 -14 -6 -12 4 -20 2 -16 -3 7 -12 -35 -10 -61 2 -16 7 -13 8 13
4 20 -3 31 -1 27 5 -3 6 5 10 19 10 14 0 28 -5 32 -12z m-2002 -4 c23 -9 9
-24 -21 -24 -21 0 -24 2 -13 15 14 17 13 17 34 9z m873 -1 c-4 -3 -10 -3 -14
0 -3 4 0 7 7 7 7 0 10 -3 7 -7z m1170 -9 c-3 -3 -12 -4 -19 -1 -8 3 -5 6 6 6
11 1 17 -2 13 -5z m-2076 -44 c-24 -21 -41 -26 -41 -12 0 15 24 32 45 32 19
-1 19 -1 -4 -20z m2156 3 c-4 -3 -10 -3 -14 0 -3 4 0 7 7 7 7 0 10 -3 7 -7z"/>
<path d="M613 1275 c0 -7 9 -16 19 -18 10 -3 18 -1 18 3 0 5 15 7 33 4 17 -2
53 -5 78 -6 26 -2 45 -6 43 -9 -3 -5 39 -29 51 -29 12 0 -6 36 -26 53 -19 15
-32 18 -69 12 -68 -10 -113 -11 -131 -3 -10 4 -16 2 -16 -7z"/>
<path d="M584 1228 c-4 -7 -3 -8 4 -4 12 7 16 16 8 16 -3 0 -8 -5 -12 -12z"/>
<path d="M556 1175 c-9 -26 -7 -32 5 -12 6 10 9 21 6 23 -2 3 -7 -2 -11 -11z"/>
<path d="M541 1124 c0 -11 3 -14 6 -6 3 7 2 16 -1 19 -3 4 -6 -2 -5 -13z"/>
<path d="M1783 1123 c4 -3 10 -3 14 0 3 4 0 7 -7 7 -7 0 -10 -3 -7 -7z"/>
<path d="M531 1074 c0 -11 3 -14 6 -6 3 7 2 16 -1 19 -3 4 -6 -2 -5 -13z"/>
<path d="M1557 1063 c-3 -5 -1 -17 4 -28 7 -17 8 -17 8 8 1 27 -4 34 -12 20z"/>
<path d="M1491 1026 c-24 -38 -27 -66 -9 -84 17 -17 27 -15 23 6 -1 9 4 29 11
44 16 31 18 68 5 68 -5 0 -19 -15 -30 -34z m17 -24 c-7 -18 -16 -32 -21 -32
-4 0 -6 4 -3 9 3 4 10 21 16 36 6 15 13 26 15 23 3 -2 -1 -19 -7 -36z"/>
<path d="M635 969 c48 -49 118 -92 142 -87 13 3 7 10 -23 25 -22 12 -64 40
-92 62 -66 52 -77 52 -27 0z"/>
<path d="M1053 1003 c4 -3 10 -3 14 0 3 4 0 7 -7 7 -7 0 -10 -3 -7 -7z"/>
<path d="M1644 995 c-10 -8 -14 -15 -8 -15 6 0 17 7 24 15 16 19 9 19 -16 0z"/>
<path d="M2375 960 c38 -56 55 -123 55 -213 0 -76 -12 -119 -45 -167 -53 -77
-192 -121 -266 -86 l-34 17 36 -33 c43 -39 117 -68 172 -68 21 0 62 11 90 25
136 65 199 272 128 420 -32 68 -80 121 -128 141 -18 8 -34 14 -37 14 -3 0 10
-22 29 -50z"/>
<path d="M703 993 c4 -3 10 -3 14 0 3 4 0 7 -7 7 -7 0 -10 -3 -7 -7z"/>
<path d="M1963 913 c4 -3 10 -3 14 0 3 4 0 7 -7 7 -7 0 -10 -3 -7 -7z"/>
<path d="M1706 871 c-7 -10 53 -31 89 -31 11 0 40 7 65 15 l45 15 -75 -2 c-41
0 -85 2 -96 6 -12 5 -25 3 -28 -3z"/>
<path d="M1873 813 c4 -3 10 -3 14 0 3 4 0 7 -7 7 -7 0 -10 -3 -7 -7z"/>
<path d="M264 801 c4 -6 18 -11 31 -11 27 0 42 -16 23 -23 -7 -3 -3 -6 9 -6
12 -1 23 3 25 9 2 5 19 7 41 3 26 -4 34 -9 25 -14 -20 -13 5 -11 39 3 26 10
23 12 -52 23 -45 7 -96 16 -114 20 -24 5 -31 4 -27 -4z"/>
<path d="M915 800 c3 -5 8 -10 11 -10 3 0 2 5 -1 10 -3 6 -8 10 -11 10 -3 0
-2 -4 1 -10z"/>
<path d="M944 788 c-4 -7 -3 -8 4 -4 12 7 16 16 8 16 -3 0 -8 -5 -12 -12z"/>
<path d="M1093 733 c4 -3 10 -3 14 0 3 4 0 7 -7 7 -7 0 -10 -3 -7 -7z"/>
<path d="M515 720 c4 -7 -24 -9 -82 -5 -57 3 -79 2 -63 -4 14 -5 66 -10 115
-12 l90 -2 -65 -7 c-73 -7 -71 -13 5 -10 68 2 89 20 44 36 -43 16 -52 16 -44
4z"/>
<path d="M288 703 c7 -3 16 -2 19 1 4 3 -2 6 -13 5 -11 0 -14 -3 -6 -6z"/>
<path d="M134 685 c11 -8 25 -15 30 -15 6 0 2 7 -8 15 -11 8 -25 15 -30 15 -6
0 -2 -7 8 -15z"/>
<path d="M337 672 c5 -11 -6 -13 -56 -10 -38 2 -60 -1 -58 -7 2 -5 29 -10 59
-10 31 0 59 -3 64 -7 4 -5 19 -8 34 -8 14 0 30 -4 36 -8 5 -5 56 -6 114 -2 94
5 102 7 77 18 -16 7 -52 13 -80 14 -46 1 -43 2 23 8 l75 6 -77 2 c-42 1 -80
-2 -83 -8 -9 -15 -25 -12 -25 5 0 10 -11 15 -32 16 -18 0 -43 2 -55 3 -15 2
-19 -2 -16 -12z m33 -22 c0 -5 -7 -7 -15 -4 -8 4 -15 8 -15 10 0 2 7 4 15 4 8
0 15 -4 15 -10z m30 6 c0 -3 -5 -8 -12 -12 -7 -4 -8 -3 -4 4 7 12 16 16 16 8z"/>
<path d="M125 650 c3 -5 10 -10 16 -10 5 0 9 5 9 10 0 6 -7 10 -16 10 -8 0
-12 -4 -9 -10z"/>
<path d="M630 589 c0 -5 19 -9 42 -9 49 0 47 5 -4 13 -21 3 -38 2 -38 -4z"/>
<path d="M270 570 c-10 -7 9 -10 64 -10 44 0 77 2 75 4 -11 9 -126 15 -139 6z"/>
<path d="M248 458 c5 -5 16 -8 23 -6 8 3 3 7 -10 11 -17 4 -21 3 -13 -5z"/>
<path d="M2655 390 c-3 -5 -1 -10 4 -10 6 0 11 5 11 10 0 6 -2 10 -4 10 -3 0
-8 -4 -11 -10z"/>
<path d="M195 333 c15 -32 45 -46 45 -21 0 6 9 3 20 -7 11 -10 20 -24 20 -32
0 -7 5 -13 10 -13 6 0 1 18 -10 40 -20 40 -44 52 -53 28 -4 -9 -12 -5 -27 12
l-21 25 16 -32z"/>
<path d="M2703 333 c4 -3 10 -3 14 0 3 4 0 7 -7 7 -7 0 -10 -3 -7 -7z"/>
<path d="M1135 300 c-4 -6 5 -10 20 -10 15 0 24 4 20 10 -3 6 -12 10 -20 10
-8 0 -17 -4 -20 -10z"/>
<path d="M1133 263 c4 -3 10 -3 14 0 3 4 0 7 -7 7 -7 0 -10 -3 -7 -7z"/>
<path d="M1228 263 c7 -3 16 -2 19 1 4 3 -2 6 -13 5 -11 0 -14 -3 -6 -6z"/>
<path d="M2770 210 c-8 -5 -10 -10 -5 -10 6 0 -1 -7 -15 -15 -25 -14 -25 -14
15 -14 29 -1 36 2 25 9 -12 8 -12 10 3 16 9 3 17 10 17 15 0 12 -21 11 -40 -1z"/>
<path d="M2678 163 c6 -2 18 -2 25 0 6 3 1 5 -13 5 -14 0 -19 -2 -12 -5z"/>
<path d="M953 142 c-24 -9 -46 -26 -52 -40 l-11 -24 26 21 c14 11 31 18 37 14
6 -3 7 -1 3 5 -4 7 6 17 26 26 45 20 23 18 -29 -2z"/>
<path d="M1173 153 c4 -3 10 -3 14 0 3 4 0 7 -7 7 -7 0 -10 -3 -7 -7z"/>
<path d="M297 133 c-10 -10 -8 -23 4 -23 5 0 8 4 4 9 -3 6 12 12 32 14 l38 4
-36 1 c-20 1 -39 -1 -42 -5z"/>
<path d="M980 110 c0 -7 3 -10 7 -7 3 4 3 10 0 14 -4 3 -7 0 -7 -7z"/>
<path d="M282 69 c-28 -11 -20 -29 11 -28 21 0 21 1 2 9 -15 6 -8 9 30 10 38
1 45 4 30 10 -26 11 -44 11 -73 -1z"/>
</g>
</svg>
