<?xml version="1.0" standalone="no"?>
<!DOCTYPE svg PUBLIC "-//W3C//DTD SVG 20010904//EN"
 "http://www.w3.org/TR/2001/REC-SVG-20010904/DTD/svg10.dtd">
<svg version="1.0" xmlns="http://www.w3.org/2000/svg"
 width="1080.000000pt" height="1080.000000pt" viewBox="0 0 1080.000000 1080.000000"
 preserveAspectRatio="xMidYMid meet">
<metadata>
Created by potrace 1.14, written by Peter Selinger 2001-2017
</metadata>
<g transform="translate(0.000000,1080.000000) scale(0.100000,-0.100000)"
fill="#000000" stroke="none">
<path d="M3000 9290 c-25 -11 -55 -19 -67 -19 -14 -1 -23 -7 -23 -16 0 -8 -4
-15 -10 -15 -5 0 -10 7 -10 15 0 9 -9 15 -21 15 -18 0 -19 -2 -9 -15 10 -12
10 -15 -4 -15 -9 0 -16 5 -16 10 0 16 -56 12 -70 -5 -10 -12 -9 -15 4 -15 10
0 14 5 11 10 -10 17 12 11 31 -7 10 -10 28 -16 42 -14 24 3 24 2 -6 -26 -70
-64 -116 -87 -144 -72 -14 7 -23 8 -30 1 -19 -19 3 -32 48 -29 24 2 44 0 44
-4 0 -4 21 -12 46 -18 39 -10 49 -9 63 3 9 8 28 19 44 25 34 13 34 21 -2 45
-15 11 -33 28 -40 38 -10 16 -8 18 14 18 18 0 25 -5 25 -20 0 -11 6 -20 14
-20 8 0 16 -10 20 -23 6 -24 46 -36 46 -14 0 7 20 19 44 26 38 11 56 26 56 48
0 3 -13 3 -30 1 -31 -5 -41 8 -15 18 23 9 18 25 -7 23 -58 -5 -82 15 -33 27
14 3 25 11 25 17 0 7 4 7 12 -1 14 -14 67 -16 88 -2 12 7 12 10 -4 16 -10 4
-28 1 -39 -6 -17 -10 -22 -10 -32 4 -7 9 -14 16 -16 15 -2 -1 -24 -9 -49 -19z"/>
<path d="M3498 9254 c-16 -8 -28 -19 -28 -24 0 -13 7 -13 30 0 13 7 21 6 30
-5 10 -12 9 -15 -9 -15 -18 0 -21 -4 -16 -20 7 -22 -4 -27 -21 -10 -8 8 -19 7
-38 -1 -21 -10 -34 -10 -59 -1 -25 9 -34 9 -46 -2 -30 -26 -151 -67 -194 -65
-58 1 -130 -18 -172 -47 -20 -13 -41 -24 -47 -24 -7 0 -21 -9 -32 -19 -20 -18
-158 -61 -198 -61 -21 0 -23 11 -5 29 10 11 9 13 -3 9 -8 -3 -17 -13 -19 -24
-4 -24 -19 -34 -54 -34 -36 0 -67 -16 -67 -35 0 -12 -16 -15 -74 -15 -41 0
-85 -4 -98 -8 -13 -5 -36 -5 -53 -1 -16 3 -23 7 -15 8 30 2 140 64 140 78 0
10 -6 13 -16 9 -11 -4 -18 1 -21 14 -8 29 -26 25 -21 -4 6 -28 4 -30 -89 -51
-51 -12 -69 -13 -80 -3 -11 9 -16 9 -24 -3 -5 -8 -9 -10 -9 -6 0 14 -60 -26
-60 -40 0 -7 -6 -13 -12 -13 -17 0 -50 -59 -42 -72 4 -6 -1 -8 -14 -4 -16 5
-22 0 -31 -25 -16 -47 -6 -48 34 -4 28 30 38 36 48 26 9 -10 8 -15 -7 -26 -14
-11 -17 -22 -13 -45 6 -28 5 -30 -14 -19 -15 8 -28 8 -50 -1 -16 -7 -29 -16
-29 -20 0 -3 -6 -7 -12 -8 -7 0 -58 -19 -113 -41 -55 -22 -138 -52 -185 -65
l-85 -25 73 2 c39 1 72 5 72 9 0 4 5 8 11 8 5 0 7 -5 3 -11 -14 -23 70 2 127
37 32 20 77 38 108 43 30 5 61 17 74 30 13 11 32 21 44 21 11 0 41 11 66 25
27 14 56 22 69 19 13 -3 44 -5 71 -5 26 0 47 -3 47 -7 0 -4 -14 -19 -30 -34
-26 -23 -32 -24 -44 -12 -20 19 -34 18 -48 -6 -7 -11 -17 -20 -22 -20 -4 0
-24 -13 -43 -30 -38 -34 -55 -37 -73 -15 -17 20 -25 19 -60 -6 -16 -12 -26
-28 -23 -35 3 -8 -5 -23 -18 -34 -23 -18 -23 -19 -4 -20 19 0 78 -38 63 -41
-35 -5 -69 0 -83 11 -15 13 -17 11 -13 -15 2 -24 -1 -30 -15 -28 -15 1 -17 -4
-13 -23 5 -17 2 -24 -9 -24 -8 0 -15 -5 -15 -11 0 -6 6 -9 13 -6 17 5 35 -22
29 -45 -5 -20 -62 -40 -76 -27 -12 11 -123 12 -128 1 -3 -8 -104 -52 -119 -52
-5 0 -9 7 -9 15 0 8 -4 15 -10 15 -5 0 -10 -4 -10 -10 0 -5 -6 -10 -14 -10 -8
0 -27 -5 -43 -11 -33 -13 -164 -19 -157 -7 3 4 0 8 -5 8 -6 0 -11 -4 -11 -10
0 -5 -7 -10 -16 -10 -23 0 -11 -24 14 -28 11 -2 26 -10 32 -18 14 -16 43 -18
69 -5 10 6 23 6 32 0 19 -13 -5 -31 -80 -61 -46 -19 -79 -23 -186 -26 -176 -4
-166 -4 -205 2 -26 4 -30 3 -15 -4 11 -5 32 -9 48 -9 15 -1 27 -6 27 -12 0 -6
-8 -8 -18 -5 -24 8 -47 -8 -36 -25 7 -12 5 -12 -9 0 -14 11 -18 11 -24 -5 -3
-11 -11 -22 -17 -26 -8 -5 -7 -8 1 -8 6 0 15 5 18 10 3 6 11 10 16 10 5 0 -1
-12 -14 -26 -15 -16 -23 -34 -20 -45 6 -20 5 -20 -71 -23 -48 -1 -58 -21 -25
-48 16 -13 20 -21 12 -25 -7 -2 -13 -13 -13 -24 0 -10 -4 -19 -10 -19 -5 0
-10 -7 -10 -15 0 -18 4 -18 50 -5 46 13 130 3 123 -16 -5 -13 -62 -37 -93 -40
-34 -3 -38 -5 -43 -24 -5 -19 -28 -26 -66 -20 -10 1 -11 -4 -6 -17 18 -43 17
-51 -6 -58 l-24 -8 25 -10 c23 -9 23 -10 5 -14 -55 -13 -31 -53 32 -53 18 0
33 -4 33 -8 0 -14 -52 -34 -59 -23 -4 5 -26 10 -50 9 -38 0 -42 -2 -37 -21 3
-14 -2 -30 -16 -44 l-21 -23 35 0 c20 0 44 -3 54 -7 10 -3 15 -2 12 3 -4 5 13
7 38 5 24 -1 44 -7 44 -11 0 -8 -70 -20 -118 -20 -48 0 -96 -42 -106 -93 -3
-16 -13 -35 -21 -43 -17 -18 -20 -34 -5 -34 6 0 10 5 10 10 0 6 14 10 30 10
20 0 30 -5 30 -15 0 -10 -11 -15 -30 -16 -16 -1 -34 -3 -40 -4 -5 -1 -13 -3
-17 -4 -5 -1 0 -6 10 -12 20 -12 23 -29 4 -29 -8 0 -22 -9 -33 -21 -15 -16
-16 -22 -5 -28 8 -6 10 -14 5 -22 -14 -24 -4 -82 17 -97 l20 -14 -20 -15 c-24
-16 -19 -33 10 -33 18 0 28 -19 12 -21 -5 0 -18 -2 -31 -3 -30 -3 -54 -26 -28
-26 14 0 17 -6 13 -25 -3 -18 2 -30 16 -40 11 -7 17 -20 14 -28 -3 -9 4 -19
19 -26 13 -6 24 -15 24 -20 0 -12 -35 -20 -60 -14 -22 6 -27 39 -8 45 7 3 -8
13 -34 22 -29 11 -54 15 -65 11 -10 -5 -25 -7 -33 -6 -33 6 1 -11 47 -23 34
-9 48 -18 47 -29 -1 -10 4 -17 12 -17 8 0 14 -4 14 -10 0 -5 7 -10 16 -10 31
0 10 -35 -24 -38 -34 -3 -45 -22 -14 -22 11 0 26 -8 35 -18 16 -17 14 -18 -26
-19 -23 -1 -57 -2 -76 -2 -34 -1 -36 -13 -3 -17 90 -13 102 -16 102 -30 0 -10
-12 -14 -39 -14 -53 0 -102 -11 -95 -21 2 -4 16 -4 29 1 15 6 27 6 30 -1 4 -5
11 -7 16 -3 16 10 -3 -50 -20 -63 -9 -7 -12 -13 -7 -13 4 0 -2 -9 -15 -20
l-24 -19 55 -1 c89 0 130 -10 130 -30 0 -11 -13 -24 -30 -32 -17 -7 -30 -18
-30 -25 0 -7 -8 -17 -18 -23 -16 -10 -16 -10 1 -20 24 -15 21 -29 -8 -40 -14
-5 -25 -16 -25 -25 0 -8 -4 -16 -10 -16 -5 -1 -14 -3 -20 -4 -5 -1 -19 -3 -30
-4 -11 0 -20 -5 -20 -9 0 -11 139 -30 167 -23 34 9 133 1 133 -11 0 -6 -9 -8
-19 -5 -11 3 -30 -2 -42 -11 -26 -18 -15 -26 49 -37 43 -7 43 -7 21 -23 -18
-12 -27 -13 -54 -3 -33 11 -65 7 -65 -10 0 -5 9 -9 19 -9 24 0 37 -18 23 -32
-8 -8 -20 -7 -40 1 -25 11 -34 9 -65 -9 -21 -12 -37 -26 -37 -30 0 -5 -15 -10
-33 -12 -17 -2 -32 -7 -32 -13 0 -16 67 -18 77 -3 7 10 11 10 22 -4 11 -15 37
-18 179 -21 157 -4 202 -10 163 -22 -9 -3 -23 -7 -32 -10 -9 -3 -18 -14 -21
-24 -3 -14 -18 -21 -50 -26 -26 -4 -53 -14 -62 -23 -15 -15 -14 -15 2 -9 15 6
17 3 11 -16 -4 -12 -12 -26 -18 -30 -7 -5 -4 -13 11 -24 25 -17 31 -53 10 -53
-20 0 -8 -58 14 -70 18 -10 50 -12 129 -8 73 3 113 -11 73 -26 -15 -6 -15 -8
3 -20 15 -11 30 -11 74 -2 30 6 60 13 65 16 6 3 28 6 50 5 49 0 62 -29 21 -45
-30 -11 -31 -16 -12 -36 16 -15 38 -18 50 -6 4 4 11 7 14 7 25 2 88 18 92 24
3 3 37 17 76 29 66 22 73 22 113 8 41 -14 44 -13 48 5 5 16 14 19 60 18 46 -1
61 -7 90 -32 29 -26 38 -29 54 -19 23 15 56 16 64 2 10 -16 172 -12 204 5 28
14 49 66 42 104 -2 14 165 183 210 212 37 24 70 29 98 15 14 -7 43 -16 63 -20
34 -6 37 -9 26 -26 -16 -25 4 -52 24 -32 9 9 19 5 45 -20 31 -30 35 -31 66
-20 37 13 107 16 107 4 0 -4 28 -13 62 -19 35 -7 64 -17 66 -23 2 -5 10 -10
17 -10 8 0 19 -17 26 -39 11 -38 12 -38 71 -44 32 -3 70 -13 85 -22 21 -14 27
-15 34 -4 4 7 4 16 0 19 -4 3 -10 12 -14 21 -3 9 -26 27 -51 39 -60 30 -106
74 -106 101 0 16 5 20 20 16 26 -7 26 11 -1 70 -15 32 -18 48 -10 56 6 6 11
19 11 29 0 10 11 23 24 28 13 5 27 18 31 29 7 23 25 27 42 10 27 -27 181 -41
233 -22 27 10 54 9 77 -4 15 -9 90 -13 255 -13 191 -1 240 2 273 15 22 8 30
14 18 11 -12 -2 -32 3 -45 12 -14 10 -46 17 -88 17 -60 2 -93 11 -173 51 -16
8 -38 14 -49 14 -16 0 -13 -6 18 -35 31 -30 34 -36 19 -41 -10 -4 -41 0 -69 8
-115 36 -221 42 -209 12 4 -10 -3 -14 -26 -14 -17 0 -31 5 -31 10 0 6 -13 10
-30 10 -65 0 -123 24 -172 72 -41 40 -48 52 -48 85 0 21 4 33 8 27 4 -6 17
-16 30 -23 12 -6 22 -18 22 -25 0 -8 7 -16 15 -20 9 -3 19 -15 23 -27 10 -26
76 -51 106 -40 11 5 31 4 43 -2 16 -7 27 -5 44 6 l22 16 -29 6 c-50 11 -98 26
-124 38 -29 13 -91 77 -85 87 6 9 56 0 73 -13 19 -15 32 8 23 41 -8 30 -54 50
-118 51 -37 1 -43 -2 -43 -20 0 -16 4 -19 20 -14 14 5 20 2 20 -9 0 -9 -7 -16
-16 -16 -8 0 -12 -4 -9 -10 3 -5 -1 -10 -10 -10 -9 0 -13 5 -10 10 12 20 -6
50 -31 50 -13 0 -24 5 -24 11 0 7 -10 9 -27 4 -23 -5 -25 -4 -14 9 8 9 20 16
27 16 16 0 19 16 4 25 -8 5 -8 11 0 20 8 10 7 15 -2 19 -7 3 -1 3 15 0 29 -7
38 10 11 20 -20 8 -9 26 16 26 28 0 113 -30 129 -45 11 -10 19 -11 38 -2 22
10 24 16 19 46 -4 26 -2 31 6 23 13 -13 38 -16 38 -4 0 13 -79 42 -108 40 -15
-1 -45 8 -67 19 l-40 21 28 11 c58 22 134 28 214 15 43 -6 81 -10 86 -7 4 2 7
0 7 -6 0 -5 15 -19 34 -30 38 -24 112 -28 139 -8 16 11 13 16 -28 51 -25 21
-57 39 -70 40 -28 4 -55 28 -55 51 0 14 45 40 63 37 4 -1 7 2 7 7 0 10 -69 23
-83 14 -9 -6 -159 -7 -231 -1 -68 5 -53 25 26 34 61 7 66 9 33 12 -22 2 -46 9
-53 15 -8 6 -29 10 -47 8 -18 -1 -51 3 -74 9 -34 9 -47 8 -75 -5 -26 -13 -39
-14 -53 -6 -15 9 -13 10 15 11 29 0 32 3 32 30 0 22 -5 30 -18 30 -19 0 -76
-52 -67 -61 11 -12 -82 -1 -105 11 -14 8 -35 13 -48 11 -13 -1 -29 3 -37 9
-18 15 -55 4 -55 -16 0 -9 8 -14 23 -12 12 2 23 0 25 -4 6 -21 0 -47 -13 -52
-21 -8 -45 3 -45 20 0 8 -9 14 -19 14 -30 0 -34 17 -6 24 40 10 29 51 -14 57
-21 4 -25 10 -29 54 -2 28 -7 55 -11 60 -4 6 -8 22 -9 38 -1 21 3 27 18 27 13
0 18 -5 14 -15 -4 -10 0 -15 10 -15 9 0 19 7 22 15 4 8 13 15 21 15 19 0 146
127 134 134 -13 8 -54 -8 -70 -27 -14 -18 -22 -16 -108 24 -60 28 -62 30 -72
80 -6 29 -9 67 -5 85 6 30 9 33 31 28 19 -5 24 -3 21 7 -3 8 -18 16 -33 19
-16 3 -28 9 -26 14 6 19 -26 24 -78 10 -30 -7 -63 -12 -75 -9 -12 2 -33 6 -47
9 -17 4 -31 16 -39 35 -11 27 -13 28 -38 15 -27 -14 -47 -9 -23 6 17 10 6 44
-12 37 -6 -2 -11 -16 -10 -31 2 -34 -13 -34 -22 1 -7 30 18 58 43 48 8 -3 27
-5 44 -5 25 0 29 -3 25 -20 -4 -17 -1 -19 42 -15 25 2 63 4 85 5 l38 0 -36 40
c-20 22 -36 47 -36 55 0 8 -6 15 -14 15 -15 0 -32 53 -22 69 4 5 -10 11 -31
13 -44 4 -52 28 -13 39 16 4 19 7 8 8 -10 1 -18 7 -18 15 0 14 29 26 94 41 54
12 20 14 -46 3 -46 -7 -65 -15 -61 -23 3 -8 -14 -19 -48 -30 -50 -17 -53 -17
-65 0 -7 9 -10 22 -8 28 6 15 62 44 129 67 46 16 50 20 53 52 3 31 0 36 -22
42 -15 3 -26 12 -26 19 0 12 -50 43 -95 58 -17 6 -17 7 -2 8 9 1 17 6 17 11 0
6 9 10 19 10 11 0 23 -4 26 -10 9 -15 25 -12 25 6 0 8 -13 20 -30 25 -16 6
-30 14 -30 18 0 4 -22 7 -49 7 -40 -1 -52 3 -70 24 -20 23 -22 24 -32 7 -8
-13 -14 -15 -23 -8 -16 13 -82 3 -97 -15 -9 -11 -8 -14 5 -14 20 0 21 -14 1
-30 -12 -10 -13 -16 -4 -26 9 -11 8 -14 0 -14 -7 0 -20 -7 -28 -16 -9 -9 -25
-13 -38 -10 -30 8 -94 -12 -132 -40 -37 -28 -58 -30 -67 -8 -10 27 -7 34 17
34 29 0 37 7 30 26 -6 17 -46 19 -41 2 6 -18 -49 -61 -69 -54 -12 5 -14 9 -5
18 17 17 15 48 -2 48 -8 0 -17 -6 -19 -12 -4 -8 -6 -7 -6 3 -1 9 6 19 14 23 8
3 15 14 15 23 0 36 68 70 85 43 3 -5 17 -10 30 -10 15 0 29 -9 37 -22 l12 -23
6 25 c9 32 3 42 -20 35 -15 -5 -18 -1 -16 18 6 53 46 83 161 121 65 21 149 22
142 1 -4 -8 -1 -18 5 -21 15 -10 97 -18 171 -17 50 1 63 5 87 28 18 18 42 28
71 31 73 8 84 12 124 44 37 30 40 30 114 24 107 -9 130 -36 33 -38 -27 -1 -55
-6 -63 -13 -15 -12 -53 -24 -165 -52 -39 -10 -80 -24 -92 -30 -11 -6 -32 -11
-46 -11 -31 0 -56 -9 -56 -21 0 -5 11 -9 25 -9 15 0 40 -7 57 -16 27 -14 29
-18 15 -26 -10 -5 -21 -7 -26 -4 -5 4 -16 3 -25 0 -13 -5 -14 -10 -4 -27 7
-12 11 -32 9 -44 -2 -17 2 -20 17 -16 11 2 29 0 41 -6 15 -8 21 -9 21 -1 0 6
5 8 11 5 6 -4 8 -14 5 -22 -4 -10 0 -13 12 -11 11 3 16 12 14 28 -4 33 -18 46
-35 32 -17 -15 -27 -6 -27 25 0 29 13 29 41 1 15 -16 23 -19 26 -10 3 6 14 12
26 12 20 -1 20 -2 5 -11 -24 -13 -23 -27 5 -50 17 -15 19 -20 9 -27 -27 -18
42 -23 287 -22 189 0 259 -3 303 -15 81 -21 196 -24 208 -6 7 12 19 13 77 3
83 -14 253 -23 253 -14 -1 4 -14 22 -29 40 -22 26 -35 33 -57 30 -17 -2 -29 2
-32 11 -3 10 0 12 12 8 10 -4 42 -7 72 -7 52 0 55 -2 52 -22 -3 -21 0 -23 42
-20 31 3 51 11 65 26 27 31 57 39 80 22 28 -20 45 -9 45 31 0 26 5 36 19 40
19 5 36 31 27 40 -2 2 -44 -3 -93 -13 -100 -19 -211 -23 -263 -10 -19 5 -66
12 -105 15 -72 7 -72 12 5 32 l45 12 -40 9 c-22 5 -60 7 -85 5 -122 -13 -256
-32 -260 -38 -7 -8 -63 -25 -132 -39 -40 -8 -61 -18 -71 -34 -12 -17 -28 -25
-67 -29 -29 -4 -58 -11 -66 -18 -7 -6 -18 -8 -24 -4 -6 4 -24 8 -38 10 -89 10
-138 27 -127 45 3 5 40 6 83 3 45 -3 95 0 120 6 43 12 65 37 44 50 -7 4 26 8
72 8 86 1 126 13 126 37 0 13 50 41 120 69 25 10 77 13 180 12 151 -2 193 4
184 28 -3 8 5 25 18 39 40 41 74 50 163 43 80 -7 82 -7 99 20 13 19 14 30 6
39 -17 21 -96 39 -140 32 -35 -5 -40 -4 -40 13 0 25 26 31 136 31 73 0 96 -4
115 -18 34 -26 77 -40 123 -41 21 0 46 -3 56 -6 30 -10 67 11 73 42 3 15 1 32
-4 38 -16 17 -10 24 40 45 55 24 117 82 106 100 -10 17 -57 6 -102 -24 -48
-30 -99 -42 -118 -26 -11 9 -25 8 -62 -6 -26 -9 -54 -22 -61 -27 -6 -5 -31 -9
-55 -8 -120 2 -176 7 -183 14 -4 4 -21 7 -39 7 -17 0 -36 5 -43 12 -9 9 -20 9
-47 -1 -19 -7 -44 -10 -54 -6 -13 4 -23 0 -29 -10 -14 -27 -78 -10 -93 24 -7
15 -25 35 -39 43 -25 14 -34 14 -86 1 -41 -11 -81 -13 -139 -8 -111 9 -118 15
-69 59 45 41 83 52 116 35 13 -7 67 -16 120 -19 90 -7 100 -10 146 -44 55 -40
67 -43 80 -20 5 9 31 20 57 25 58 11 60 12 45 38 -15 29 -9 35 52 55 68 22 90
39 88 68 -4 39 -1 48 15 48 8 0 15 5 15 10 0 23 37 8 66 -26 30 -36 30 -37
100 -34 38 2 86 3 107 2 24 -1 40 3 43 12 7 18 49 30 92 27 42 -3 109 39 114
71 8 50 -62 138 -109 138 l-27 0 33 -34 c18 -19 31 -39 27 -44 -9 -14 -223 -7
-241 8 -9 8 -28 10 -49 6 -25 -5 -35 -3 -40 9 -4 10 1 15 14 15 11 0 20 4 20
9 0 5 25 12 55 16 53 6 67 16 44 31 -7 4 -85 6 -175 6 -98 -1 -165 2 -169 8
-8 13 -35 13 -35 0 0 -5 9 -10 19 -10 27 0 35 -17 14 -29 -17 -10 -16 -12 7
-31 19 -15 38 -20 75 -19 80 2 105 0 105 -11 0 -5 -7 -10 -15 -10 -9 0 -30 -8
-48 -17 -58 -31 -99 -42 -118 -32 -47 25 -148 -3 -103 -29 16 -9 17 -11 1 -27
-9 -9 -29 -17 -44 -18 -27 -2 -28 -1 -29 53 -1 70 -17 110 -44 110 -11 0 -20
4 -20 9 0 5 -3 17 -7 27 -6 16 -1 16 52 10 33 -4 66 -12 75 -19 8 -8 22 -13
30 -12 8 1 20 3 27 3 15 2 5 32 -16 49 -9 7 -28 13 -43 13 -34 0 -58 9 -58 22
0 7 26 8 73 3 55 -5 76 -3 84 7 13 17 27 108 16 109 -60 7 -92 5 -115 -7z
m-655 -344 c57 0 69 -3 59 -12 -8 -8 -54 -15 -114 -19 -69 -4 -105 -10 -112
-20 -14 -18 -61 -39 -88 -39 -11 0 -39 -18 -61 -40 -30 -30 -42 -38 -48 -28
-16 25 -9 37 24 43 27 5 33 11 32 33 0 25 4 27 47 32 26 3 56 14 67 24 21 20
85 37 109 30 8 -2 46 -4 85 -4z m16 -235 l34 -34 -34 -14 c-19 -8 -64 -19 -99
-25 -53 -10 -70 -17 -90 -42 -27 -33 -51 -38 -69 -16 -12 15 -59 15 -131 0
-32 -7 -34 -6 -21 9 7 9 11 17 8 17 -22 0 -149 -32 -181 -45 -29 -12 -41 -14
-50 -5 -8 9 -6 15 8 24 10 6 35 22 55 35 37 24 142 54 196 55 17 0 46 -4 66
-8 31 -6 39 -4 60 18 25 27 54 35 46 14 -3 -12 19 -37 35 -38 3 0 9 14 13 30
5 22 12 30 28 30 12 0 33 7 47 14 36 20 41 19 79 -19z m114 -88 c8 -13 40 -31
78 -44 l64 -22 58 20 c78 26 130 29 135 8 2 -10 -5 -19 -18 -22 -26 -7 -26
-37 0 -44 10 -3 22 -14 26 -25 4 -14 12 -18 28 -14 12 3 51 -1 87 -8 35 -8 52
-15 37 -15 -16 -1 -28 -5 -28 -10 0 -4 -27 -9 -60 -9 -53 -1 -60 1 -60 19 0
10 -6 19 -12 19 -7 0 -23 3 -35 6 -17 5 -22 1 -25 -17 -3 -27 -36 -38 -49 -17
-5 7 -6 20 -3 29 3 13 -4 18 -29 23 -37 7 -67 0 -67 -16 0 -5 -11 -20 -24 -33
-32 -32 -56 -24 -55 19 2 63 -13 86 -58 86 -14 0 -23 -6 -23 -15 0 -9 -8 -18
-17 -22 -10 -3 -24 -11 -31 -17 -13 -10 -88 -9 -105 1 -4 2 0 11 8 19 8 8 20
23 27 32 26 35 99 92 117 92 10 0 25 -10 34 -23z m-1487 -609 c-1 -20 4 -23
32 -20 17 1 32 -2 32 -8 0 -5 -4 -10 -10 -10 -5 0 -21 -11 -34 -25 -23 -23
-33 -26 -96 -24 -45 1 -74 7 -81 15 -6 8 -19 14 -29 14 -19 0 -35 26 -21 34 4
3 23 1 41 -4 24 -7 36 -6 47 5 8 8 20 15 27 15 8 0 19 7 26 15 7 8 25 15 40
15 21 0 26 -5 26 -22z m584 -489 c16 -17 30 -33 30 -36 0 -2 -10 -13 -22 -23
-25 -20 -133 -27 -143 -9 -4 5 -14 9 -24 9 -9 0 -22 5 -28 11 -14 14 -6 39 13
39 8 0 18 8 21 18 10 28 25 33 75 27 34 -4 55 -14 78 -36z"/>
<path d="M3570 8293 c-24 -9 -50 -35 -44 -44 2 -5 -8 -11 -23 -14 -15 -4 -38
-12 -51 -18 -23 -11 -23 -11 14 -24 21 -7 45 -20 54 -28 9 -8 27 -15 40 -15
21 0 22 1 8 18 -9 9 -13 22 -11 29 2 6 -1 14 -6 18 -19 11 -12 25 13 25 28 0
42 -15 25 -25 -7 -5 1 -18 22 -37 26 -24 44 -31 88 -34 106 -8 142 -15 147
-29 4 -10 22 -13 59 -12 l53 2 -19 27 c-22 30 -25 50 -6 42 7 -2 27 2 43 11
16 8 36 15 44 15 8 0 40 9 70 20 30 11 56 20 57 20 2 0 3 9 3 20 0 44 -68 52
-166 18 -62 -22 -66 -22 -75 -5 -8 13 -14 15 -23 8 -7 -6 -26 -10 -42 -9 -16
0 -52 -4 -81 -10 -47 -10 -57 -9 -108 13 -58 26 -61 27 -85 18z"/>
<path d="M5610 8155 c-17 -9 -30 -10 -43 -3 -10 5 -30 7 -45 4 -39 -8 -117
-16 -200 -21 -65 -4 -127 -24 -204 -66 -21 -11 -79 -12 -77 -1 3 20 -3 21 -31
7 -16 -8 -33 -14 -37 -13 -30 8 -154 -28 -201 -58 -73 -48 -132 -103 -132
-124 0 -10 -7 -23 -15 -30 -14 -11 -14 -14 0 -24 14 -10 5 -22 -57 -87 -91
-95 -96 -100 -126 -163 -14 -28 -34 -62 -44 -75 -10 -13 -18 -32 -18 -42 0
-11 -4 -19 -9 -19 -6 0 -18 -13 -28 -30 -9 -16 -21 -30 -26 -30 -4 0 -28 -9
-53 -20 -46 -22 -59 -40 -69 -101 -3 -21 -12 -42 -20 -49 -20 -17 -19 -40 3
-40 11 0 7 -7 -15 -21 -18 -12 -33 -28 -33 -36 0 -8 -8 -27 -18 -41 -11 -15
-27 -51 -38 -80 -15 -43 -16 -55 -5 -61 7 -5 11 -21 9 -37 -3 -25 1 -29 25
-32 22 -3 27 -7 22 -23 -5 -15 -2 -19 14 -19 33 0 25 -30 -9 -37 -17 -3 -33
-10 -36 -15 -10 -16 17 -68 37 -68 27 0 36 -25 29 -83 -4 -29 -5 -58 -3 -64 3
-7 -1 -13 -7 -13 -7 0 -3 -9 9 -19 17 -15 21 -27 17 -48 -3 -15 -7 -55 -8 -89
-2 -55 0 -63 31 -100 29 -35 35 -49 38 -105 5 -81 7 -87 38 -99 16 -6 23 -14
19 -25 -3 -8 -10 -15 -15 -15 -5 0 -9 -7 -9 -15 0 -8 -8 -19 -19 -24 -13 -7
-17 -18 -14 -34 3 -14 0 -28 -6 -31 -6 -4 -11 -33 -11 -64 0 -41 -6 -64 -20
-82 -23 -30 -25 -40 -6 -40 23 0 35 -24 41 -84 6 -66 20 -91 91 -161 28 -27
69 -82 92 -121 41 -71 56 -84 93 -84 32 0 21 -17 -15 -24 -19 -4 -39 -13 -46
-21 -6 -8 -33 -22 -58 -31 -26 -10 -53 -22 -59 -27 -11 -8 -86 -45 -158 -78
-11 -5 -32 -17 -47 -27 -112 -71 -182 -112 -194 -112 -7 0 -16 -5 -19 -11 -4
-5 -17 -14 -29 -19 -13 -4 -29 -22 -38 -39 -16 -34 -114 -118 -161 -139 -33
-14 -129 -16 -155 -3 -72 38 -120 49 -156 35 -26 -10 -18 -24 12 -24 16 0 37
-7 48 -16 18 -14 16 -15 -30 -10 -27 3 -66 6 -87 6 -28 0 -39 4 -39 15 0 10
-9 15 -27 14 -25 0 -26 -1 -8 -9 15 -6 7 -9 -30 -8 -58 0 -125 15 -125 27 0
16 32 22 48 9 12 -10 16 -10 19 0 3 8 33 12 101 13 54 0 106 4 117 8 l20 8
-20 6 c-11 3 -40 9 -65 13 -52 8 -110 48 -110 76 0 15 5 18 20 14 11 -3 29 -9
40 -12 12 -3 17 -10 13 -17 -4 -7 4 -5 18 5 34 22 234 33 319 18 67 -12 120
-6 120 14 0 16 -184 42 -230 33 -41 -9 -80 1 -80 19 0 8 -12 19 -26 24 -21 8
-33 6 -63 -12 -22 -14 -54 -23 -81 -24 -241 -7 -386 2 -439 29 -19 9 -41 17
-49 17 -12 0 -12 3 -2 15 7 9 19 14 26 11 7 -3 27 -1 44 4 17 5 83 10 148 11
151 2 301 16 329 31 17 8 55 7 160 -5 76 -8 147 -15 158 -14 11 0 47 -3 81 -7
50 -6 63 -5 74 9 12 15 12 19 -5 31 -22 16 -155 20 -171 4 -10 -10 -77 9 -96
28 -7 7 -24 12 -40 12 -34 0 -79 20 -72 32 3 4 -2 11 -10 14 -16 6 -22 24 -8
24 4 0 20 -11 36 -25 l29 -25 11 22 c10 20 7 24 -35 46 -38 19 -48 29 -53 56
-8 39 -47 61 -89 50 -17 -4 -27 -2 -27 5 0 6 -7 11 -15 11 -8 0 -21 14 -30 30
-11 21 -23 30 -40 30 -17 0 -23 -4 -19 -14 3 -8 0 -17 -6 -21 -16 -10 17 -45
42 -45 10 0 18 -5 18 -11 0 -8 -13 -9 -42 -4 -24 4 -81 9 -128 11 -114 5 -159
10 -167 18 -3 3 -19 6 -35 6 -15 0 -36 4 -46 9 -61 31 -166 40 -247 21 -27 -6
-53 -6 -80 2 -22 6 -56 12 -75 14 -19 1 -56 5 -82 9 -36 6 -50 4 -62 -8 -16
-16 -36 -15 -201 5 -49 7 -124 12 -166 13 -72 1 -76 0 -72 -19 4 -17 3 -18 -6
-6 -10 15 -111 24 -111 11 0 -9 -74 -1 -80 9 -9 12 -80 -1 -80 -16 0 -22 -18
-26 -50 -9 -21 11 -44 14 -73 10 -98 -15 -129 -14 -134 6 -6 23 -36 25 -53 4
-9 -11 -16 -13 -24 -5 -15 15 -23 12 -29 -10 -6 -22 -28 -26 -59 -9 -14 8 -28
7 -49 -1 -33 -14 -34 -18 -14 -56 14 -27 13 -29 -7 -37 -12 -4 -29 -7 -37 -6
-20 3 -71 -21 -71 -33 0 -5 -8 -8 -17 -7 -10 1 -25 -1 -33 -4 -8 -3 -24 -8
-35 -10 -15 -4 -13 -5 7 -6 15 0 29 -5 32 -10 3 -4 27 -6 54 -3 36 3 59 -1 93
-18 39 -19 59 -21 184 -21 84 1 166 -4 206 -13 51 -11 94 -12 195 -4 159 11
192 11 246 -3 24 -5 59 -12 78 -13 163 -14 284 -35 335 -57 31 -14 147 -39
180 -39 18 0 35 -7 42 -18 6 -11 35 -24 69 -32 33 -7 64 -17 71 -22 6 -5 13
-5 15 0 1 5 32 12 67 16 50 6 62 4 59 -6 -3 -7 -16 -14 -29 -15 -63 -5 -104
-19 -101 -34 2 -13 -12 -16 -85 -15 -49 1 -93 4 -99 8 -13 8 -173 10 -379 3
-136 -4 -152 -6 -167 -24 -15 -19 -18 -20 -45 -6 -15 8 -39 15 -53 15 -15 0
-30 4 -35 9 -13 11 -183 34 -196 25 -6 -3 -33 -6 -60 -6 -27 1 -47 -3 -44 -8
3 -4 -3 -11 -12 -15 -16 -5 -15 -8 7 -25 14 -11 35 -20 47 -20 12 0 25 -4 28
-10 3 -6 17 -10 31 -10 13 0 24 -4 24 -9 0 -12 125 -45 144 -38 8 3 18 2 21
-3 10 -16 111 -12 125 5 7 8 16 12 21 9 5 -3 9 0 9 7 0 10 3 10 12 1 17 -17
145 -16 151 1 3 9 9 7 24 -5 11 -10 26 -18 35 -18 8 0 32 -11 52 -25 20 -14
45 -25 56 -25 23 0 70 -20 70 -30 0 -24 160 -51 300 -50 106 1 157 -4 168 -14
3 -3 -4 -6 -16 -6 -11 0 -23 -4 -26 -9 -3 -5 22 -12 57 -15 107 -11 137 -17
150 -30 14 -14 126 -33 252 -42 44 -3 84 -10 89 -14 5 -5 -11 -14 -34 -20 -28
-8 -57 -26 -84 -55 -49 -51 -80 -61 -115 -36 -14 10 -31 16 -38 14 -6 -2 -26
3 -43 12 -18 9 -39 14 -47 11 -13 -5 -12 -9 6 -25 11 -10 21 -21 21 -25 0 -14
-22 -5 -46 19 -20 20 -26 22 -30 10 -4 -8 -17 -15 -30 -15 -14 0 -27 -6 -30
-14 -4 -10 -18 -13 -55 -9 -40 4 -49 2 -49 -11 0 -9 6 -18 13 -20 6 -2 29 -9
49 -15 21 -7 44 -9 50 -4 27 17 191 30 266 22 50 -6 81 -5 95 2 14 8 31 8 59
0 32 -10 41 -9 53 3 19 19 19 36 0 36 -8 0 -15 -7 -15 -15 0 -20 -7 -19 -32 5
l-22 20 27 0 c14 0 29 5 32 10 10 16 65 12 65 -5 0 -21 -21 -57 -43 -74 -14
-10 -17 -21 -13 -42 l5 -29 -64 3 c-55 2 -67 6 -89 30 -24 26 -66 37 -66 17 0
-5 6 -10 13 -10 6 0 19 -5 27 -10 13 -9 13 -11 0 -20 -21 -14 -24 -13 -53 14
-29 27 -87 45 -87 27 0 -6 7 -11 15 -11 10 0 15 -10 15 -33 0 -39 18 -59 75
-82 58 -25 27 -36 -76 -29 -71 5 -91 3 -112 -10 -25 -17 -85 -20 -236 -11 -63
4 -113 25 -59 25 15 0 30 5 34 11 3 6 16 8 28 5 27 -7 55 9 41 23 -13 13 -195
21 -217 9 -10 -5 -18 -15 -18 -22 0 -8 -7 -17 -15 -20 -9 -3 -15 -12 -13 -20
2 -8 0 -15 -4 -15 -23 -2 -31 0 -25 6 11 10 -14 33 -35 33 -16 0 -19 -5 -14
-23 9 -39 -51 -59 -102 -34 -18 8 -28 8 -44 -2 -17 -11 -22 -10 -29 1 -7 11
-12 11 -29 0 -14 -8 -26 -10 -33 -4 -7 5 -36 10 -66 11 -29 0 -59 5 -65 10
-10 8 -81 16 -113 12 -21 -2 -15 -39 7 -46 11 -3 20 -10 20 -14 0 -3 8 -7 18
-8 9 -1 37 -4 62 -7 25 -3 61 -8 80 -11 75 -10 102 -18 90 -25 -7 -4 -9 -13
-5 -20 6 -9 9 -9 16 1 6 10 13 10 31 2 16 -7 30 -7 46 0 17 8 29 7 43 -1 10
-7 32 -12 48 -12 15 0 73 -11 127 -25 54 -14 130 -29 169 -35 38 -5 90 -14
115 -19 27 -5 51 -6 62 0 22 12 75 11 98 -1 15 -8 21 -6 30 10 8 15 17 18 43
14 30 -5 31 -5 13 10 -11 9 -30 16 -42 16 -35 0 -84 12 -84 21 0 4 33 6 73 5
165 -7 270 21 129 35 -36 3 -70 13 -80 22 -10 10 -23 17 -28 17 -5 0 -20 9
-34 20 l-25 19 90 -3 c50 -2 100 -4 112 -5 12 0 24 -10 28 -20 3 -11 19 -22
36 -26 35 -8 61 -45 31 -45 -10 0 -30 -9 -43 -21 -32 -28 -66 -40 -94 -33 -24
6 -43 -10 -25 -21 20 -12 9 -33 -21 -39 -27 -5 -30 -9 -25 -31 5 -20 3 -25
-14 -25 -23 0 -27 -18 -6 -26 8 -3 45 -6 83 -7 83 -2 87 -21 6 -24 -96 -4
-148 -23 -182 -65 -11 -15 -11 -21 -1 -33 14 -17 13 -18 -55 -19 -36 -1 -50
-5 -53 -16 -2 -11 6 -16 24 -18 15 -1 35 -9 44 -17 17 -16 50 -21 50 -7 0 4
14 13 31 21 17 7 38 22 48 32 11 12 24 17 35 13 14 -5 15 -9 4 -15 -10 -7 -9
-9 5 -9 9 0 17 7 17 15 0 11 11 15 40 15 22 0 40 5 40 10 0 6 6 10 14 10 7 0
19 7 26 15 6 8 59 38 117 66 57 28 107 57 110 65 5 12 36 25 96 38 15 4 27 13
27 20 0 14 21 26 46 26 8 0 14 -7 14 -15 0 -9 -9 -15 -25 -15 -28 0 -34 -17
-9 -27 10 -4 -1 -14 -38 -32 -29 -14 -59 -31 -67 -39 -7 -7 -26 -16 -42 -19
-16 -3 -29 -9 -29 -13 0 -8 -78 -43 -100 -44 -8 -1 -15 -10 -15 -21 0 -28 -15
-47 -31 -41 -7 3 -18 -4 -24 -14 -6 -11 -16 -20 -22 -20 -7 0 -24 -12 -40 -26
-21 -21 -25 -31 -17 -45 5 -11 21 -19 34 -19 26 0 32 -9 15 -26 -6 -6 -7 -25
-4 -42 6 -28 9 -31 23 -20 9 6 6 1 -6 -12 -18 -20 -24 -21 -37 -10 -13 10 -16
10 -16 -4 0 -10 5 -14 10 -11 13 8 13 -35 1 -54 -6 -9 -6 -22 1 -35 8 -15 8
-21 -1 -24 -18 -6 -13 -19 12 -27 14 -4 17 -8 9 -12 -7 -3 -20 -2 -30 3 -9 4
-23 6 -29 5 -7 -1 -13 2 -14 6 -2 20 -9 51 -16 70 -6 16 -13 19 -30 12 -26
-10 -30 -27 -8 -35 21 -8 19 -31 -4 -39 -11 -3 -22 -12 -25 -20 -3 -8 -12 -15
-20 -15 -7 0 -16 -7 -20 -15 -8 -23 -42 -18 -64 10 -11 14 -23 25 -26 25 -12
0 -5 -16 20 -45 14 -16 29 -35 32 -42 4 -6 27 -15 52 -18 25 -4 56 -9 70 -12
14 -2 38 -4 54 -3 22 0 27 -3 22 -16 -3 -8 -6 -18 -6 -20 0 -3 -4 -2 -10 1 -6
4 -10 -7 -10 -24 0 -20 5 -31 14 -31 17 0 28 -52 13 -62 -20 -13 -31 -9 -70
24 -30 27 -47 33 -95 36 -78 5 -118 5 -175 0 -36 -3 -50 -1 -58 11 -8 13 -9
14 -8 1 1 -8 -2 -34 -6 -57 -5 -30 -12 -43 -24 -42 -9 0 -11 3 -4 5 9 4 9 13
1 36 -9 26 -13 28 -22 16 -6 -8 -19 -17 -28 -21 -19 -7 -25 -37 -8 -37 18 0
11 -15 -25 -57 -51 -60 -44 -88 18 -76 23 5 27 2 27 -19 0 -32 29 -58 65 -58
16 0 36 -7 45 -15 20 -18 47 -11 53 13 2 11 11 0 25 -30 12 -26 30 -52 40 -57
13 -8 7 -10 -30 -11 -27 0 -48 5 -50 12 -3 8 -11 9 -24 3 -33 -15 -57 -13 -92
7 l-35 19 5 -25 c4 -17 1 -23 -9 -19 -7 3 -13 11 -13 19 0 8 -9 14 -20 14 -32
0 -25 -34 10 -47 49 -18 38 -40 -21 -42 -42 -1 -50 1 -45 14 3 10 -1 15 -13
15 -10 0 -22 -7 -25 -16 -9 -25 -7 -64 4 -64 6 0 10 7 10 15 0 8 7 15 15 15 8
0 15 -6 15 -13 0 -14 15 -17 102 -20 31 -1 58 -4 60 -7 1 -3 9 -15 15 -27 l13
-23 -93 5 c-50 3 -100 8 -109 11 -10 3 -27 3 -37 -1 -20 -6 -48 -61 -43 -83 2
-8 -2 -20 -8 -27 -7 -8 -9 -23 -5 -34 3 -10 1 -22 -5 -26 -6 -4 -16 -18 -21
-32 -5 -14 -18 -27 -29 -30 -30 -8 -24 -20 12 -27 21 -4 28 -10 22 -16 -6 -6
-22 -6 -43 0 -19 5 -37 7 -42 5 -4 -3 -20 0 -36 6 -15 7 -41 14 -58 16 -48 7
-172 12 -145 6 14 -3 31 -10 38 -15 7 -6 15 -8 19 -4 4 3 16 -2 27 -13 28 -25
114 -38 282 -40 l142 -2 73 34 c41 19 91 38 112 41 20 4 37 11 37 16 0 4 21
21 48 36 26 15 50 31 53 36 3 4 29 14 57 20 29 7 52 16 52 20 0 5 -4 8 -10 8
-25 0 -6 18 33 30 43 14 217 29 217 20 0 -4 17 -12 38 -20 l37 -14 -45 -7
c-25 -4 -94 -8 -155 -9 -94 -1 -106 -3 -83 -13 14 -7 34 -19 45 -28 35 -30 78
-40 169 -37 63 2 88 6 87 15 -4 20 34 34 79 31 59 -4 63 -28 4 -28 -25 0 -46
-4 -46 -10 0 -5 -6 -10 -13 -10 -7 0 -18 -9 -25 -21 -12 -19 -19 -20 -115 -15
-56 4 -118 9 -138 12 -26 4 -40 1 -52 -11 -9 -9 -17 -13 -17 -8 0 4 -4 2 -9
-6 -13 -21 -3 -40 19 -34 10 3 29 -2 41 -10 13 -9 41 -19 62 -22 20 -4 37 -11
37 -16 0 -5 13 -9 29 -9 19 0 30 -6 33 -18 5 -19 50 -32 115 -32 46 0 62 8 56
31 -3 10 -9 19 -13 19 -4 0 -11 7 -14 16 -5 14 -1 16 23 11 30 -6 94 14 106
33 3 5 14 10 24 10 10 0 28 11 40 24 15 16 29 22 43 18 17 -4 20 -2 15 11 -5
13 -1 17 18 17 39 0 30 -26 -26 -81 -47 -46 -114 -89 -138 -89 -6 0 -22 -11
-37 -25 -15 -14 -39 -28 -53 -30 -14 -3 -45 -10 -69 -15 -23 -6 -53 -10 -65
-10 -13 0 -28 -5 -35 -12 -11 -11 -451 -21 -792 -19 -63 1 -127 1 -143 2 -99
0 102 48 214 50 l54 1 -54 13 c-30 8 -63 10 -75 6 -25 -9 -56 -3 -56 10 0 5
-9 9 -19 9 -11 0 -22 4 -25 8 -8 14 -76 13 -76 -1 0 -15 -111 -17 -123 -2 -6
7 -10 6 -14 -2 -2 -7 -11 -13 -19 -13 -9 0 -13 4 -10 9 4 5 4 16 1 23 -4 11
-20 14 -63 11 -93 -5 -121 -13 -115 -30 4 -11 2 -14 -8 -11 -8 3 -22 1 -32 -4
-12 -6 -17 -5 -15 3 5 22 -30 21 -51 0 -28 -28 -26 -37 7 -44 18 -4 43 -25 72
-62 42 -52 47 -55 80 -50 19 3 91 8 159 10 69 3 127 8 130 13 7 10 121 36 128
29 9 -10 -9 -29 -22 -23 -21 8 -49 -19 -41 -39 4 -11 0 -25 -9 -35 -18 -20
-58 -208 -49 -230 4 -8 8 -19 8 -25 1 -5 11 -15 24 -21 12 -6 28 -18 35 -26
15 -18 93 -78 101 -78 9 0 75 -32 156 -76 87 -47 182 -77 192 -61 4 6 10 8 15
4 4 -5 1 -12 -6 -16 -10 -7 -11 -13 -2 -30 7 -11 16 -21 20 -21 5 0 11 -8 13
-18 4 -16 23 -24 107 -48 9 -3 6 -10 -10 -24 -13 -11 -18 -19 -11 -20 6 0 12
-5 12 -10 0 -12 -38 8 -58 30 -7 8 -11 9 -7 2 4 -7 1 -19 -5 -27 -9 -11 -9
-15 -1 -15 6 0 11 6 12 13 0 6 5 2 11 -10 6 -13 14 -23 19 -23 4 0 28 -9 54
-20 37 -16 45 -23 36 -34 -14 -17 -4 -26 30 -26 32 0 44 -13 32 -35 -5 -8 -7
-33 -5 -56 4 -39 6 -41 32 -35 42 8 58 -17 25 -38 -14 -9 -25 -23 -25 -31 0
-15 27 -33 57 -38 24 -4 43 -16 43 -28 0 -6 -4 -8 -9 -5 -5 3 -11 -1 -15 -9
-3 -8 0 -15 5 -15 6 0 9 -9 6 -20 -3 -10 1 -24 8 -30 18 -15 28 15 14 42 -9
16 -7 24 5 36 15 15 16 14 16 -11 0 -17 5 -27 15 -27 7 0 18 -6 22 -14 11 -18
53 -40 53 -27 0 22 84 101 107 101 32 0 19 -27 -17 -35 -19 -4 -27 -11 -25
-23 2 -9 4 -23 4 -29 1 -7 7 -13 15 -13 7 0 35 -11 61 -26 26 -14 53 -23 60
-20 7 2 12 -3 11 -12 0 -9 6 -17 14 -18 27 -1 115 -16 123 -21 4 -2 -7 -16
-23 -30 -36 -30 -34 -38 6 -22 16 6 38 15 49 20 11 4 31 11 45 15 26 7 80 57
80 74 0 15 30 12 36 -4 10 -25 -9 -44 -91 -96 -44 -27 -75 -51 -70 -52 37 -5
111 -2 116 5 9 12 29 0 29 -17 0 -7 -22 -16 -52 -22 -60 -10 -71 -33 -30 -60
24 -16 24 -18 8 -30 -21 -15 -13 -34 13 -34 12 0 18 7 17 17 -1 14 6 18 34 16
19 -1 36 -6 38 -12 2 -6 16 -11 30 -11 l27 -1 -30 -16 c-20 -11 -30 -12 -33
-4 -4 13 -22 15 -22 2 0 -10 57 -36 80 -37 52 -2 140 -18 140 -25 0 -5 14 -9
31 -9 17 0 28 -4 24 -10 -3 -5 -2 -10 4 -10 5 0 13 5 16 10 3 6 25 10 48 10
23 1 69 8 102 16 91 24 115 27 115 16 0 -5 -9 -12 -20 -15 -13 -3 -18 -11 -14
-20 3 -8 -2 -17 -10 -20 -9 -4 -16 -11 -16 -16 0 -16 44 0 73 27 27 26 36 17
17 -19 -8 -14 -7 -19 2 -19 15 0 41 96 31 114 -3 6 -3 8 2 4 4 -4 18 6 32 22
13 16 33 32 43 35 11 4 20 13 20 21 0 8 7 14 15 14 8 0 15 5 15 12 0 17 48 57
77 64 14 4 23 14 23 25 0 11 11 24 25 31 14 6 25 20 25 31 0 18 -6 19 -117 13
-164 -9 -325 -22 -343 -29 -8 -3 -41 -8 -72 -11 -46 -5 -58 -3 -58 8 0 10 -13
14 -45 14 -53 -1 -75 13 -56 36 16 19 1 28 -47 26 -61 -3 -82 -1 -82 10 0 6
25 10 55 10 50 0 57 3 67 25 14 32 40 38 111 26 4 0 7 -7 7 -14 0 -8 8 -13 18
-12 24 2 62 28 62 42 0 7 6 13 14 13 8 0 16 7 20 15 3 8 28 31 56 51 27 20 50
40 50 44 0 14 -34 16 -45 3 -13 -16 -41 0 -30 17 6 9 10 9 17 -1 8 -11 9 -10
4 4 -8 26 110 141 159 153 26 6 34 29 13 36 -15 5 -1 28 18 28 8 0 14 -10 14
-26 0 -22 3 -25 23 -20 12 3 27 6 32 6 6 0 4 4 -3 8 -15 10 -5 45 12 39 6 -2
16 -12 21 -23 6 -10 19 -34 28 -52 10 -19 22 -30 29 -26 7 5 5 12 -7 21 -17
12 -15 13 18 13 20 0 37 4 37 9 0 11 75 51 94 51 20 0 143 67 187 102 20 15
41 28 47 28 6 0 23 7 39 15 35 18 167 57 185 54 28 -3 38 2 38 21 0 22 12 25
40 10 13 -7 41 -6 88 2 56 9 78 9 118 -2 l49 -14 -90 -11 c-59 -8 -107 -21
-141 -38 -28 -14 -77 -35 -109 -46 -81 -29 -177 -91 -171 -113 3 -14 -4 -17
-37 -16 -23 0 -43 -5 -45 -11 -2 -6 -10 -11 -17 -11 -20 0 -27 -17 -16 -38 11
-20 -9 -32 -89 -52 -68 -17 -110 -33 -110 -42 0 -4 -5 -8 -10 -8 -6 0 -21 -11
-33 -24 -40 -42 -68 -52 -242 -82 -22 -4 -46 -6 -52 -5 -7 1 -13 -2 -13 -8 0
-5 20 -8 44 -7 37 2 43 0 38 -16 -4 -18 22 -27 32 -10 3 5 39 9 81 10 71 1 81
4 126 37 27 19 53 35 58 35 5 0 14 6 20 14 7 8 43 24 81 35 38 12 73 27 77 34
4 7 27 21 51 32 24 10 47 26 52 34 5 9 21 17 37 18 15 2 49 5 76 9 40 5 47 3
47 -11 0 -12 -8 -16 -27 -14 -42 3 -78 -10 -102 -37 -11 -13 -28 -24 -36 -24
-23 0 -18 -17 8 -22 38 -7 71 6 77 32 6 25 24 31 93 33 36 1 38 3 35 28 -3 16
0 27 6 26 6 -1 11 10 10 25 -1 19 3 25 13 21 12 -5 12 -7 1 -14 -10 -7 -9 -9
5 -9 9 0 17 5 17 12 0 6 3 8 7 4 5 -4 -1 -14 -11 -22 -18 -12 -12 -14 55 -14
116 1 129 0 129 -10 0 -6 -3 -9 -8 -8 -4 2 -18 -7 -32 -19 -25 -24 -69 -30
-86 -13 -7 7 -16 4 -29 -10 -10 -11 -24 -20 -31 -20 -7 0 -29 -9 -48 -21 -23
-13 -43 -18 -57 -14 -18 6 -21 4 -17 -12 3 -13 -2 -24 -13 -31 -15 -10 -17 -9
-13 3 5 12 2 12 -20 2 -29 -13 -29 -34 0 -29 29 6 167 -20 189 -35 11 -7 32
-13 47 -13 16 0 28 -4 28 -10 0 -5 9 -14 20 -20 27 -14 100 5 100 26 0 8 4 13
9 10 5 -3 11 0 14 8 3 7 24 16 47 20 62 10 83 23 76 49 -3 13 2 29 12 41 17
19 16 19 -33 13 -27 -4 -59 -8 -70 -9 -14 -2 -20 3 -20 17 0 11 9 21 20 25 11
3 32 13 47 23 21 15 37 17 68 12 43 -7 65 -25 31 -25 -13 0 -21 -7 -21 -16 0
-13 6 -15 28 -9 15 4 54 8 87 7 33 0 74 0 90 0 49 2 78 1 120 -1 22 -1 101 2
175 6 122 8 140 6 187 -12 29 -11 53 -23 53 -27 0 -4 -15 -24 -34 -44 -19 -21
-32 -43 -29 -51 3 -7 -1 -13 -8 -13 -11 0 -11 -3 1 -10 10 -6 11 -10 3 -10 -7
0 -13 -7 -13 -15 0 -8 -5 -15 -11 -15 -6 0 -8 -9 -4 -20 5 -14 2 -20 -10 -20
-9 0 -13 -5 -10 -11 4 -6 14 -8 22 -4 13 5 14 3 3 -10 -11 -13 -10 -19 8 -36
23 -21 29 -39 12 -39 -5 0 -10 -4 -10 -10 0 -5 14 -10 31 -10 16 0 28 -4 25
-9 -9 -13 3 -39 21 -45 12 -5 14 0 11 29 -4 31 -2 34 18 29 34 -9 52 6 29 23
-18 12 -18 13 4 13 19 0 23 -4 19 -25 -3 -15 2 -33 12 -45 22 -26 30 -25 23 1
-4 13 0 26 9 33 8 6 17 19 21 29 4 11 17 17 36 17 20 0 34 7 41 20 11 21 40
28 40 10 0 -5 7 -10 15 -10 8 0 15 6 15 14 0 7 24 21 54 30 42 13 56 23 58 39
2 16 9 21 27 19 17 -1 22 2 17 13 -6 18 -5 18 28 5 17 -6 27 -6 32 1 4 7 10 6
19 -1 9 -8 15 -8 20 0 3 5 -1 10 -9 10 -9 0 -16 7 -16 16 0 12 6 15 21 11 24
-6 49 13 49 37 0 9 8 16 19 16 12 0 21 9 25 26 5 20 12 25 26 21 11 -3 23 -1
26 4 9 16 64 11 64 -6 0 -11 -8 -15 -27 -13 -21 2 -28 -2 -31 -17 -5 -24 -22
-37 -39 -30 -7 2 -13 -2 -13 -10 0 -7 9 -17 20 -20 11 -3 20 -13 20 -21 0 -8
9 -14 21 -14 13 0 18 4 13 12 -4 7 -3 10 1 5 5 -4 17 1 27 10 13 12 22 13 29
6 16 -16 2 -33 -27 -33 -14 0 -24 -6 -24 -14 0 -25 28 -25 54 -1 28 26 33 50
14 59 -10 5 -10 7 0 12 6 3 12 10 12 16 0 10 -37 7 -72 -7 -11 -4 -18 -3 -18
4 0 6 9 11 19 11 35 0 52 12 66 46 10 26 20 34 39 34 19 0 23 4 19 19 -4 15 5
22 40 34 48 16 57 14 57 -13 0 -17 -25 -33 -67 -45 -13 -4 -23 -13 -23 -21 0
-8 -11 -19 -25 -24 -30 -11 -33 -30 -5 -30 11 0 20 5 20 10 0 15 47 12 54 -2
3 -9 8 -8 16 5 9 14 15 15 32 6 22 -12 34 -4 40 26 2 11 13 21 25 23 15 2 20
8 16 19 -5 12 -3 14 7 8 9 -5 11 -4 6 4 -4 6 -2 18 4 26 10 12 9 16 -2 20 -25
10 -16 36 14 42 29 6 39 23 13 23 -8 0 -15 7 -15 16 0 14 7 16 40 11 34 -4 37
-3 26 9 -8 7 -12 22 -9 33 3 11 -2 30 -11 42 -16 24 -7 49 19 49 19 0 38 27
25 35 -15 9 -12 25 5 25 11 0 14 7 9 24 -4 19 -1 26 15 31 11 3 25 4 30 1 12
-8 19 13 16 54 -3 45 25 72 66 63 24 -5 29 -2 29 15 0 11 -7 22 -15 24 -10 2
-12 7 -5 17 7 12 11 10 21 -12 16 -35 39 -34 80 4 22 20 35 26 39 18 8 -11 41
5 83 39 16 14 16 16 0 34 -15 17 -15 20 5 38 22 21 42 26 42 11 0 -5 -7 -11
-15 -15 -19 -7 -19 -36 0 -36 8 0 15 4 15 8 0 5 34 44 75 87 41 43 75 84 75
91 0 7 9 15 19 19 14 4 19 15 19 34 -1 15 2 33 6 40 4 6 2 11 -3 11 -27 0 6
50 77 114 17 16 32 35 32 41 0 6 11 21 25 33 14 12 25 26 25 31 0 5 12 14 28
19 15 6 21 11 15 11 -7 1 -13 10 -13 21 0 14 7 20 24 20 13 0 42 15 64 33 21
17 56 46 77 62 21 17 48 41 59 54 49 55 59 63 74 59 14 -4 17 3 17 44 0 32 -4
48 -12 48 -7 0 -13 -4 -13 -10 0 -5 -7 -10 -15 -10 -8 0 -15 -4 -15 -10 0 -5
-9 -10 -20 -10 -40 0 -18 36 71 115 142 126 351 334 345 344 -3 4 -29 11 -57
15 -28 4 -58 13 -65 21 -17 17 -18 25 -1 25 6 0 21 8 32 16 19 14 19 16 3 28
-28 21 -21 36 13 34 35 -3 51 17 20 25 -11 3 -22 17 -26 36 -6 30 -14 36 -44
31 -8 -1 -20 5 -25 12 -21 28 -65 50 -88 43 -17 -4 -19 -3 -8 3 8 6 57 14 108
20 52 5 99 15 105 22 9 9 -23 11 -143 8 -122 -4 -168 -9 -215 -25 -33 -11 -94
-28 -135 -38 -41 -9 -79 -20 -85 -24 -5 -4 -35 -13 -65 -21 -30 -7 -73 -24
-96 -36 -23 -13 -61 -26 -85 -30 -24 -4 -62 -15 -84 -24 -83 -35 -325 -61
-325 -34 0 16 18 21 105 30 43 4 88 16 116 31 26 13 70 27 98 32 28 4 59 15
69 23 9 8 37 21 62 28 40 12 95 43 110 61 3 3 23 10 45 15 23 6 40 16 40 24 0
14 30 25 93 35 18 3 40 12 48 20 9 8 22 15 30 15 22 0 92 38 101 55 5 8 33 21
63 28 30 8 53 18 50 23 -3 5 -9 7 -15 5 -5 -2 -43 -8 -83 -14 -40 -5 -70 -12
-68 -14 8 -8 -34 -43 -51 -43 -10 0 -31 -8 -48 -18 -16 -10 -55 -27 -85 -37
-30 -11 -62 -25 -71 -33 -9 -7 -41 -22 -70 -33 -30 -12 -61 -26 -69 -33 -8 -7
-37 -19 -65 -26 -27 -7 -54 -18 -60 -25 -5 -6 -26 -15 -45 -18 -19 -4 -66 -13
-104 -21 -67 -14 -96 -12 -96 4 0 10 36 20 72 20 15 0 37 4 50 10 13 5 64 25
113 44 50 20 113 47 140 60 28 14 56 26 63 26 8 0 25 9 39 20 14 11 32 20 39
20 28 0 94 33 94 46 0 19 41 34 91 34 23 0 38 4 36 11 -1 6 30 22 68 35 39 13
82 30 96 39 15 8 58 22 95 30 38 9 92 24 119 35 28 10 62 22 78 25 18 3 27 12
27 24 0 12 12 23 33 31 17 7 46 24 64 37 34 24 121 67 213 103 30 12 60 26 67
31 6 6 49 14 95 19 90 9 118 17 118 32 0 5 -4 6 -10 3 -5 -3 -10 -2 -10 4 0 5
8 15 18 21 15 10 14 10 -5 5 -15 -4 -29 2 -47 20 -22 22 -31 24 -66 19 -22 -4
-43 -11 -46 -15 -3 -5 -17 -9 -32 -9 -15 0 -45 -9 -67 -20 -22 -11 -49 -20
-62 -20 -12 0 -25 -4 -28 -10 -3 -5 -26 -10 -50 -10 -25 0 -45 -5 -48 -12 -4
-10 -7 -10 -14 -1 -5 7 -23 13 -41 15 -38 3 -42 13 -7 22 14 4 23 11 20 16 -4
6 -16 5 -33 -3 -16 -8 -45 -12 -70 -9 -26 2 -48 -1 -58 -9 -14 -12 -12 -15 17
-24 18 -6 56 -10 83 -8 28 1 57 -1 65 -6 16 -10 6 -31 -15 -31 -9 0 -25 -5
-37 -12 -12 -7 -33 -11 -45 -9 -20 2 -23 -1 -18 -16 6 -18 2 -19 -42 -15 -50
4 -136 -25 -144 -48 -2 -6 -19 -11 -38 -13 -19 -1 -41 -8 -48 -14 -11 -11 -8
-13 16 -13 17 0 32 -5 34 -11 3 -8 15 -8 46 0 34 10 47 9 69 -3 16 -8 25 -15
22 -16 -32 -2 -145 -27 -234 -52 -90 -26 -115 -37 -141 -64 -17 -19 -40 -34
-50 -34 -11 0 -40 -11 -66 -24 -26 -13 -70 -27 -98 -31 -45 -6 -50 -9 -44 -27
7 -22 -9 -38 -39 -38 -11 0 -30 -9 -44 -20 -14 -11 -37 -20 -50 -20 -27 0 -82
-23 -123 -50 -14 -10 -38 -20 -55 -24 -16 -4 -37 -14 -46 -22 -21 -19 -139
-34 -311 -38 -118 -3 -149 -1 -159 10 -6 8 -22 14 -35 14 -13 0 -24 3 -24 8 0
4 -17 8 -37 8 -21 0 -50 3 -65 7 -22 6 -28 4 -28 -8 0 -19 -9 -19 -47 0 -37
18 -57 41 -49 53 3 5 -8 12 -24 16 -22 4 -30 11 -30 26 0 11 -6 30 -12 43 -7
12 -13 23 -14 25 -1 1 -9 -1 -18 -4 -14 -5 -16 -14 -11 -40 7 -39 -5 -45 -21
-10 -14 30 -7 76 13 83 7 3 22 -2 33 -12 10 -9 24 -14 30 -10 11 7 -44 65 -62
65 -5 0 -36 -27 -68 -60 -32 -33 -61 -60 -64 -60 -13 0 -5 20 20 50 21 24 25
37 20 61 -6 33 18 94 34 84 13 -8 61 6 54 16 -3 5 -17 9 -32 9 l-27 1 25 14
c14 8 22 14 18 15 -4 0 -2 13 3 29 14 38 42 32 33 -8 l-6 -26 26 29 c15 17 24
36 22 43 -3 7 -1 13 4 13 5 0 12 11 16 25 3 14 10 25 15 25 5 0 9 5 9 11 0 6
7 17 15 25 8 9 15 26 15 40 0 23 18 49 66 100 15 16 18 26 11 33 -7 7 -6 15 3
25 7 9 10 26 6 41 -5 20 0 32 23 55 41 42 72 40 35 -1 -9 -10 -14 -24 -11 -31
2 -7 5 -17 7 -23 7 -33 21 -44 44 -35 14 5 41 6 60 3 39 -6 68 10 59 32 -6 16
38 31 63 21 13 -5 15 -15 11 -41 -6 -40 5 -55 83 -115 25 -19 47 -38 48 -42 2
-5 9 -8 16 -8 8 0 11 -10 8 -29 -2 -16 1 -32 7 -35 6 -4 11 -16 11 -26 0 -13
9 -22 28 -26 15 -3 37 -11 50 -17 17 -8 25 -8 34 1 16 16 31 15 25 -1 -4 -10
2 -13 18 -9 26 5 38 -8 25 -28 -9 -15 -85 -16 -104 -2 -24 19 -96 42 -96 31 0
-17 49 -71 77 -86 30 -16 133 -17 165 -2 13 5 31 23 40 40 l17 29 108 1 c269
3 260 3 282 25 15 17 36 23 100 28 45 4 81 11 81 15 0 19 -28 30 -61 25 -35
-6 -39 -4 -78 41 -11 14 -10 18 5 31 11 7 29 17 41 20 12 3 24 12 27 20 11 29
49 33 142 13 49 -10 100 -21 114 -23 14 -2 32 -6 40 -10 8 -3 35 -2 60 3 l45
9 -45 2 -45 2 35 7 c83 16 75 37 -18 46 -37 4 -108 18 -159 31 -50 13 -118 27
-151 30 -55 6 -62 4 -102 -25 -39 -28 -48 -31 -93 -25 -42 6 -122 46 -147 73
-31 35 -99 64 -142 63 -16 0 -33 7 -40 17 -12 16 -76 30 -157 35 -32 1 -40 26
-9 26 13 0 28 -4 34 -9 16 -16 154 -18 154 -2 0 5 -10 11 -22 14 -94 23 -119
31 -168 55 -30 14 -74 41 -97 58 -58 44 -193 94 -283 104 -80 9 -170 42 -170
61 0 7 -15 30 -33 53 -19 23 -46 64 -62 91 -15 28 -30 52 -34 55 -4 3 -35 41
-70 85 -35 44 -71 84 -80 88 -9 5 -27 24 -41 42 -14 19 -34 37 -45 41 -66 21
-210 96 -273 141 -85 62 -173 104 -213 101 -16 -1 -29 -6 -29 -10 0 -4 -9 -8
-20 -8 -15 0 -20 7 -20 25 0 14 9 30 20 37 11 7 20 18 20 25 0 7 7 13 15 13 9
0 27 7 41 16 18 13 22 20 14 30 -9 10 -5 13 17 16 22 2 29 9 31 31 2 16 -4 39
-12 52 -9 13 -16 33 -16 44 0 32 41 11 104 -53 42 -43 65 -58 111 -71 56 -17
118 -14 130 5 3 5 -21 16 -52 24 -105 29 -183 80 -183 118 0 10 -5 18 -11 18
-6 0 -4 7 5 15 8 8 22 15 30 15 11 0 16 9 16 30 0 23 -4 30 -20 30 -13 0 -24
10 -31 26 -9 24 -11 25 -27 11 -18 -16 -61 -25 -155 -34 -57 -5 -58 -5 -80
-51 -20 -43 -22 -62 -23 -232 0 -102 -4 -201 -8 -220 -4 -19 -3 -46 2 -59 8
-24 2 -89 -13 -125 -7 -15 -5 -18 8 -13 14 5 15 -7 15 -94 0 -54 -4 -102 -9
-105 -15 -9 -10 -33 11 -54 15 -15 18 -29 15 -66 -4 -32 0 -55 10 -70 19 -30
19 -80 0 -88 -17 -6 -20 -51 -5 -61 6 -3 10 -15 10 -26 0 -10 7 -19 15 -19 10
0 12 -6 8 -17 -9 -24 -25 -38 -43 -38 -8 0 -16 -10 -18 -22 -3 -18 2 -23 17
-23 14 0 21 -6 21 -20 0 -27 3 -27 -71 11 -15 7 -24 7 -34 -1 -8 -6 -22 -10
-32 -9 -10 1 -30 -1 -45 -5 -32 -9 -58 2 -37 15 12 7 12 9 0 9 -7 0 -24 12
-37 26 -17 18 -30 23 -44 19 -17 -5 -20 -2 -20 22 0 27 -3 29 -36 29 -19 0
-39 6 -43 12 -6 10 -14 9 -36 -2 -16 -9 -39 -13 -51 -10 -12 3 -33 -1 -46 -9
-22 -14 -43 -15 -74 -3 -27 10 -14 22 26 23 44 2 60 9 60 25 0 6 -11 8 -25 6
-28 -6 -36 18 -10 28 8 3 23 21 34 39 18 31 25 34 73 37 50 4 51 4 21 12 -29
7 -33 13 -33 42 0 18 4 35 9 38 5 3 8 24 7 46 -2 32 1 40 13 37 11 -2 15 -12
14 -30 -1 -15 2 -27 7 -27 5 0 9 25 9 55 l-1 55 -27 -20 c-15 -10 -34 -26 -41
-35 -7 -8 -27 -15 -46 -15 -18 0 -36 -4 -39 -10 -3 -6 -14 -10 -24 -10 -10 0
-26 -10 -37 -22 -10 -12 -14 -18 -7 -15 13 8 28 -9 15 -17 -5 -3 -19 6 -30 19
-24 28 -34 30 -64 14 -16 -9 -18 -13 -7 -20 11 -6 10 -9 -4 -15 -9 -3 -23 -2
-30 3 -13 11 -136 11 -153 0 -22 -13 -85 -11 -94 3 -8 12 -13 13 -29 3 -12 -8
-22 -9 -26 -3 -3 5 4 14 15 20 25 13 26 40 3 41 -26 2 -26 2 -51 -6 -21 -6
-23 -4 -17 14 3 12 2 21 -2 21 -10 0 -9 88 1 97 3 4 6 1 6 -5 0 -7 6 -12 13
-12 8 0 13 13 13 34 0 36 14 55 57 73 19 9 27 20 27 37 0 31 14 40 40 26 11
-6 30 -8 41 -5 26 9 22 53 -6 69 -10 6 -26 17 -34 24 -8 8 -17 9 -20 4 -9 -14
-81 -2 -81 14 0 7 -10 18 -21 25 -21 11 -22 10 -15 -21 7 -36 -7 -62 -30 -53
-10 4 -11 10 -3 25 6 11 7 32 3 46 l-7 27 -6 -23 -6 -24 -27 22 c-26 20 -28
20 -39 2 -8 -12 -20 -17 -35 -14 -20 4 -24 0 -24 -19 0 -39 -16 -56 -38 -42
-15 9 -22 9 -31 0 -15 -15 -34 4 -29 29 2 13 11 18 24 16 35 -5 59 50 27 62
-18 7 -16 46 3 67 13 14 21 16 35 8 14 -7 21 -5 31 11 7 11 22 20 33 20 12 0
26 5 32 11 12 12 27 15 143 29 41 5 113 13 160 19 115 15 237 5 251 -20 5 -11
20 -19 32 -19 12 0 37 -14 55 -30 50 -46 70 -41 78 20 4 28 10 50 15 50 5 0 9
-4 9 -10 0 -5 3 -10 8 -10 11 0 32 75 21 78 -5 2 -9 12 -9 21 0 21 -39 41 -79
41 -19 0 -39 12 -68 44 -31 34 -44 41 -53 33 -9 -9 -14 -8 -24 6 -24 32 -36
19 -36 -38 0 -30 -4 -55 -9 -55 -6 0 -7 24 -4 55 l6 55 -47 0 c-34 0 -46 4
-46 15 0 8 -4 15 -10 15 -5 0 -13 0 -17 1 -13 0 -34 49 -27 60 4 8 9 8 14 -1
5 -8 18 -2 44 20 35 31 36 31 36 9 0 -18 3 -20 12 -11 9 9 9 15 0 24 -17 17
-15 39 4 53 27 19 -7 27 -41 9 -22 -11 -60 -13 -194 -8 -91 3 -218 7 -281 9
-63 1 -131 7 -150 12 -26 6 -52 4 -99 -9 -57 -16 -65 -16 -75 -2 -7 9 -28 15
-54 16 -34 0 -46 -5 -63 -25 -17 -23 -23 -25 -45 -15 -17 8 -28 8 -35 1 -8 -8
-21 -8 -43 -1 -17 5 -46 11 -65 13 -19 2 -37 9 -42 16 -13 22 7 53 39 61 37
10 62 46 41 59 -18 11 -29 11 -29 1 0 -14 -74 0 -87 17 -15 19 -17 51 -4 51
11 0 3 37 -15 65 -12 21 -9 37 16 71 22 30 34 35 104 41 48 4 72 1 97 -11 22
-11 59 -16 115 -16 46 0 85 -4 89 -9 3 -6 24 -4 53 6 26 8 62 15 80 14 17 0
32 4 32 9 0 6 16 10 35 10 21 0 38 6 41 14 3 7 22 21 42 31 20 9 52 33 69 54
122 137 135 148 191 154 41 5 54 3 59 -8 3 -8 12 -15 20 -15 8 0 29 -11 47
-25 18 -14 38 -25 44 -25 7 0 12 -12 12 -26 0 -36 17 -64 40 -64 11 0 20 -4
20 -10 0 -5 18 -10 39 -10 22 0 68 -7 102 -16 58 -15 64 -15 74 0 7 9 20 16
29 16 9 0 16 5 16 10 0 6 7 10 17 10 9 0 14 2 11 5 -3 3 -37 7 -76 9 -61 3
-75 7 -92 27 -10 13 -19 26 -20 30 0 6 181 29 230 29 19 0 54 -9 76 -19 38
-18 91 -26 138 -22 15 1 16 4 7 15 -10 12 1 15 79 18 50 2 95 2 100 0 16 -6
12 -39 -5 -46 -8 -3 -15 -1 -15 4 0 6 -7 10 -15 10 -8 0 -15 -7 -15 -16 0 -12
-6 -15 -26 -10 -19 5 -31 1 -45 -15 -10 -12 -19 -25 -19 -29 0 -3 -16 -12 -35
-20 -23 -9 -35 -20 -35 -33 0 -15 7 -18 38 -16 68 5 102 0 102 -15 0 -12 38
-25 80 -27 21 -1 61 -21 84 -41 11 -10 23 -18 27 -18 4 0 9 -21 11 -47 l3 -48
18 33 c20 36 40 38 45 4 2 -15 -2 -22 -12 -22 -9 0 -16 -4 -16 -10 0 -25 46 6
51 34 6 32 29 31 30 -1 1 -21 3 -23 6 -8 8 31 23 45 50 45 23 0 25 3 21 34 -2
19 -1 33 3 30 4 -2 9 2 12 8 4 10 7 11 18 1 18 -17 29 -16 29 3 0 20 24 44 44
44 23 0 46 42 41 72 -6 34 7 42 31 20 15 -14 23 -16 41 -8 29 14 30 33 1 32
-19 -1 -22 4 -20 23 3 32 8 36 27 21 8 -7 15 -9 15 -4 0 4 5 3 12 -4 16 -16
31 -15 21 1 -4 6 -13 26 -19 43 -9 27 -8 30 10 30 33 -1 27 36 -9 53 -16 8
-31 18 -33 23 -2 4 -10 8 -17 8 -15 0 -28 27 -19 42 4 6 22 8 40 5 41 -7 43 2
8 36 -23 23 -32 26 -96 24 l-70 -2 -19 39 c-10 22 -19 41 -19 43 0 2 18 3 39
3 49 0 71 8 71 26 0 8 6 14 14 14 17 0 28 24 20 45 -4 8 -13 15 -21 15 -8 0
-11 5 -8 10 8 14 -28 13 -42 -1 -12 -12 -37 -3 -29 10 3 4 -11 5 -30 3 -26 -3
-36 0 -41 14 -5 11 -17 19 -28 19 -14 0 -21 8 -23 28 -3 25 -1 27 22 21 15 -3
26 -2 26 4 0 6 15 5 40 -1 22 -6 40 -15 40 -19 0 -4 9 -17 21 -29 16 -16 24
-18 32 -10 8 8 8 14 2 19 -6 4 -17 20 -25 35 -12 24 -12 32 -1 50 10 15 10 22
2 25 -8 3 -8 9 -1 23 8 15 7 19 -5 19 -8 0 -15 5 -15 11 0 5 -4 8 -9 4 -6 -3
-14 2 -19 11 -6 11 -23 16 -55 16 -43 0 -47 2 -47 24 0 19 5 23 23 21 21 -2
22 1 19 59 -3 42 0 64 9 69 9 6 11 3 6 -7 -3 -9 1 -24 8 -35 10 -12 14 -14 15
-4 0 7 10 1 22 -15 12 -16 25 -31 29 -34 4 -3 13 -21 21 -40 9 -20 23 -43 32
-53 11 -11 19 -39 22 -79 4 -42 11 -66 22 -74 26 -20 50 -16 58 8 4 13 14 29
23 36 12 10 13 15 4 18 -7 3 -13 17 -13 30 0 27 -12 31 -34 9 -15 -16 -36 -20
-36 -7 1 13 27 42 39 42 21 0 11 50 -20 93 -26 37 -29 48 -20 65 15 29 14 52
-3 52 -8 0 -17 8 -20 18 -4 9 -30 42 -59 73 -28 31 -67 75 -85 98 -28 35 -31
42 -17 47 9 4 27 2 41 -5 14 -6 33 -11 42 -11 9 0 24 -5 32 -10 12 -7 12 -12
2 -22 -21 -21 -14 -32 33 -52 41 -16 91 -19 553 -25 1176 -15 2028 1 2065 38
8 8 -113 29 -137 23 -4 -2 -15 3 -22 9 -10 8 -18 9 -25 2 -13 -13 -95 10 -92
26 2 6 -3 11 -11 11 -7 0 -19 6 -26 14 -8 10 -18 12 -33 7 -16 -6 -26 -3 -39
14 -12 15 -30 23 -50 24 -18 1 -49 2 -68 3 -19 1 -60 1 -90 0 -30 0 -125 1
-210 3 -191 4 -580 4 -1150 0 -289 -3 -444 0 -463 7 -20 8 -31 7 -42 -2 -10
-8 -44 -12 -98 -11 -165 4 -210 3 -217 -9 -5 -8 -17 -6 -41 7 -19 10 -36 20
-39 23 -3 3 -23 18 -45 34 -22 16 -54 43 -71 60 -17 17 -50 48 -73 68 -25 22
-44 49 -48 68 -4 24 -11 31 -27 29 -27 -3 -68 14 -85 35 -7 9 -22 16 -32 16
-11 0 -19 6 -19 13 0 9 -24 13 -82 15 -95 3 -134 16 -147 52 -5 14 -12 32 -15
40 -5 11 1 16 20 18 28 2 84 32 84 44 0 5 12 13 26 18 25 10 25 30 -1 30 -8 0
-20 12 -27 28 -12 24 -20 27 -67 30 -44 3 -57 -1 -73 -17 -19 -21 -68 -29 -68
-11 0 6 6 10 14 10 7 0 26 12 41 26 25 23 34 25 77 20 63 -9 74 -1 46 30 -43
47 -53 48 -121 14 -34 -18 -69 -38 -78 -46 -8 -8 -19 -14 -23 -14 -11 0 -79
52 -89 68 -14 22 -59 34 -114 33 -29 -1 -61 2 -70 8 -13 6 -26 5 -43 -4z m470
-586 c0 -8 -13 -9 -40 -5 -24 4 -40 2 -40 -4 0 -5 -11 -17 -25 -26 -21 -14
-56 -17 -205 -18 -99 0 -180 2 -180 6 0 4 10 8 23 8 62 1 118 7 124 13 3 4 -1
7 -10 7 -9 0 -19 5 -22 11 -5 7 7 9 36 5 24 -3 78 -2 119 3 115 13 220 13 220
0z m-285 -733 l100 6 45 -34 c25 -19 66 -45 93 -58 26 -13 47 -29 47 -37 0 -7
6 -13 14 -13 8 0 28 -13 45 -29 17 -16 41 -31 53 -34 13 -4 32 -13 43 -21 19
-15 18 -15 -17 -16 -20 0 -49 5 -65 11 -15 7 -53 13 -83 15 -30 2 -97 7 -148
11 -63 6 -116 4 -165 -4 -40 -7 -73 -8 -75 -4 -1 5 -19 2 -40 -6 -20 -7 -46
-17 -56 -20 -18 -6 -18 -7 -2 -19 15 -10 15 -15 4 -33 -15 -25 -28 -27 -28 -6
0 18 -2 18 -33 4 -17 -8 -31 -8 -42 -1 -15 8 -12 12 24 28 46 20 37 36 -15 24
-41 -9 -66 -28 -57 -43 3 -5 1 -7 -4 -4 -6 4 -13 0 -17 -8 -7 -20 -44 -19 -48
2 -3 16 -4 16 -20 0 -23 -24 -37 -21 -44 8 -3 14 -9 25 -13 26 -3 0 -17 3 -31
6 -14 3 -43 5 -65 4 -48 -1 -213 1 -272 2 -24 1 -43 4 -43 7 0 3 -18 5 -40 4
-56 -1 -52 22 6 31 41 6 44 8 27 20 -22 17 -18 21 29 28 35 5 36 4 26 -13 -15
-23 -4 -37 15 -22 8 7 17 8 22 4 4 -4 5 4 2 17 -5 22 -4 23 30 18 20 -4 40
-12 45 -19 5 -8 8 -2 8 18 0 47 27 74 80 79 25 2 68 8 96 14 32 6 67 6 90 0
64 -14 114 -10 151 12 26 17 43 20 74 15 24 -4 39 -2 39 4 0 6 14 19 31 29 28
17 34 17 57 5 21 -12 50 -13 127 -8z m269 -351 c11 -12 20 -13 34 -6 13 7 34
6 68 -3 41 -11 52 -11 62 1 11 11 16 11 35 -2 12 -8 40 -15 63 -15 55 0 71
-18 53 -60 l-14 -30 -65 6 -65 7 19 -22 c11 -11 28 -21 38 -21 22 0 51 -24 41
-34 -14 -14 -80 -5 -100 13 -34 32 -285 112 -350 113 -13 0 -23 4 -23 9 0 5 9
9 21 9 14 0 19 5 16 15 -6 15 12 20 93 28 19 2 40 5 47 5 6 1 19 -5 27 -13z
m-2215 -2284 c20 -16 98 -59 174 -96 75 -37 137 -70 137 -72 0 -11 -106 11
-134 28 -19 12 -50 19 -78 19 -27 0 -48 5 -48 10 0 6 -8 10 -17 11 -11 0 -13
3 -5 6 23 9 12 23 -13 17 -19 -5 -25 -2 -25 10 0 8 -10 18 -23 21 -23 6 -57
51 -57 75 0 19 48 3 89 -29z m2661 -312 c0 -17 -39 -92 -71 -134 -16 -22 -40
-56 -54 -76 -13 -20 -36 -49 -50 -65 -15 -16 -30 -33 -33 -39 -11 -16 -133
-120 -173 -147 -25 -17 -53 -25 -88 -27 -29 -1 -63 -6 -76 -11 -67 -26 -255
-18 -290 12 -5 4 -20 8 -32 8 -37 0 -103 38 -113 66 -16 41 -13 56 10 49 31
-10 63 4 57 25 -3 13 0 17 9 13 25 -9 12 -36 -24 -47 -28 -9 -19 -26 14 -26
20 0 29 9 44 45 23 54 38 59 154 52 47 -3 86 -3 86 1 0 10 45 29 102 43 43 10
47 14 42 34 -5 21 -2 24 41 30 57 9 135 1 145 -14 12 -20 55 -2 74 30 9 16 23
29 30 29 9 0 12 9 8 25 -3 17 0 25 9 25 7 0 35 23 61 51 26 28 52 48 57 44 6
-3 19 -1 28 4 23 13 33 14 33 0z m2130 -800 c0 -4 26 -11 59 -15 53 -6 59 -9
59 -30 0 -18 -6 -23 -22 -22 -11 1 -39 -7 -61 -17 -32 -16 -57 -19 -145 -16
-58 1 -116 3 -130 3 -28 0 -60 14 -60 27 0 5 18 11 40 14 25 3 47 14 58 27 10
12 38 27 64 34 49 12 138 9 138 -5z m-5379 -75 c14 -14 42 -27 62 -31 20 -3
44 -14 53 -24 9 -11 23 -19 30 -19 7 0 18 -8 23 -18 7 -14 4 -20 -14 -28 -19
-9 -27 -8 -43 6 -10 10 -45 23 -77 30 -67 14 -95 28 -95 49 0 8 -12 28 -27 44
l-28 30 45 -7 c27 -4 55 -17 71 -32z m-338 10 c29 7 48 -11 26 -25 -11 -6 -11
-14 -1 -42 18 -50 15 -66 -7 -39 -20 23 -51 30 -51 12 0 -6 11 -15 25 -20 15
-6 25 -17 25 -30 0 -26 17 -26 25 0 3 11 14 20 24 20 9 0 27 -9 39 -20 30 -28
52 -26 52 5 0 27 10 31 41 14 19 -10 19 -10 -2 -28 -13 -10 -19 -23 -15 -30
10 -16 27 -4 20 14 -5 12 -1 13 25 4 37 -13 39 -22 9 -41 -18 -12 -54 -16 -75
-9 -10 3 -17 -8 -17 -29 -1 -36 -41 -41 -50 -6 -4 18 -13 26 -27 26 -15 0 -19
5 -15 15 6 17 -2 19 -24 5 -13 -8 -13 -13 3 -40 17 -29 17 -30 0 -31 -10 0
-13 -3 -5 -6 6 -2 12 -11 12 -19 0 -8 10 -14 22 -14 12 0 18 -3 14 -7 -10 -11
-36 -12 -36 -2 0 5 -7 9 -15 9 -22 0 -55 36 -43 48 12 12 -17 42 -42 42 -13 0
-17 5 -14 15 4 9 -3 19 -18 25 -21 10 -58 78 -58 108 0 7 -5 21 -12 32 -16 26
-3 37 20 17 26 -24 40 -21 74 15 22 24 32 29 38 19 5 -9 17 -11 33 -7z m2236
-485 c17 -6 32 -18 32 -27 1 -10 2 -26 3 -37 1 -15 7 -19 23 -17 11 2 41 -7
66 -18 48 -23 68 -60 47 -85 -8 -10 -8 -24 -1 -52 14 -48 14 -63 1 -63 -5 0
-10 5 -10 10 0 6 -9 30 -20 52 -11 23 -20 54 -20 68 0 21 -5 26 -22 26 -13 -1
-22 4 -20 12 1 6 -2 12 -8 12 -5 0 -10 -4 -10 -10 0 -23 -29 -5 -90 56 -52 52
-62 67 -50 74 20 13 40 12 79 -1z m-306 -132 c18 -38 44 -54 102 -64 17 -3 38
-9 47 -14 9 -5 25 -9 36 -9 27 0 51 -29 33 -40 -17 -10 -5 -30 17 -30 17 0 72
-60 72 -79 0 -6 8 -11 18 -11 10 0 24 -9 32 -20 8 -11 25 -20 37 -20 13 0 23
-4 23 -9 0 -5 14 -14 32 -20 17 -6 51 -33 75 -60 53 -59 109 -91 161 -91 35
-1 36 -2 18 -15 -19 -14 -18 -15 12 -15 33 0 42 -16 20 -38 -18 -18 -48 -15
-48 6 0 12 -16 24 -50 37 -27 11 -50 24 -50 31 0 6 -12 17 -27 24 -16 8 -36
23 -46 35 -16 19 -18 19 -28 3 -12 -22 -31 -24 -23 -3 4 8 1 15 -5 15 -6 0
-11 -4 -11 -10 0 -5 -11 -10 -25 -10 -17 0 -25 5 -25 18 0 11 -8 18 -22 19
-11 1 -24 7 -28 14 -4 6 -19 12 -34 12 -14 0 -26 3 -26 7 0 4 -34 13 -75 21
-42 7 -83 20 -93 29 -9 8 -37 31 -62 50 -54 41 -90 78 -90 91 0 15 15 11 54
-16 20 -14 47 -25 59 -26 36 -1 122 -36 120 -48 -2 -6 5 -11 15 -11 9 0 35
-16 56 -35 21 -19 42 -32 47 -30 11 8 -14 54 -33 61 -10 3 -26 17 -37 30 -11
14 -25 23 -31 19 -6 -3 -10 3 -10 14 0 16 -6 21 -29 21 -17 0 -31 6 -35 16 -4
11 -14 15 -33 11 -40 -8 -80 11 -88 40 -3 14 -16 40 -29 57 -12 17 -28 44 -34
59 -11 25 -10 28 5 25 10 -2 26 -20 36 -41z m-67 -272 c49 -49 72 -80 68 -90
-4 -8 -2 -21 3 -28 5 -6 15 -25 22 -42 12 -29 12 -29 -6 -12 -11 9 -23 17 -27
17 -4 0 -41 30 -81 67 -73 66 -74 67 -73 115 1 26 6 48 11 48 5 0 42 -34 83
-75z m668 -8 c23 -18 63 -43 89 -56 32 -15 47 -28 43 -37 -4 -10 3 -14 23 -14
34 0 62 -26 38 -36 -9 -3 -24 -1 -35 5 -10 5 -28 8 -40 4 -49 -12 -132 41
-132 86 0 10 -9 30 -20 44 -38 48 -23 50 34 4z m2748 -24 c3 -27 -21 -63 -42
-63 -5 0 -10 -5 -10 -11 0 -14 -125 -139 -139 -139 -6 0 -11 -5 -11 -11 0 -17
-63 -79 -80 -79 -8 0 -24 -14 -35 -30 -23 -34 -54 -48 -65 -29 -9 13 8 59 21
59 5 0 18 18 29 39 11 22 28 42 38 45 11 4 25 19 32 34 13 26 14 26 18 5 2
-13 10 -23 18 -23 11 0 13 6 9 19 -4 14 1 21 25 29 17 6 33 18 36 27 4 8 20
30 38 49 17 19 45 50 63 70 39 43 51 45 55 9z m-2297 -692 l39 -6 -24 -16
c-14 -8 -43 -20 -65 -27 -22 -6 -58 -16 -79 -23 -40 -12 -75 -16 -186 -21 -55
-3 -65 0 -68 15 -2 11 3 17 16 17 33 0 53 11 63 36 10 27 59 35 59 10 0 -24
20 -29 40 -11 24 22 117 45 145 37 11 -3 38 -8 60 -11z"/>
<path d="M7641 8143 c-79 -3 -120 -8 -135 -18 -11 -8 -27 -15 -34 -15 -8 0
-34 -14 -59 -31 -45 -30 -52 -30 -85 -7 -14 10 -20 9 -35 -4 -15 -14 -26 -15
-63 -7 -58 13 -133 -9 -210 -62 -30 -20 -68 -41 -83 -44 -19 -5 -25 -11 -19
-17 11 -11 75 -11 492 -1 338 9 390 8 420 -7 13 -6 36 -5 47 3 12 9 198 4 330
-9 58 -6 77 -4 97 10 14 9 40 16 58 17 36 0 86 17 56 18 -9 1 -30 13 -47 27
-17 14 -31 22 -31 17 0 -16 -59 -32 -90 -23 -16 5 -39 6 -52 3 -13 -3 -2 7 24
21 26 14 54 23 63 20 11 -4 14 -2 9 9 -4 11 5 18 30 27 26 8 34 16 31 31 -2
12 2 19 11 19 8 0 14 5 14 10 0 14 -30 12 -57 -3 -11 -6 -44 -25 -72 -41 -28
-16 -51 -33 -51 -38 0 -4 -9 -8 -20 -8 -11 0 -20 -4 -20 -9 0 -5 -9 -11 -20
-14 -26 -7 -42 42 -18 57 13 8 12 13 -9 32 -36 34 -88 41 -143 20 -57 -22
-112 -20 -169 5 -24 10 -44 18 -45 17 0 -1 -52 -4 -115 -5z"/>
<path d="M7875 6418 c-99 -12 -139 -13 -440 -10 -340 4 -325 4 -325 -13 0 -10
10 -15 33 -15 43 0 78 -10 71 -21 -2 -5 -26 -6 -51 -2 -43 6 -46 5 -41 -15 3
-12 1 -23 -6 -26 -7 -3 -7 -5 2 -5 6 -1 12 -8 12 -16 0 -28 49 -35 208 -33 95
2 184 -2 225 -10 48 -9 79 -10 105 -3 21 6 162 10 327 10 556 -2 940 2 975 11
19 5 63 5 98 1 35 -4 64 -5 66 -2 2 3 6 19 10 35 6 22 11 27 28 23 20 -6 28
-3 75 21 13 7 32 12 44 12 38 0 14 23 -26 25 -269 17 -444 23 -474 16 -20 -4
-70 -4 -111 0 -41 4 -210 10 -375 13 -165 3 -311 7 -325 10 -14 2 -61 0 -105
-6z"/>
<path d="M2110 4007 c0 -9 -7 -17 -15 -17 -8 0 -15 -4 -15 -10 0 -5 -19 -11
-42 -12 l-43 -1 40 -4 c22 -3 42 -8 45 -11 7 -10 95 -32 129 -32 16 0 31 -6
34 -12 3 -9 9 -7 20 7 8 11 19 17 23 13 4 -4 2 -14 -4 -21 -9 -11 -7 -16 11
-25 36 -18 107 -26 107 -12 0 9 15 11 50 8 28 -3 50 -2 50 3 0 4 -26 10 -57
14 -60 7 -97 20 -122 44 -9 8 -27 11 -48 8 -20 -4 -33 -2 -33 5 0 6 -8 8 -19
5 -23 -6 -51 10 -51 28 0 8 -8 15 -18 15 -10 0 -23 5 -30 12 -9 9 -12 8 -12
-5z"/>
<path d="M2169 3837 c7 -10 26 -17 41 -17 19 0 35 -9 47 -25 18 -25 105 -55
159 -55 14 0 39 -7 56 -16 40 -21 144 -32 134 -15 -5 7 -14 10 -22 7 -20 -8
-63 14 -69 35 -5 15 -14 18 -51 13 -25 -3 -51 -1 -57 4 -47 36 -136 73 -191
79 -56 6 -60 5 -47 -10z"/>
<path d="M8375 3770 c-16 -4 -56 -8 -87 -9 -32 0 -58 -5 -58 -11 0 -5 -9 -10
-19 -10 -21 0 -36 -26 -18 -33 7 -2 47 -3 90 -1 61 2 91 9 131 28 63 31 66 31
66 7 0 -21 21 -33 61 -35 20 -1 25 4 25 22 0 17 -4 21 -18 16 -10 -3 -18 -1
-18 3 0 13 -62 33 -96 32 -16 -1 -42 -5 -59 -9z"/>
<path d="M2240 3417 c0 -19 26 -57 36 -53 7 3 15 -2 18 -10 4 -12 23 -14 83
-13 43 2 83 5 88 8 6 3 24 6 40 6 20 0 29 4 27 14 -2 8 3 18 10 22 8 6 -1 9
-24 9 -27 0 -38 -4 -38 -15 0 -13 -3 -13 -26 1 -14 10 -40 18 -57 20 -18 1
-60 5 -94 9 -35 4 -63 5 -63 2z"/>
<path d="M2117 3003 c-12 -11 -8 -23 7 -23 20 0 27 -27 10 -41 -9 -8 -33 -10
-69 -6 -44 4 -55 3 -55 -9 0 -8 10 -14 23 -14 25 0 49 -13 48 -26 -1 -5 33
-13 76 -19 43 -5 87 -15 98 -21 11 -6 25 -9 32 -7 6 2 14 -1 18 -6 3 -6 19
-11 35 -11 16 0 32 -4 35 -10 9 -15 25 -12 25 5 0 9 -9 15 -21 15 -15 0 -19 5
-15 15 4 11 -2 15 -27 15 -18 0 -64 9 -102 19 -38 11 -74 17 -80 13 -7 -4 -7
-1 0 9 27 37 -8 132 -38 102z"/>
<path d="M8540 2281 c0 -6 -7 -11 -15 -11 -8 0 -15 -7 -15 -15 0 -9 -6 -15
-12 -14 -7 1 -22 -2 -32 -6 -13 -6 -21 -4 -24 3 -7 21 -25 13 -19 -8 4 -15 0
-20 -14 -20 -10 0 -19 -7 -19 -15 0 -8 -4 -15 -9 -15 -5 0 -30 -21 -55 -47
-33 -34 -45 -54 -42 -67 3 -11 0 -26 -6 -33 -18 -22 -1 -27 34 -10 40 19 56
44 52 80 -2 21 2 27 17 27 11 0 19 7 20 18 0 11 2 12 6 4 3 -7 -2 -21 -12 -32
-9 -10 -12 -21 -7 -24 13 -8 45 42 36 56 -5 8 0 9 15 5 23 -6 61 22 61 43 0 6
11 15 24 20 13 5 27 18 31 29 4 13 11 18 22 14 11 -4 14 -2 11 8 -5 17 -48 25
-48 10z"/>
<path d="M6211 994 c-9 -7 -44 -17 -76 -23 -33 -5 -87 -15 -121 -21 -64 -11
-114 -30 -114 -42 0 -5 -10 -8 -22 -8 -20 0 -21 -2 -7 -15 16 -16 49 -11 49 7
0 5 10 2 22 -6 15 -11 26 -12 39 -5 10 5 24 8 31 7 8 -2 12 4 10 15 -2 14 5
17 40 17 24 0 49 4 57 9 8 5 21 7 28 4 12 -5 12 -7 1 -14 -8 -5 1 -6 22 -3 19
4 42 13 51 21 13 11 18 11 21 2 3 -8 9 -9 17 -5 9 6 10 11 2 15 -5 4 -8 17 -4
29 3 12 9 20 13 17 5 -3 12 -1 15 5 9 14 -52 9 -74 -6z"/>
<path d="M5043 930 c1 -19 -2 -24 -15 -22 -27 4 -22 -27 5 -33 42 -9 52 -9
107 -1 39 5 73 2 115 -8 40 -11 79 -14 127 -9 68 6 68 6 68 -19 0 -25 1 -25
35 -14 38 13 56 26 36 26 -8 0 -11 8 -8 20 3 11 1 17 -4 14 -14 -8 -145 24
-190 46 -45 24 -85 26 -96 5 -7 -11 -81 -45 -100 -45 -2 0 -8 11 -13 25 -8 20
-15 24 -34 21 -14 -2 -27 1 -30 7 -3 7 -4 1 -3 -13z"/>
<path d="M5704 743 c14 -15 23 -30 21 -33 -3 -4 20 -24 50 -45 51 -35 66 -53
48 -56 -52 -9 -149 -11 -166 -4 -11 4 -129 2 -263 -5 -134 -7 -284 -9 -334 -6
-111 9 -130 4 -130 -35 0 -16 -4 -29 -8 -29 -13 0 -32 -62 -23 -79 7 -13 7
-73 0 -107 -1 -5 -1 -16 0 -24 1 -11 3 -12 9 -3 7 11 101 26 142 24 8 -1 23
-1 33 -2 9 0 17 -7 17 -15 0 -8 -4 -13 -8 -10 -5 3 -21 -6 -38 -20 l-29 -24
36 15 c20 8 39 12 42 8 3 -3 13 2 22 11 22 22 35 20 35 -4 0 -23 25 -27 34 -5
7 19 36 20 36 1 0 -16 67 -28 89 -16 8 4 29 3 48 -2 25 -7 39 -6 49 3 10 8 41
10 102 7 48 -3 77 -3 64 1 -13 3 -22 11 -20 16 2 6 -9 11 -24 13 -20 2 -28 9
-28 23 0 16 7 19 54 19 30 0 58 -4 61 -10 3 -5 -1 -10 -9 -10 -9 0 -16 -9 -16
-20 0 -16 7 -20 30 -20 17 0 30 3 30 8 0 10 51 31 83 34 17 2 27 8 27 18 0 20
37 42 59 35 10 -3 28 3 41 15 21 18 25 19 46 5 29 -19 38 -19 31 -1 -9 23 18
39 52 31 21 -4 38 -1 53 9 l22 16 -21 0 c-28 0 -38 17 -23 35 8 10 21 13 37 9
20 -5 24 -3 21 11 -1 10 -12 23 -23 29 -26 15 -44 38 -45 56 0 19 -56 70 -76
70 -8 0 -41 11 -74 24 -33 13 -76 26 -97 28 -21 2 -46 11 -55 21 -29 28 -41
20 -14 -10z"/>
</g>
</svg>
